SplineFontDB: 3.0
FontName: SPLaksaman
FullName: SP Laksaman
FamilyName: SP Laksaman
Weight: Book
Copyright: Copyright (c) 2006 by Department of Intellectual Property (DIP), Ministry of Commerce and Software Industry Promotion Agency (Public Organization) (SIPA). All rights reserved.\nCreated by : Suppakit CHALERMLARP.
Version: 2.1
ItalicAngle: 0
UnderlinePosition: -35
UnderlineWidth: 30
Ascent: 800
Descent: 200
LayerCount: 2
Layer: 0 0 "Back" 
Layer: 1 0 "Fore" 
NeedsXUIDChange: 1
XUID: [1021 375 425136265 11035671]
FSType: 0
OS2Version: 3
OS2_WeightWidthSlopeOnly: 0
OS2_UseTypoMetrics: 1
CreationTime: 1158862012
ModificationTime: 1211190078
PfmFamily: 17
TTFWeight: 400
TTFWidth: 5
LineGap: 30
VLineGap: 0
Panose: 2 11 5 0 4 2 0 2 0 3
OS2TypoAscent: 50
OS2TypoAOffset: 1
OS2TypoDescent: -50
OS2TypoDOffset: 1
OS2TypoLinegap: 0
OS2WinAscent: 14
OS2WinAOffset: 1
OS2WinDescent: -171
OS2WinDOffset: 1
HheadAscent: 14
HheadAOffset: 1
HheadDescent: 171
HheadDOffset: 1
OS2SubXSize: 700
OS2SubYSize: 650
OS2SubXOff: 0
OS2SubYOff: 140
OS2SupXSize: 700
OS2SupYSize: 650
OS2SupXOff: 0
OS2SupYOff: 477
OS2StrikeYSize: 30
OS2StrikeYPos: 250
OS2FamilyClass: 2053
OS2Vendor: 'psk '
Lookup: 4 0 0 "'frac' Diagonal Fractions in Latin lookup 0"  {"'frac' Diagonal Fractions in Latin lookup 0 subtable"  } ['frac' ('latn' <'dflt' > ) ]
Lookup: 6 0 0 "'rlig' Required Ligatures in Latin lookup 1"  {"'rlig' Required Ligatures in Latin lookup 1 subtable"  } ['rlig' ('latn' <'dflt' > ) ]
Lookup: 6 0 0 "'rlig' Required Ligatures in Latin lookup 2"  {"'rlig' Required Ligatures in Latin lookup 2 subtable"  } ['rlig' ('latn' <'dflt' > ) ]
Lookup: 6 0 0 "'rlig' Required Ligatures in Latin lookup 3"  {"'rlig' Required Ligatures in Latin lookup 3 subtable"  } ['rlig' ('latn' <'dflt' > ) ]
Lookup: 6 0 0 "'rlig' Required Ligatures in Latin lookup 4"  {"'rlig' Required Ligatures in Latin lookup 4 subtable"  } ['rlig' ('latn' <'dflt' > ) ]

StartChar: .notdef
Encoding: 65536 -1 0
Width: 1040
VWidth: 1504
Flags: W
HStem: 0 42<120 921> 1175 42<120 921>
VStem: 75 45<42 1175> 921 45<42 1175>
LayerCount: 2
Fore
SplineSet
966 0 m 1
 75 0 l 1
 75 1217 l 1
 966 1217 l 1
 966 0 l 1
921 42 m 1
 921 1175 l 1
 120 1175 l 1
 120 42 l 1
 921 42 l 1
EndSplineSet
EndChar

StartChar: exclam
Encoding: 33 33 2
Width: 221
VWidth: 1504
Flags: W
HStem: -9 104<67.3116 149.803>
VStem: 57 104<1.47482 83.8031> 74 70<558.542 714> 84 48<181 336.458>
LayerCount: 2
Fore
SplineSet
132 181 m 1x90
 84 181 l 1x90
 74 714 l 1
 144 714 l 1xa0
 132 181 l 1x90
108 95 m 256
 138 95 161 69 161 42 c 256
 161 12 135 -9 108 -9 c 256
 78 -9 57 15 57 42 c 256xc0
 57 69 78 95 108 95 c 256
EndSplineSet
EndChar

StartChar: quotedbl
Encoding: 34 34 3
Width: 312
VWidth: 1504
Flags: W
HStem: 508 243<71 111 202 242>
VStem: 71 40<510.464 536.242> 202 40<510.464 536.242>
LayerCount: 2
Fore
SplineSet
242 508 m 1
 202 508 l 1
 187 751 l 1
 257 751 l 1
 242 508 l 1
111 508 m 1
 71 508 l 1
 56 751 l 1
 126 751 l 1
 111 508 l 1
EndSplineSet
EndChar

StartChar: numbersign
Encoding: 35 35 4
Width: 606
VWidth: 1504
Flags: W
HStem: 0 21G<110 164.5 353 408.589> 224 47<41 137 196 382 439 543> 450 48<62 164 221 409 466 564>
LayerCount: 2
Fore
SplineSet
543 224 m 1
 435 224 l 1
 406 0 l 1
 353 0 l 1
 382 224 l 1
 190 224 l 1
 162 0 l 1
 110 0 l 1
 137 224 l 1
 41 224 l 1
 41 271 l 1
 143 271 l 1
 164 450 l 1
 62 450 l 1
 62 498 l 1
 170 498 l 1
 199 714 l 1
 248 714 l 1
 221 498 l 1
 415 498 l 1
 441 714 l 1
 493 714 l 1
 466 498 l 1
 564 498 l 1
 564 450 l 1
 460 450 l 1
 439 271 l 1
 543 271 l 1
 543 224 l 1
388 271 m 1
 409 450 l 1
 215 450 l 1
 196 271 l 1
 388 271 l 1
EndSplineSet
EndChar

StartChar: dollar
Encoding: 36 36 5
Width: 543
VWidth: 1504
Flags: W
HStem: 24 48<150.316 242> 600 21G<400 428.25> 644 48<305 383.269>
VStem: 93 56<472.426 596.101> 242 53<-87 24> 254 51<692 806> 406 57<129.152 262.574>
LayerCount: 2
Fore
SplineSet
149 534 m 0xf6
 149 374 463 417 463 200 c 0
 463 103 387 41 295 24 c 1
 295 -87 l 1
 242 -87 l 1
 242 24 l 1xfa
 178 24 123 42 78 77 c 1
 105 123 l 1
 145 89 195 72 256 72 c 0
 353 72 406 130 406 197 c 0
 406 255 362 303 274 340 c 0
 153 390 93 452 93 526 c 0
 93 620 164 678 254 692 c 1
 254 806 l 1
 305 806 l 1
 305 692 l 1
 354 689 401 674 444 648 c 1
 417 600 l 1
 383 629 338 644 281 644 c 0
 194 644 149 590 149 534 c 0xf6
EndSplineSet
EndChar

StartChar: percent
Encoding: 37 37 6
Width: 879
VWidth: 1504
Flags: W
HStem: -5 49<603.378 728.77> 289 48<149.23 274.77> 375 48<603.378 728.77> 668 48<149.23 274.77>
VStem: 51 54<389.441 615.307> 319 54<389.441 615.307> 505 55<94.6738 323.744> 773 54<96.1039 322.307>
LayerCount: 2
Fore
SplineSet
681 716 m 1
 245 -14 l 1
 194 -14 l 1
 630 716 l 1
 681 716 l 1
373 502 m 256
 373 360 319 289 212 289 c 256
 105 289 51 360 51 502 c 256
 51 645 105 716 212 716 c 256
 319 716 373 645 373 502 c 256
319 502 m 256
 319 613 283 668 212 668 c 256
 141 668 105 613 105 502 c 256
 105 392 141 337 212 337 c 256
 283 337 319 392 319 502 c 256
827 209 m 256
 827 66 773 -5 666 -5 c 256
 559 -5 505 66 505 209 c 256
 505 352 559 423 666 423 c 256
 773 423 827 352 827 209 c 256
773 209 m 256
 773 320 737 375 666 375 c 256
 595 375 560 320 560 209 c 256
 560 99 595 44 666 44 c 256
 737 44 773 99 773 209 c 256
EndSplineSet
EndChar

StartChar: ampersand
Encoding: 38 38 7
Width: 636
VWidth: 1504
Flags: W
HStem: -14 49<168.747 366.994> 696 46<220.345 352.32>
VStem: 29 57<116.692 279.592> 116 55<494.362 645.064> 391 53<527.818 657.264> 566 55<198.53 385>
LayerCount: 2
Fore
SplineSet
293 742 m 0
 384 742 444 680 444 594 c 0
 444 514 383 446 260 391 c 1
 486 152 l 1
 520 198 547 276 566 385 c 1
 621 385 l 1
 597 258 563 169 520 120 c 1
 647 0 l 1
 572 0 l 1
 487 80 l 1
 413 17 332 -14 245 -14 c 0
 121 -14 29 77 29 193 c 0
 29 288 80 360 181 411 c 1
 138 468 116 519 116 564 c 0
 116 652 176 742 293 742 c 0
287 696 m 0
 214 696 171 635 171 570 c 0
 171 531 192 484 235 429 c 1
 339 479 391 532 391 588 c 0
 391 655 349 696 287 696 c 0
86 200 m 0
 86 99 162 35 259 35 c 0
 334 35 399 62 453 116 c 1
 362 207 281 293 211 373 c 1
 128 329 86 271 86 200 c 0
EndSplineSet
EndChar

StartChar: quotesingle
Encoding: 39 39 8
Width: 180
VWidth: 1504
Flags: W
HStem: 508 243<71 111>
VStem: 71 40<510.301 537.223>
LayerCount: 2
Fore
SplineSet
111 508 m 1
 71 508 l 1
 56 751 l 1
 125 751 l 1
 111 508 l 1
EndSplineSet
EndChar

StartChar: parenleft
Encoding: 40 40 9
Width: 285
VWidth: 1504
Flags: W
VStem: 30 57<184.783 521.471>
LayerCount: 2
Fore
SplineSet
254 -87 m 1
 197 -87 l 1
 86 34 30 181 30 352 c 0
 30 515 85 664 196 800 c 1
 256 800 l 1
 143 672 87 523 87 352 c 0
 87 193 143 46 254 -87 c 1
EndSplineSet
EndChar

StartChar: parenright
Encoding: 41 41 10
Width: 285
VWidth: 1504
Flags: W
VStem: 197 57<191.096 523.675>
LayerCount: 2
Fore
SplineSet
254 356 m 0
 254 190 198 42 87 -87 c 1
 30 -87 l 1
 141 52 197 200 197 356 c 0
 197 515 141 663 30 800 c 1
 87 800 l 1
 198 675 254 527 254 356 c 0
EndSplineSet
EndChar

StartChar: asterisk
Encoding: 42 42 11
Width: 428
VWidth: 1504
Flags: MW
LayerCount: 2
Fore
SplineSet
402 535 m 1
 247 549 l 1
 343 420 l 1
 293 388 l 1
 214 537 l 1
 135 388 l 1
 86 420 l 1
 182 549 l 1
 27 535 l 1
 27 593 l 1
 182 582 l 1
 86 710 l 1
 143 743 l 1
 215 605 l 1
 286 743 l 1
 343 710 l 1
 247 582 l 1
 402 593 l 1
 402 535 l 1
EndSplineSet
EndChar

StartChar: plus
Encoding: 43 43 12
Width: 618
VWidth: 1504
Flags: W
HStem: 0 21G<283 335> 248 50<57 283 335 561>
VStem: 283 52<0 248 298 537>
LayerCount: 2
Fore
SplineSet
561 248 m 1
 335 248 l 1
 335 0 l 1
 283 0 l 1
 283 248 l 1
 57 248 l 1
 57 298 l 1
 283 298 l 1
 283 537 l 1
 335 537 l 1
 335 298 l 1
 561 298 l 1
 561 248 l 1
EndSplineSet
EndChar

StartChar: comma
Encoding: 44 44 13
Width: 243
VWidth: 1504
Flags: MW
VStem: 132 53<-53.6777 -11>
LayerCount: 2
Fore
SplineSet
129 102 m 0
 163 102 185 73 185 41 c 0
 181 -74 107 -145 66 -164 c 1
 45 -141 l 1
 97 -106 126 -63 132 -11 c 1
 99 -11 74 16 74 45 c 256
 74 77 100 102 129 102 c 0
EndSplineSet
EndChar

StartChar: hyphen
Encoding: 45 45 14
AltUni2: 0000ad.ffffffff.0
Width: 324
VWidth: 1504
Flags: MW
HStem: 248 50<30 293>
LayerCount: 2
Fore
SplineSet
293 248 m 1
 30 248 l 1
 30 298 l 1
 293 298 l 1
 293 248 l 1
EndSplineSet
EndChar

StartChar: period
Encoding: 46 46 15
Width: 243
VWidth: 1504
Flags: W
HStem: -9 104<79.3116 161.803>
VStem: 69 104<1.47482 83.8031>
LayerCount: 2
Fore
SplineSet
120 95 m 256
 150 95 173 69 173 42 c 256
 173 12 147 -9 120 -9 c 256
 90 -9 69 15 69 42 c 256
 69 69 90 95 120 95 c 256
EndSplineSet
EndChar

StartChar: slash
Encoding: 47 47 16
Width: 406
VWidth: 1504
Flags: MW
HStem: 722 20G<346.254 418>
LayerCount: 2
Fore
SplineSet
418 742 m 1
 30 -44 l 1
 -27 -44 l 1
 356 742 l 1
 418 742 l 1
EndSplineSet
EndChar

StartChar: zero
Encoding: 48 48 17
Width: 544
VWidth: 1504
Flags: W
HStem: -17 52<207.344 333.502> 669 52<209.62 334.233>
VStem: 47 60<187.844 514.619> 436 60<190.05 514.396>
LayerCount: 2
Fore
SplineSet
496 341 m 0
 496 207 442 -17 272 -17 c 0
 125 -17 47 162 47 341 c 0
 47 533 115 721 272 721 c 256
 430 721 496 534 496 341 c 0
272 669 m 0
 173 669 107 545 107 343 c 0
 107 201 159 35 272 35 c 0
 383 35 436 200 436 343 c 0
 436 543 370 669 272 669 c 0
EndSplineSet
EndChar

StartChar: one
Encoding: 49 49 18
Width: 544
VWidth: 1504
Flags: MW
HStem: 0 54<146 259 319 432> 699 20G<263.237 297>
VStem: 259 60<54 627>
LayerCount: 2
Fore
SplineSet
432 0 m 1
 146 0 l 1
 146 54 l 1
 259 54 l 1
 259 627 l 1
 146 529 l 1
 113 567 l 1
 286 719 l 1
 308 719 319 700 319 662 c 2
 319 54 l 1
 432 54 l 1
 432 0 l 1
EndSplineSet
EndChar

StartChar: two
Encoding: 50 50 19
Width: 544
VWidth: 1504
Flags: W
HStem: 0 59<120 492> 663 56<203.414 374.917>
VStem: 83 54<543 618.121> 426 60<459.928 613.85>
LayerCount: 2
Fore
SplineSet
292 719 m 0
 406 719 486 641 486 537 c 0
 486 461 426 365 305 250 c 0
 218 163 156 100 120 59 c 1
 504 59 l 1
 492 0 l 1
 39 0 l 1
 43 25 50 54 60 86 c 1
 203 227 l 2
 255 277 313 341 378 418 c 0
 410 461 426 503 426 542 c 256
 426 636 349 663 290 663 c 0
 200 663 149 618 137 528 c 1
 83 543 l 1
 94 652 169 719 292 719 c 0
EndSplineSet
EndChar

StartChar: three
Encoding: 51 51 20
Width: 544
VWidth: 1504
Flags: W
HStem: -17 61<110.874 315.796> 376 54<308 374.089> 665 54<187.845 353.665>
VStem: 376 56<543.594 642.907> 433 60<155.82 317.709>
LayerCount: 2
Fore
SplineSet
317 430 m 2
 427 430 493 348 493 242 c 0
 493 87 376 -13 214 -17 c 0
 147 -19 93 -0 51 39 c 1
 77 86 l 1
 114 58 162 44 223 44 c 0
 343 44 433 137 433 239 c 0
 433 317 382 376 305 376 c 0
 262 376 229 364 205 341 c 1
 176 390 l 1
 290 478 l 2
 347 527 376 564 376 591 c 0
 376 640 342 665 274 665 c 0
 199 665 142 627 105 552 c 1
 63 575 l 1
 94 660 177 719 278 719 c 0
 361 719 432 672 432 593 c 0
 432 546 391 492 308 430 c 1
 317 430 l 2
EndSplineSet
EndChar

StartChar: four
Encoding: 52 52 21
Width: 544
VWidth: 1504
Flags: W
HStem: 0 21G<352 412> 167 56<113 352 412 511> 714 20G<298.5 412>
VStem: 48 65<223 346.056> 352 60<0 167 223 657>
LayerCount: 2
Fore
SplineSet
352 223 m 1
 352 657 l 1
 224 594 117 415 113 223 c 1
 352 223 l 1
412 223 m 1
 519 223 l 1
 511 167 l 1
 412 167 l 1
 412 0 l 1
 352 0 l 1
 352 167 l 1
 48 167 l 1
 52 458 185 688 412 734 c 1
 412 223 l 1
EndSplineSet
EndChar

StartChar: five
Encoding: 53 53 22
Width: 544
VWidth: 1504
Flags: W
HStem: -12 57<103.966 306.753> 403 57<201.251 340.879> 657 57<193 445>
VStem: 417 61<150.932 329.189>
LayerCount: 2
Fore
SplineSet
263 460 m 0
 378 460 478 384 478 247 c 0
 478 92 364 -12 199 -12 c 0
 130 -12 75 7 36 44 c 1
 62 90 l 1
 114 58 145 45 211 45 c 0
 302 45 417 102 417 245 c 0
 417 371 317 403 245 403 c 0
 203 403 169 386 144 353 c 1
 113 350 l 1
 135 714 l 1
 456 714 l 1
 445 657 l 1
 193 657 l 1
 179 445 l 1
 205 455 233 460 263 460 c 0
EndSplineSet
EndChar

StartChar: six
Encoding: 54 54 23
Width: 544
VWidth: 1504
Flags: W
HStem: -12 51<197.24 349.086> 399 49<198.286 347.862> 684 44<335.651 432.433>
VStem: 57 60<127.908 307.242> 424 60<120.489 314.391>
LayerCount: 2
Fore
SplineSet
284 448 m 0
 404 448 484 345 484 218 c 0
 484 94 414 -12 280 -12 c 0
 141 -12 57 96 57 251 c 0
 57 491 222 686 436 728 c 1
 441 684 l 1
 294 643 173 519 129 370 c 1
 135 392 185 448 284 448 c 0
272 39 m 0
 375 39 424 127 424 218 c 0
 424 311 373 399 272 399 c 0
 185 399 117 318 117 218 c 0
 117 119 185 39 272 39 c 0
EndSplineSet
EndChar

StartChar: seven
Encoding: 55 55 24
Width: 544
VWidth: 1504
Flags: W
HStem: 0 21G<197 260> 657 57<72 412>
VStem: 197 63<0 215.199>
LayerCount: 2
Fore
SplineSet
260 0 m 1
 197 0 l 1
 197 151 227 296 287 435 c 0
 317 503 412 657 412 657 c 1
 50 657 l 1
 72 714 l 1
 495 714 l 1
 483 654 l 1
 416 566 362 471 321 368 c 0
 280 265 260 143 260 0 c 1
EndSplineSet
EndChar

StartChar: eight
Encoding: 56 56 25
Width: 544
VWidth: 1504
Flags: W
HStem: -12 53<182.91 359.768> 665 56<187.578 356.339>
VStem: 50 60<109.803 272.09> 72 60<479.89 611.713> 411 60<479.89 610.672> 433 60<109.597 271.407>
LayerCount: 2
Fore
SplineSet
272 41 m 0xe4
 360 41 433 93 433 188 c 0
 433 249 394 351 271 358 c 0
 145 350 110 245 110 188 c 0
 110 93 182 41 272 41 c 0xe4
272 665 m 0
 176 665 132 604 132 543 c 0
 132 481 178 438 271 415 c 1
 364 438 411 481 411 543 c 0xd8
 411 606 365 665 272 665 c 0
341 387 m 1
 425 369 493 297 493 193 c 0
 493 62 407 -12 271 -12 c 0
 136 -12 50 63 50 193 c 0xe4
 50 297 118 369 202 387 c 1
 136 406 72 465 72 539 c 0
 72 646 155 721 272 721 c 0
 397 721 471 639 471 539 c 0
 471 465 409 406 341 387 c 1
EndSplineSet
EndChar

StartChar: nine
Encoding: 57 57 26
Width: 544
VWidth: 1504
Flags: W
HStem: -18 44<101 199.003> 262 49<193.038 343.379> 671 51<192.553 341.745>
VStem: 57 60<395.892 587.205> 424 60<401.475 581.652>
LayerCount: 2
Fore
SplineSet
262 722 m 0
 401 722 484 612 484 459 c 0
 484 225 325 24 105 -18 c 1
 101 26 l 1
 239 64 368 184 412 340 c 1
 406 318 357 262 257 262 c 0
 137 262 57 365 57 492 c 0
 57 617 129 722 262 722 c 0
269 311 m 0
 358 311 424 392 424 492 c 0
 424 591 357 671 269 671 c 0
 166 671 117 583 117 492 c 0
 117 392 175 311 269 311 c 0
EndSplineSet
EndChar

StartChar: colon
Encoding: 58 58 27
Width: 243
VWidth: 1504
Flags: W
HStem: -9 104<79.3116 161.803> 375 103<78.7346 162.588>
VStem: 69 104<1.47482 83.8031 385.475 467.305>
LayerCount: 2
Fore
SplineSet
120 95 m 256
 150 95 173 69 173 42 c 256
 173 12 147 -9 120 -9 c 256
 90 -9 69 15 69 42 c 256
 69 69 90 95 120 95 c 256
120 478 m 256
 147 478 173 456 173 426 c 256
 173 396 147 375 120 375 c 256
 90 375 69 399 69 426 c 256
 69 456 93 478 120 478 c 256
EndSplineSet
EndChar

StartChar: semicolon
Encoding: 59 59 28
Width: 243
VWidth: 1504
Flags: MW
HStem: 375 103<78.7346 162.588>
VStem: 69 104<385.475 467.305> 132 53<-53.6777 -11>
LayerCount: 2
Fore
SplineSet
129 102 m 0
 163 102 185 73 185 41 c 0
 181 -74 107 -145 66 -164 c 1
 45 -141 l 1
 97 -106 126 -63 132 -11 c 1
 99 -11 74 16 74 45 c 256
 74 77 100 102 129 102 c 0
120 478 m 256
 147 478 173 456 173 426 c 256
 173 396 147 375 120 375 c 256
 90 375 69 399 69 426 c 256
 69 456 93 478 120 478 c 256
EndSplineSet
EndChar

StartChar: less
Encoding: 60 60 29
Width: 618
VWidth: 1504
Flags: MW
HStem: -3 21G<514.396 551>
LayerCount: 2
Fore
SplineSet
551 54 m 1
 551 -3 l 1
 66 262 l 1
 66 302 l 1
 551 567 l 1
 551 511 l 1
 126 281 l 1
 551 54 l 1
EndSplineSet
EndChar

StartChar: equal
Encoding: 61 61 30
Width: 618
VWidth: 1504
Flags: W
HStem: 153 50<83 535> 349 50<83 535 83 535 83 83>
LayerCount: 2
Fore
SplineSet
535 399 m 1
 535 349 l 1
 83 349 l 1
 83 399 l 1
 535 399 l 1
535 203 m 1
 535 153 l 1
 83 153 l 1
 83 203 l 1
 535 203 l 1
EndSplineSet
EndChar

StartChar: greater
Encoding: 62 62 31
Width: 618
VWidth: 1504
Flags: MW
HStem: -3 21G<66 102.604>
LayerCount: 2
Fore
SplineSet
551 302 m 1
 551 262 l 1
 66 -3 l 1
 66 54 l 1
 490 283 l 1
 66 511 l 1
 66 567 l 1
 551 302 l 1
EndSplineSet
EndChar

StartChar: question
Encoding: 63 63 32
Width: 425
VWidth: 1504
Flags: W
HStem: -9 104<138.312 220.803> 674 53<95.2189 273.822>
VStem: 128 104<1.47482 83.8031> 156 52<185 199.546 199.546 217.705 208.625 315.073> 313 59<491.997 636.619>
LayerCount: 2
Fore
SplineSet
200 727 m 0xd8
 331 727 372 636 372 569 c 0
 372 516 340 455 277 388 c 0
 228 336 203 284 203 233 c 0
 203 215 205 199 208 185 c 1
 156 185 l 1
 151 200 149 218 149 238 c 0
 149 291 176 348 231 409 c 0
 286 470 313 523 313 566 c 0
 313 638 272 674 190 674 c 0
 143 674 102 661 69 635 c 1
 47 680 l 1
 95 711 146 727 200 727 c 0xd8
179 95 m 256
 209 95 232 69 232 42 c 256
 232 12 206 -9 179 -9 c 256
 149 -9 128 15 128 42 c 256xe8
 128 69 149 95 179 95 c 256
EndSplineSet
EndChar

StartChar: at
Encoding: 64 64 33
Width: 806
VWidth: 1504
Flags: W
HStem: -146 47<266.05 507.704> 2 42<282.145 435.347> 250 43<343.797 502> 429 45<289.243 459.149> 549 44<304.372 545.055>
VStem: 35 57<82.9668 330.477> 202 55<69 190.857> 502 53<104.813 122 122 250 293 383.575> 716 51<165.818 376.177>
LayerCount: 2
Fore
SplineSet
433 593 m 0
 654 593 767 437 767 265 c 0
 767 110 653 19 567 14 c 2
 520 11 l 1
 505 78 l 1
 465 27 412 2 346 2 c 0
 241 2 202 77 202 125 c 0
 202 237 302 293 502 293 c 1
 502 301 l 2
 502 386 462 429 381 429 c 0
 336 429 299 417 268 393 c 1
 251 430 l 1
 290 459 335 474 384 474 c 0
 498 474 555 410 555 283 c 2
 555 122 l 2
 555 100 557 79 561 60 c 1
 636 64 716 148 716 260 c 0
 716 418 615 549 426 549 c 0
 226 549 92 400 92 200 c 0
 92 23 218 -99 379 -99 c 0
 448 -99 507 -84 555 -54 c 1
 576 -98 l 1
 516 -130 449 -146 375 -146 c 0
 187 -146 35 -8 35 196 c 0
 35 409 184 593 433 593 c 0
349 44 m 0
 464 44 502 130 502 158 c 2
 502 250 l 1
 339 248 257 209 257 134 c 0
 257 74 288 44 349 44 c 0
EndSplineSet
EndChar

StartChar: A
Encoding: 65 65 34
Width: 601
VWidth: 1504
Flags: W
HStem: 0 21G<0 72.0435 529.783 602> 230 50<164 436> 707 20G<263.545 338.455>
LayerCount: 2
Fore
SplineSet
602 0 m 1
 537 0 l 1
 454 230 l 1
 146 230 l 1
 65 0 l 1
 0 0 l 1
 271 727 l 1
 331 727 l 1
 602 0 l 1
436 280 m 1
 301 662 l 1
 164 280 l 1
 436 280 l 1
EndSplineSet
EndChar

StartChar: B
Encoding: 66 66 35
Width: 568
VWidth: 1504
Flags: W
HStem: -9 48<163.962 358.26> 355 48<140 357.954> 675 50<173.631 359.839>
VStem: 81 59<48 355 403 665> 433 59<470.429 615.275> 463 57<123.636 274.95>
LayerCount: 2
Fore
SplineSet
373 382 m 1xf8
 418 371 520 321 520 200 c 0xf4
 520 61 419 -9 218 -9 c 0
 174 -9 128 -4 81 6 c 1
 81 705 l 1
 131 718 181 725 232 725 c 0
 405 725 492 665 492 545 c 0
 492 465 439 406 373 382 c 1xf8
262 403 m 2
 365 403 433 459 433 543 c 0xf8
 433 631 366 675 232 675 c 0
 201 675 170 672 140 665 c 1
 140 403 l 1
 262 403 l 2
230 39 m 0
 357 39 463 88 463 199 c 0xf4
 463 324 338 355 244 355 c 2
 140 355 l 1
 140 48 l 1
 167 42 197 39 230 39 c 0
EndSplineSet
EndChar

StartChar: C
Encoding: 67 67 36
Width: 610
VWidth: 1504
Flags: W
HStem: -11 52<273.444 519.111> 675 52<271.134 519.111>
VStem: 35 60<231.228 483.375>
LayerCount: 2
Fore
SplineSet
95 358 m 256
 95 172 218 41 378 41 c 0
 440 41 498 52 552 75 c 1
 570 27 l 1
 517 2 452 -11 375 -11 c 0
 188 -11 35 133 35 360 c 256
 35 576 180 727 375 727 c 0
 452 727 517 714 570 689 c 1
 552 641 l 1
 498 664 440 675 378 675 c 0
 214 675 95 539 95 358 c 256
EndSplineSet
EndChar

StartChar: D
Encoding: 68 68 37
Width: 648
VWidth: 1504
Flags: W
HStem: -6 51<198.546 390.461> 672 52<222.469 395.721>
VStem: 81 59<54 660> 546 59<225.411 504.961>
LayerCount: 2
Fore
SplineSet
295 724 m 0
 481 724 605 589 605 373 c 0
 605 120 492 -6 265 -6 c 0
 235 -6 174 -1 81 8 c 1
 81 705 l 1
 174 718 245 724 295 724 c 0
283 45 m 0
 458 45 546 180 546 373 c 0
 546 549 453 672 290 672 c 0
 259 672 209 668 140 660 c 1
 140 54 l 1
 190 48 238 45 283 45 c 0
EndSplineSet
EndChar

StartChar: E
Encoding: 69 69 38
Width: 527
VWidth: 1504
Flags: MW
HStem: 0 50<140 471> 353 50<140 435> 666 50<140 471>
VStem: 81 59<50 353 403 666>
LayerCount: 2
Fore
SplineSet
471 0 m 1
 81 0 l 1
 81 716 l 1
 471 716 l 1
 471 666 l 1
 140 666 l 1
 140 403 l 1
 435 403 l 1
 435 353 l 1
 140 353 l 1
 140 50 l 1
 471 50 l 1
 471 0 l 1
EndSplineSet
EndChar

StartChar: F
Encoding: 70 70 39
Width: 527
VWidth: 1504
Flags: MW
HStem: 344 50<140 463> 666 50<140 486>
VStem: 81 59<0 344 394 666>
LayerCount: 2
Fore
SplineSet
463 344 m 1
 140 344 l 1
 140 0 l 1
 81 0 l 1
 81 716 l 1
 486 716 l 1
 486 666 l 1
 140 666 l 1
 140 394 l 1
 463 394 l 1
 463 344 l 1
EndSplineSet
EndChar

StartChar: G
Encoding: 71 71 40
Width: 639
VWidth: 1504
Flags: W
HStem: -8 49<241.475 429.834> 310 48<337 519> 674 50<257.896 497.86>
VStem: 35 60<212.513 486.469> 519 57<78 310>
LayerCount: 2
Fore
SplineSet
95 358 m 0
 95 174 176 41 346 41 c 0
 409 41 467 53 519 78 c 1
 519 310 l 1
 337 310 l 1
 337 358 l 1
 576 358 l 1
 576 15 l 1
 568 21 558 24 545 24 c 1
 456 8 l 2
 397 -3 357 -8 337 -8 c 0
 156 -8 35 133 35 360 c 0
 35 576 160 724 363 724 c 0
 436 724 500 712 555 687 c 1
 537 639 l 1
 477 662 418 674 360 674 c 0
 203 674 95 538 95 358 c 0
EndSplineSet
EndChar

StartChar: H
Encoding: 72 72 41
Width: 663
VWidth: 1504
Flags: W
HStem: 0 21G<81 140 523 582> 356 50<140 523> 696 20G<81 140 523 582>
VStem: 81 59<0 356 406 716> 523 59<0 356 406 716>
LayerCount: 2
Fore
SplineSet
582 0 m 1
 523 0 l 1
 523 356 l 1
 140 356 l 1
 140 0 l 1
 81 0 l 1
 81 716 l 1
 140 716 l 1
 140 406 l 1
 523 406 l 1
 523 716 l 1
 582 716 l 1
 582 0 l 1
EndSplineSet
EndChar

StartChar: I
Encoding: 73 73 42
Width: 221
VWidth: 1504
Flags: W
HStem: 0 21G<81 140> 696 20G<81 140>
VStem: 81 59<0 716>
LayerCount: 2
Fore
SplineSet
140 0 m 1
 81 0 l 1
 81 716 l 1
 140 716 l 1
 140 0 l 1
EndSplineSet
EndChar

StartChar: J
Encoding: 74 74 43
Width: 397
VWidth: 1504
Flags: W
HStem: -14 52<61.171 193.384> 696 20G<257 316>
VStem: 257 59<111.112 716>
LayerCount: 2
Fore
SplineSet
105 38 m 0
 227 38 257 114 257 250 c 2
 257 716 l 1
 316 716 l 1
 316 235 l 2
 316 69 246 -14 105 -14 c 0
 66 -14 31 -6 -2 9 c 1
 14 56 l 1
 37 44 67 38 105 38 c 0
EndSplineSet
EndChar

StartChar: K
Encoding: 75 75 44
Width: 565
VWidth: 1504
Flags: W
HStem: -8 21G<81 140 517.36 582.182> 696 20<81 140 475.83 555>
VStem: 81 59<0 296 372 716>
LayerCount: 2
Fore
SplineSet
587 14 m 1
 534 -8 l 1
 217 373 l 1
 140 296 l 1
 140 0 l 1
 81 0 l 1
 81 716 l 1
 140 716 l 1
 140 372 l 1
 496 725 l 1
 555 708 l 1
 257 411 l 1
 587 14 l 1
EndSplineSet
EndChar

StartChar: L
Encoding: 76 76 45
Width: 530
VWidth: 1504
Flags: MW
HStem: 0 50<140 492> 696 20G<81 140>
VStem: 81 59<50 716>
LayerCount: 2
Fore
SplineSet
492 0 m 1
 81 0 l 1
 81 716 l 1
 140 716 l 1
 140 50 l 1
 492 50 l 1
 492 0 l 1
EndSplineSet
EndChar

StartChar: M
Encoding: 77 77 46
Width: 824
VWidth: 1504
Flags: W
HStem: 0 21G<60 117.424 385.658 439.31 706.576 764> 696 20G<108.603 186.259 637.741 715.397>
LayerCount: 2
Fore
SplineSet
764 0 m 1
 708 0 l 1
 663 632 l 1
 432 0 l 1
 393 0 l 1
 161 632 l 1
 116 0 l 1
 60 0 l 1
 110 716 l 1
 179 716 l 1
 412 74 l 1
 645 716 l 1
 714 716 l 1
 764 0 l 1
EndSplineSet
EndChar

StartChar: N
Encoding: 78 78 47
Width: 663
VWidth: 1504
Flags: W
HStem: 0 21G<81 141 508.025 582> 696 20G<81 161.051 525 582>
VStem: 81 60<0 633> 525 57<92 716>
LayerCount: 2
Fore
SplineSet
582 0 m 1
 520 0 l 1
 141 633 l 1
 141 0 l 1
 81 0 l 1
 81 716 l 1
 149 716 l 1
 525 92 l 1
 525 716 l 1
 582 716 l 1
 582 0 l 1
EndSplineSet
EndChar

StartChar: O
Encoding: 79 79 48
Width: 731
VWidth: 1504
Flags: W
HStem: -15 51<263.857 463.969> 677 51<263.857 467.85>
VStem: 33 59<232.812 479.724> 639 59<232.83 483.868>
LayerCount: 2
Fore
SplineSet
698 356 m 256
 698 142 566 -15 366 -15 c 256
 166 -15 33 143 33 356 c 256
 33 570 166 728 366 728 c 256
 565 728 698 570 698 356 c 256
92 356 m 256
 92 180 202 36 366 36 c 256
 530 36 639 181 639 356 c 256
 639 532 530 677 366 677 c 256
 202 677 92 533 92 356 c 256
EndSplineSet
EndChar

StartChar: P
Encoding: 80 80 49
Width: 568
VWidth: 1504
Flags: W
HStem: 0 21G<81 140> 292 49<181.631 359.628> 672 52<169.384 376.311>
VStem: 81 59<0 301 352 665> 463 56<429.15 596.051>
LayerCount: 2
Fore
SplineSet
254 724 m 0
 403 724 519 649 519 517 c 0
 519 372 397 289 233 292 c 0
 201 292 170 295 140 301 c 1
 140 0 l 1
 81 0 l 1
 81 708 l 1
 141 719 199 724 254 724 c 0
463 513 m 256
 463 619 393 672 253 672 c 0
 202 672 165 670 140 665 c 1
 140 352 l 1
 167 345 202 341 245 341 c 0
 390 349 463 406 463 513 c 256
EndSplineSet
EndChar

StartChar: Q
Encoding: 81 81 50
Width: 732
VWidth: 1504
Flags: W
HStem: -15 51<266.713 366> 677 51<263.857 467.85>
VStem: 33 59<232.812 479.724> 639 59<229.625 483.868>
LayerCount: 2
Fore
SplineSet
698 356 m 0
 698 171 598 34 454 -2 c 1
 513 -27 582 -41 659 -45 c 1
 638 -101 l 1
 539 -78 448 -49 366 -15 c 1
 166 -15 33 143 33 356 c 256
 33 570 166 728 366 728 c 256
 565 728 698 570 698 356 c 0
92 356 m 256
 92 180 202 36 366 36 c 256
 530 36 639 181 639 356 c 256
 639 532 530 677 366 677 c 256
 202 677 92 533 92 356 c 256
EndSplineSet
EndChar

StartChar: R
Encoding: 82 82 51
Width: 570
VWidth: 1504
Flags: W
HStem: 0 21G<81 140 467.5 539> 326 47<140 351.906> 672 52<177.061 383.088>
VStem: 81 59<0 326 373 662> 463 56<444.505 602.125> 481 58<0 196.112>
LayerCount: 2
Fore
SplineSet
257 724 m 0xf4
 406 721 519 664 519 531 c 0xf8
 519 442 473 380 381 346 c 1
 496 282 519 129 539 0 c 1
 481 0 l 1
 454 217 387 326 278 326 c 2
 140 326 l 1
 140 0 l 1
 81 0 l 1
 81 707 l 1
 137 718 196 724 257 724 c 0xf4
274 373 m 2
 384 373 463 422 463 523 c 0
 463 622 394 672 257 672 c 0
 202 672 163 669 140 662 c 1
 140 373 l 1
 274 373 l 2
EndSplineSet
EndChar

StartChar: S
Encoding: 83 83 52
Width: 529
VWidth: 1504
Flags: W
HStem: -14 50<126.904 347.576> 680 50<189.367 397.768>
VStem: 65 55<485.744 618.79> 424 57<105.716 258.215>
LayerCount: 2
Fore
SplineSet
286 680 m 0
 176 680 120 620 120 552 c 0
 120 486 173 435 280 399 c 0
 435 345 481 284 481 187 c 0
 481 68 383 -14 238 -14 c 0
 159 -14 94 4 41 41 c 1
 65 92 l 1
 114 55 173 36 244 36 c 0
 349 36 424 87 424 182 c 0
 424 278 352 315 265 343 c 0
 132 386 65 454 65 545 c 0
 65 649 152 730 287 730 c 0
 354 730 409 717 451 692 c 1
 442 675 434 659 426 645 c 1
 383 668 336 680 286 680 c 0
EndSplineSet
EndChar

StartChar: T
Encoding: 84 84 53
Width: 570
VWidth: 1504
Flags: W
HStem: 0 21G<257 314> 666 50<-8 257 314 578>
VStem: 257 57<0 666>
LayerCount: 2
Fore
SplineSet
578 666 m 1
 314 666 l 1
 314 0 l 1
 257 0 l 1
 257 666 l 1
 -8 666 l 1
 -8 716 l 1
 578 716 l 1
 578 666 l 1
EndSplineSet
EndChar

StartChar: U
Encoding: 85 85 54
Width: 700
VWidth: 1504
Flags: W
HStem: -14 50<251.233 449.793> 696 20G<81 140 561 620>
VStem: 81 59<164.25 716> 561 59<163.609 716>
LayerCount: 2
Fore
SplineSet
620 302 m 2
 620 91 530 -14 350 -14 c 256
 171 -14 81 91 81 302 c 2
 81 716 l 1
 140 716 l 1
 140 304 l 2
 140 72 265 36 350 36 c 0
 477 36 563 109 561 304 c 2
 561 716 l 1
 620 716 l 1
 620 302 l 2
EndSplineSet
EndChar

StartChar: V
Encoding: 86 86 55
Width: 586
VWidth: 1504
Flags: W
HStem: 0 21G<254.682 332.318> 696 20G<0 73.0062 512.994 587>
LayerCount: 2
Fore
SplineSet
587 716 m 1
 325 0 l 1
 262 0 l 1
 0 716 l 1
 66 716 l 1
 293 68 l 1
 520 716 l 1
 587 716 l 1
EndSplineSet
EndChar

StartChar: W
Encoding: 87 87 56
Width: 884
VWidth: 1504
Flags: W
HStem: 0 21G<210.939 284.985 599.985 674.034> 696 20G<0 71.6173 404.031 479.969 812.383 884>
LayerCount: 2
Fore
SplineSet
884 716 m 1
 668 0 l 1
 605 0 l 1
 442 650 l 1
 280 0 l 1
 217 0 l 1
 0 716 l 1
 66 716 l 1
 248 68 l 1
 409 716 l 1
 475 716 l 1
 636 68 l 1
 818 716 l 1
 884 716 l 1
EndSplineSet
EndChar

StartChar: X
Encoding: 88 88 57
Width: 628
VWidth: 1504
Flags: W
HStem: 0 21G<26 108.56 520.378 603> 696 20G<36 120.227 508.709 593>
LayerCount: 2
Fore
SplineSet
603 0 m 1
 534 0 l 1
 314 323 l 1
 95 0 l 1
 26 0 l 1
 280 367 l 1
 36 716 l 1
 107 716 l 1
 314 403 l 1
 522 716 l 1
 593 716 l 1
 349 367 l 1
 603 0 l 1
EndSplineSet
EndChar

StartChar: Y
Encoding: 89 89 58
Width: 550
VWidth: 1504
Flags: W
HStem: 0 21G<247 304> 696 20G<0 79.8286 471.114 551>
VStem: 247 57<0 314>
LayerCount: 2
Fore
SplineSet
551 716 m 1
 304 316 l 1
 304 0 l 1
 247 0 l 1
 247 314 l 1
 0 716 l 1
 68 716 l 1
 275 366 l 1
 483 716 l 1
 551 716 l 1
EndSplineSet
EndChar

StartChar: Z
Encoding: 90 90 59
Width: 637
VWidth: 1504
Flags: W
HStem: 0 50<110 602> 666 50<72 519>
LayerCount: 2
Fore
SplineSet
614 50 m 1
 602 0 l 1
 33 0 l 1
 33 39 l 1
 519 666 l 1
 63 666 l 1
 72 716 l 1
 594 716 l 1
 594 675 l 1
 110 50 l 1
 614 50 l 1
EndSplineSet
EndChar

StartChar: bracketleft
Encoding: 91 91 60
Width: 294
VWidth: 1504
Flags: W
HStem: -117 45<131 278 78 278 131 131> 716 45<131 278>
VStem: 78 53<-72 716>
LayerCount: 2
Fore
SplineSet
278 -72 m 1
 278 -117 l 1
 78 -117 l 1
 78 761 l 1
 278 761 l 1
 278 716 l 1
 131 716 l 1
 131 -72 l 1
 278 -72 l 1
EndSplineSet
EndChar

StartChar: backslash
Encoding: 92 92 61
Width: 394
VWidth: 1504
Flags: MW
HStem: 707 20G<-14 54.7529>
LayerCount: 2
Fore
SplineSet
420 -42 m 1
 360 -42 l 1
 -14 727 l 1
 45 727 l 1
 420 -42 l 1
EndSplineSet
EndChar

StartChar: bracketright
Encoding: 93 93 62
Width: 294
VWidth: 1504
Flags: MW
HStem: -117 45<17 164> 716 45<17 164>
VStem: 164 54<-72 716>
LayerCount: 2
Fore
SplineSet
218 -117 m 1
 17 -117 l 1
 17 -72 l 1
 164 -72 l 1
 164 716 l 1
 17 716 l 1
 17 761 l 1
 218 761 l 1
 218 -117 l 1
EndSplineSet
EndChar

StartChar: asciicircum
Encoding: 94 94 63
Width: 619
VWidth: 1504
Flags: MW
LayerCount: 2
Fore
SplineSet
335 722 m 1
 552 239 l 1
 496 239 l 1
 308 665 l 1
 120 239 l 1
 65 239 l 1
 281 722 l 1
 335 722 l 1
EndSplineSet
EndChar

StartChar: underscore
Encoding: 95 95 64
Width: 529
VWidth: 1504
Flags: W
HStem: -275 46<0 529>
LayerCount: 2
Fore
SplineSet
529 -229 m 1
 529 -275 l 1
 0 -275 l 1
 0 -229 l 1
 529 -229 l 1
EndSplineSet
EndChar

StartChar: grave
Encoding: 96 96 65
Width: 306
VWidth: 1504
Flags: W
HStem: 587 137<147 223 147 147>
VStem: 89 134<587 708 708 708>
LayerCount: 2
Fore
SplineSet
223 587 m 1
 176 587 l 1
 89 708 l 1
 147 724 l 1
 223 587 l 1
EndSplineSet
EndChar

StartChar: a
Encoding: 97 97 66
Width: 517
VWidth: 1504
Flags: W
HStem: -14 50<137.15 299.941> 268 51<203.63 381> 475 47<191.738 320.232>
VStem: 39 62<71.8259 197.809> 381 58<151.341 268 319 411.593>
LayerCount: 2
Fore
SplineSet
381 328 m 2
 381 387 353 475 241 475 c 0
 206 475 151 464 78 441 c 1
 71 495 l 1
 127 513 185 522 245 522 c 0
 374 522 439 451 439 308 c 2
 439 125 l 2
 439 83 445 41 457 0 c 1
 405 -11 l 1
 384 72 l 1
 337 15 277 -14 202 -14 c 0
 111 -14 39 40 39 128 c 0
 39 255 150 319 372 319 c 2
 381 319 l 1
 381 328 l 2
206 36 m 0
 352 36 381 155 381 165 c 2
 381 268 l 1
 194 268 101 225 101 138 c 0
 101 56 165 36 206 36 c 0
EndSplineSet
Substitution2: "Single Substitution lookup 42 subtable" uni0E38
Substitution2: "Single Substitution lookup 42 subtable" uni0E38
EndChar

StartChar: b
Encoding: 98 98 67
Width: 603
VWidth: 1504
Flags: W
HStem: -14 50<226.252 413.066> 475 47<234.375 409.768> 740 20G<78 137>
VStem: 74 54<0 35.0957 35.0957 44.8154 44.8154 90> 78 59<121.049 125 205 377.668 414 760> 504 57<137.718 371.208>
LayerCount: 2
Fore
SplineSet
331 522 m 0xec
 476 522 561 411 561 262 c 0
 561 100 473 -14 322 -14 c 0
 242 -14 178 21 131 90 c 1
 131 56 130 26 128 0 c 1
 74 0 l 1xf4
 77 26 78 68 78 125 c 2
 78 760 l 1
 137 760 l 1
 137 414 l 1
 181 486 246 522 331 522 c 0xec
137 205 m 2xec
 137 104 217 36 314 36 c 0
 441 36 504 111 504 260 c 0
 504 358 460 475 320 475 c 0
 223 475 137 400 137 290 c 2
 137 205 l 2xec
EndSplineSet
Substitution2: "Single Substitution lookup 42 subtable" uni0E39
Substitution2: "Single Substitution lookup 42 subtable" uni0E39
EndChar

StartChar: c
Encoding: 99 99 68
Width: 497
VWidth: 1504
Flags: W
HStem: -14 49<209.353 421.895> 474 48<208.689 421.895>
VStem: 41 57<149.027 358.415>
LayerCount: 2
Fore
SplineSet
98 254 m 256
 98 106 197 35 308 35 c 0
 365 35 411 47 448 71 c 1
 469 23 l 1
 426 -2 374 -14 311 -14 c 0
 138 -14 41 94 41 254 c 256
 41 414 138 522 311 522 c 0
 374 522 426 510 469 486 c 1
 448 438 l 1
 411 462 365 474 308 474 c 0
 194 474 98 399 98 254 c 256
EndSplineSet
Substitution2: "Single Substitution lookup 42 subtable" uni0E3A
Substitution2: "Single Substitution lookup 42 subtable" uni0E3A
EndChar

StartChar: d
Encoding: 100 100 69
Width: 603
VWidth: 1504
Flags: W
HStem: -14 50<189.934 377.178> 475 47<196.477 368.182> 740 20G<466 525>
VStem: 42 57<137.718 370.991> 466 59<15.0469 90 121.049 125 205 378.989 414 760>
LayerCount: 2
Fore
SplineSet
42 262 m 0
 42 413 128 522 272 522 c 0
 357 522 422 486 466 414 c 1
 466 760 l 1
 525 760 l 1
 525 125 l 2
 525 68 526 26 529 0 c 1
 475 0 l 1
 473 26 472 56 472 90 c 1
 425 21 362 -14 281 -14 c 0
 130 -14 42 100 42 262 c 0
289 36 m 0
 387 36 466 104 466 205 c 2
 466 290 l 2
 466 403 378 475 283 475 c 0
 164 475 99 385 99 260 c 0
 99 111 162 36 289 36 c 0
EndSplineSet
EndChar

StartChar: e
Encoding: 101 101 70
Width: 562
VWidth: 1504
Flags: W
HStem: -14 52<209.431 450.706> 253 46<101 460> 475 47<204.536 376.045>
VStem: 41 57<154.094 253 299 358.734> 460 56<299 388.864>
LayerCount: 2
Fore
SplineSet
98 253 m 1
 102 110 191 38 308 38 c 0
 369 38 428 49 487 72 c 1
 492 23 l 1
 434 -2 371 -14 302 -14 c 0
 138 -14 41 100 41 242 c 0
 41 415 149 522 296 522 c 0
 439 522 513 432 516 253 c 1
 98 253 l 1
460 299 m 1
 459 362 426 475 289 475 c 0
 187 475 116 401 101 299 c 1
 460 299 l 1
EndSplineSet
EndChar

StartChar: f
Encoding: 102 102 71
Width: 309
VWidth: 1504
Flags: W
HStem: 0 21G<93 152> 465 46<8 93 152 299> 722 50<206.194 311.053>
VStem: 93 59<0 465 511 658.021>
LayerCount: 2
Fore
SplineSet
363 748 m 1
 346 705 l 1
 324 716 299 722 272 722 c 0
 192 722 152 658 152 531 c 2
 152 511 l 1
 299 511 l 1
 299 465 l 1
 152 465 l 1
 152 0 l 1
 93 0 l 1
 93 465 l 1
 8 465 l 1
 8 511 l 1
 95 511 l 1
 95 531 l 2
 95 692 156 772 277 772 c 0
 315 772 344 764 363 748 c 1
EndSplineSet
EndChar

StartChar: g
Encoding: 103 103 72
Width: 467
VWidth: 1504
Flags: W
HStem: -236 51<134.599 315.35> 159 46<178.374 308.587> 468 45<159.94 305.829 389 426>
VStem: 54 53<259.644 411.49> 95 49<99.4839 159.926> 360 51<-142.813 -40.2518 259.442 408.814>
LayerCount: 2
Fore
SplineSet
54 332 m 0xf4
 54 452 142 513 226 513 c 2
 426 513 l 1
 426 465 l 1
 352 472 l 1
 393 432 414 389 414 343 c 0
 414 223 329 159 233 159 c 0
 202 159 176 165 153 176 c 1
 147 161 144 146 144 132 c 0
 144 51 411 83 411 -89 c 0
 411 -148 376 -236 227 -236 c 0
 174 -236 125 -223 81 -196 c 1
 102 -147 l 1
 145 -172 189 -185 232 -185 c 0
 305 -185 360 -148 360 -93 c 0
 360 42 95 5 95 132 c 0xec
 95 150 100 174 110 205 c 1
 73 245 54 287 54 332 c 0xf4
233 205 m 0
 297 205 363 245 363 335 c 0
 363 399 317 468 233 468 c 0
 144 468 107 397 107 334 c 0xf4
 107 248 173 205 233 205 c 0
EndSplineSet
EndChar

StartChar: h
Encoding: 104 104 73
Width: 586
VWidth: 1504
Flags: W
HStem: 0 21G<78 137 450 508> 474 48<224.503 382.347> 740 20G<78 137>
VStem: 78 59<0 386.489 420 760> 450 58<0 402.271>
LayerCount: 2
Fore
SplineSet
296 474 m 0
 211 474 137 389 137 310 c 2
 137 0 l 1
 78 0 l 1
 78 760 l 1
 137 760 l 1
 137 420 l 1
 178 488 235 522 308 522 c 0
 441 522 508 445 508 290 c 2
 508 0 l 1
 450 0 l 1
 450 290 l 2
 450 413 399 474 296 474 c 0
EndSplineSet
EndChar

StartChar: i
Encoding: 105 105 74
Width: 215
VWidth: 1504
Flags: W
HStem: 0 21G<78 137> 491 20G<78 137> 620 94<65.6028 146.056>
VStem: 59 94<647.355 706.808> 78 59<0 511>
LayerCount: 2
Fore
SplineSet
137 0 m 1xe8
 78 0 l 1
 78 511 l 1
 137 511 l 1
 137 0 l 1xe8
105 714 m 256
 134 714 153 694 153 666 c 256
 153 638 134 620 105 620 c 256
 68 620 59 648 59 666 c 256xf0
 59 695 77 714 105 714 c 256
EndSplineSet
EndChar

StartChar: j
Encoding: 106 106 75
Width: 233
VWidth: 1504
Flags: MW
HStem: -223 47<-57 19.2778> 491 20G<96 155> 620 94<83.6028 164.056>
VStem: 77 94<647.355 706.808> 96 59<-98.9093 511>
LayerCount: 2
Fore
SplineSet
-63 -176 m 1
 63 -165 96 -103 96 27 c 2
 96 511 l 1
 155 511 l 1
 155 11 l 2
 153 -142 82 -220 -57 -223 c 1
 -63 -176 l 1
123 714 m 256
 152 714 171 694 171 666 c 256
 171 638 152 620 123 620 c 256
 86 620 77 648 77 666 c 256
 77 695 95 714 123 714 c 256
EndSplineSet
EndChar

StartChar: k
Encoding: 107 107 76
Width: 475
VWidth: 1504
Flags: W
HStem: -15 21<78 137 415.705 492> 499 20G<369.655 451> 740 20G<78 137>
VStem: 78 59<0 215 281 760>
LayerCount: 2
Fore
SplineSet
492 2 m 1
 433 -15 l 1
 190 266 l 1
 137 215 l 1
 137 0 l 1
 78 0 l 1
 78 760 l 1
 137 760 l 1
 137 281 l 1
 391 519 l 1
 451 507 l 1
 232 299 l 1
 492 2 l 1
EndSplineSet
EndChar

StartChar: l
Encoding: 108 108 77
Width: 300
VWidth: 1504
Flags: W
HStem: -11 52<199.855 268> 740 20G<78 137>
VStem: 78 59<119.391 257 257 760>
LayerCount: 2
Fore
SplineSet
137 280 m 2
 137 139 157 42 274 41 c 1
 268 -11 l 1
 141 -5 78 84 78 257 c 2
 78 760 l 1
 137 760 l 1
 137 280 l 2
EndSplineSet
EndChar

StartChar: m
Encoding: 109 109 78
Width: 904
VWidth: 1504
Flags: W
HStem: 0 21G<78 137 423 481 767 826> 474 48<222.118 369.596 555.56 699.449>
VStem: 78 59<0 310 385 386.489 420 448.958> 423 58<0 399.024> 767 59<0 393.916>
CounterMasks: 1 38
LayerCount: 2
Fore
SplineSet
645 522 m 0
 768 522 826 419 826 284 c 2
 826 0 l 1
 767 0 l 1
 767 283 l 2
 767 388 726 474 629 474 c 0
 548 474 481 400 481 325 c 2
 481 0 l 1
 423 0 l 1
 423 310 l 2
 423 419 380 474 293 474 c 0
 209 474 137 389 137 310 c 2
 137 0 l 1
 78 0 l 1
 78 385 l 2
 78 412 75 454 68 511 c 1
 123 511 l 1
 130 490 134 460 135 420 c 1
 174 488 232 522 307 522 c 0
 376 522 428 484 462 408 c 1
 502 484 563 522 645 522 c 0
EndSplineSet
EndChar

StartChar: n
Encoding: 110 110 79
Width: 586
VWidth: 1504
Flags: W
HStem: 0 21G<78 137 450 508> 474 48<224.604 382.347>
VStem: 78 59<0 310 385 386.489 420 448.958> 450 58<0 402.271>
LayerCount: 2
Fore
SplineSet
296 474 m 0
 211 474 137 389 137 310 c 2
 137 0 l 1
 78 0 l 1
 78 385 l 2
 78 412 75 454 68 511 c 1
 123 511 l 1
 130 490 134 460 135 420 c 1
 174 488 232 522 308 522 c 0
 441 522 508 445 508 290 c 2
 508 0 l 1
 450 0 l 1
 450 290 l 2
 450 413 399 474 296 474 c 0
EndSplineSet
EndChar

StartChar: o
Encoding: 111 111 80
Width: 598
VWidth: 1504
Flags: W
HStem: -15 50<210.018 388.229> 472 50<210.018 388.229>
VStem: 42 57<153.893 353.931> 499 58<153.467 354.358>
LayerCount: 2
Fore
SplineSet
299 522 m 256
 454 522 557 407 557 254 c 256
 557 101 454 -15 299 -15 c 256
 145 -15 42 102 42 254 c 256
 42 406 145 522 299 522 c 256
299 35 m 256
 419 35 499 131 499 254 c 256
 499 377 419 472 299 472 c 256
 179 472 99 376 99 254 c 256
 99 132 179 35 299 35 c 256
EndSplineSet
EndChar

StartChar: p
Encoding: 112 112 81
Width: 603
VWidth: 1504
Flags: W
HStem: -14 47<235.261 409.882> 472 50<223.382 407.199>
VStem: 78 59<-251 95 129.892 304 384 385.061 418 492.243> 505 56<135.237 366.593>
LayerCount: 2
Fore
SplineSet
561 247 m 0
 561 91 469 -14 331 -14 c 0
 246 -14 181 22 137 95 c 1
 137 -251 l 1
 78 -251 l 1
 78 384 l 2
 78 442 77 483 74 508 c 1
 128 508 l 1
 130 482 131 452 131 418 c 1
 178 487 242 522 322 522 c 0
 473 522 561 408 561 247 c 0
320 33 m 0
 437 33 505 118 505 248 c 0
 505 352 467 472 314 472 c 0
 211 472 137 399 137 304 c 2
 137 218 l 2
 137 107 227 33 320 33 c 0
EndSplineSet
EndChar

StartChar: q
Encoding: 113 113 82
Width: 603
VWidth: 1504
Flags: W
HStem: -14 47<224.838 399.798> 472 50<227.968 411.466>
VStem: 74 55<138.637 364.303> 498 59<-251 95 129.892 304 384 385.504> 504 53<418 463.185 463.185 473.686 473.686 508>
LayerCount: 2
Fore
SplineSet
304 -14 m 0xf0
 166 -14 74 91 74 247 c 0
 74 408 162 522 313 522 c 0
 393 522 457 487 504 418 c 1xe8
 504 452 505 482 507 508 c 1
 561 508 l 1
 558 483 557 442 557 384 c 2
 557 -251 l 1
 498 -251 l 1
 498 95 l 1
 454 22 389 -14 304 -14 c 0xf0
129 248 m 0
 129 120 198 33 314 33 c 0
 409 33 498 107 498 218 c 2
 498 304 l 2xf0
 498 400 424 472 320 472 c 0
 191 472 129 383 129 248 c 0
EndSplineSet
EndChar

StartChar: r
Encoding: 114 114 83
Width: 326
VWidth: 1504
Flags: W
HStem: 0 21G<78 137> 471 51<218.292 301.308 298.477 304.138 304.138 313>
VStem: 63 50<416.602 502.35> 78 51<409 465.777> 78 59<0 323.867>
LayerCount: 2
Fore
SplineSet
313 469 m 1xd0
 310 470 304 471 295 471 c 0
 218 471 166 423 141 326 c 0
 138 315 137 298 137 275 c 2
 137 0 l 1
 78 0 l 1
 78 344 l 2xc8
 78 419 73 475 63 511 c 1
 113 511 l 1xe0
 124 489 129 455 129 409 c 1
 161 484 213 522 284 522 c 0
 293 522 303 521 313 519 c 1
 313 469 l 1xd0
EndSplineSet
EndChar

StartChar: s
Encoding: 115 115 84
Width: 424
VWidth: 1504
Flags: W
HStem: -14 50<100.972 282.856> 475 47<151.769 313.033>
VStem: 63 56<339.407 442.683> 319 54<69.1254 186.335>
LayerCount: 2
Fore
SplineSet
221 475 m 0
 145 475 119 425 119 387 c 0
 119 346 158 313 236 286 c 0
 327 255 373 204 373 135 c 0
 373 56 313 -14 188 -14 c 0
 138 -14 90 -0 44 27 c 1
 66 75 l 1
 114 49 156 36 193 36 c 0
 277 36 319 68 319 131 c 0
 319 180 279 217 200 241 c 0
 109 269 63 315 63 379 c 0
 63 439 105 522 232 522 c 256
 285 522 327 510 358 487 c 1
 334 439 l 1
 304 463 266 475 221 475 c 0
EndSplineSet
EndChar

StartChar: t
Encoding: 116 116 85
Width: 357
VWidth: 1504
Flags: W
HStem: -14 52<194.795 290.188> 465 46<9 111 170 334>
VStem: 111 59<63.4388 465 511 663>
LayerCount: 2
Fore
SplineSet
242 -14 m 0
 157 -14 111 56 111 150 c 2
 111 465 l 1
 9 465 l 1
 9 511 l 1
 111 511 l 1
 111 663 l 1
 170 690 l 1
 170 511 l 1
 334 511 l 1
 334 465 l 1
 170 465 l 1
 170 152 l 2
 170 76 196 38 247 38 c 0
 278 38 301 41 316 47 c 1
 322 0 l 1
 302 -9 275 -14 242 -14 c 0
EndSplineSet
EndChar

StartChar: u
Encoding: 117 117 86
Width: 586
VWidth: 1504
Flags: W
HStem: -14 52<199.32 361.803> 491 20G<78 137 450 508>
VStem: 78 59<114.212 224 224 511> 450 58<120.106 125 202 511> 478 56<-11 75.0901>
LayerCount: 2
Fore
SplineSet
275 38 m 0xe8
 357 38 450 95 450 202 c 2
 450 511 l 1
 508 511 l 1
 508 125 l 2xf0
 508 88 517 47 534 2 c 1
 478 -11 l 1
 466 24 458 57 454 89 c 1
 410 20 346 -14 262 -14 c 0
 139 -14 78 65 78 224 c 2
 78 511 l 1
 137 511 l 1
 137 235 l 2
 137 104 183 38 275 38 c 0xe8
EndSplineSet
EndChar

StartChar: v
Encoding: 118 118 87
Width: 512
VWidth: 1504
Flags: W
HStem: 0 21G<217.35 287.002> 491 20G<5 73.4375 439.339 508>
LayerCount: 2
Fore
SplineSet
508 511 m 1
 278 0 l 1
 226 0 l 1
 5 511 l 1
 65 511 l 1
 254 63 l 1
 448 511 l 1
 508 511 l 1
EndSplineSet
EndChar

StartChar: w
Encoding: 119 119 88
Width: 762
VWidth: 1504
Flags: W
HStem: 0 21G<164.503 232.874 521.481 586.202> 491 20G<5 72.1538 348.077 417.516 697.258 763>
LayerCount: 2
Fore
SplineSet
763 511 m 1
 579 0 l 1
 528 0 l 1
 381 451 l 1
 226 0 l 1
 171 0 l 1
 5 511 l 1
 66 511 l 1
 202 69 l 1
 355 511 l 1
 411 511 l 1
 555 69 l 1
 704 511 l 1
 763 511 l 1
EndSplineSet
EndChar

StartChar: x
Encoding: 120 120 89
Width: 478
VWidth: 1504
Flags: W
HStem: 0 21G<0 83.3846 393.525 478> 491 20G<14 95.6522 387.444 468>
VStem: 0 478<0 0 1.53064e-18 1.53064e-18>
LayerCount: 2
Fore
SplineSet
478 0 m 1
 409 0 l 1
 238 221 l 1
 68 0 l 1
 0 0 l 1
 208 260 l 1
 14 511 l 1
 80 511 l 1
 242 304 l 1
 403 511 l 1
 468 511 l 1
 272 262 l 1
 478 0 l 1
EndSplineSet
EndChar

StartChar: y
Encoding: 121 121 90
Width: 506
VWidth: 1504
Flags: W
HStem: -235 47<30.41 117.5> 491 20G<5 76.8222 429.732 502>
VStem: 5 497<511 511 511 511>
LayerCount: 2
Fore
SplineSet
277 0 m 2
 218 -133 139 -212 41 -235 c 1
 27 -188 l 1
 112 -169 177 -100 221 17 c 1
 221 20 220 26 217 35 c 2
 5 511 l 1
 68 511 l 1
 259 78 l 1
 438 511 l 1
 502 511 l 1
 277 0 l 2
EndSplineSet
EndChar

StartChar: z
Encoding: 122 122 91
Width: 482
VWidth: 1504
Flags: W
HStem: 0 48<96 453 23 465 96 96> 463 48<50 384>
LayerCount: 2
Fore
SplineSet
453 0 m 1
 23 0 l 1
 23 36 l 1
 384 463 l 1
 41 463 l 1
 50 511 l 1
 457 511 l 1
 456 471 l 1
 96 48 l 1
 465 48 l 1
 453 0 l 1
EndSplineSet
EndChar

StartChar: braceleft
Encoding: 123 123 92
Width: 312
VWidth: 1504
Flags: W
HStem: -116 45<175.689 271> 283 45<20 89.75> 681 46<175.689 271>
VStem: 92 52<-39.2484 201.088 410.112 650.033> 113 52<97.1209 260.118 350.667 513.587>
LayerCount: 2
Fore
SplineSet
113 406 m 0xe8
 113 464 92 526 92 584 c 0
 92 679 146 727 254 727 c 2
 271 727 l 1
 271 681 l 1
 248 681 l 2
 179 681 144 647 144 578 c 0xf0
 158 477 165 421 165 411 c 0
 165 360 145 324 105 305 c 1
 145 286 165 251 165 200 c 0xe8
 165 190 158 134 144 33 c 0
 144 -36 179 -71 248 -71 c 2
 271 -71 l 1
 271 -116 l 1
 254 -116 l 2
 146 -116 92 -68 92 27 c 0xf0
 92 72 113 156 113 205 c 0
 113 255 82 281 20 283 c 1
 20 328 l 1
 82 330 113 356 113 406 c 0xe8
EndSplineSet
EndChar

StartChar: bar
Encoding: 124 124 93
Width: 230
VWidth: 1504
Flags: W
HStem: -262 1056<90 140 90 140 90 90>
VStem: 90 50<-262 794>
LayerCount: 2
Fore
SplineSet
140 794 m 1
 140 -262 l 1
 90 -262 l 1
 90 794 l 1
 140 794 l 1
EndSplineSet
EndChar

StartChar: braceright
Encoding: 125 125 94
Width: 312
VWidth: 1504
Flags: W
HStem: -116 45<42 137.311> 283 45<223.25 293> 681 46<42 137.311>
VStem: 147 53<97.1209 260.118 350.667 513.587> 168 53<-39.2484 201.088 410.112 650.033>
LayerCount: 2
Fore
SplineSet
200 205 m 0xf0
 200 156 221 72 221 27 c 0
 221 -68 167 -116 59 -116 c 2
 42 -116 l 1
 42 -71 l 1
 65 -71 l 2
 134 -71 168 -36 168 33 c 0xe8
 154 134 147 190 147 200 c 0
 147 251 167 286 208 305 c 1
 167 324 147 360 147 411 c 0xf0
 147 421 154 477 168 578 c 0
 168 647 134 681 65 681 c 2
 42 681 l 1
 42 727 l 1
 59 727 l 2
 167 727 221 679 221 584 c 0xe8
 221 526 200 464 200 406 c 0
 200 356 231 330 293 328 c 1
 293 283 l 1
 231 281 200 255 200 205 c 0xf0
EndSplineSet
EndChar

StartChar: asciitilde
Encoding: 126 126 95
Width: 625
VWidth: 1504
Flags: W
HStem: 227 53<380.189 517.454> 325 50<108.504 247.049>
VStem: 39 47<227 302.808> 539 46<302.077 375>
LayerCount: 2
Fore
SplineSet
159 375 m 0
 261 375 374 280 471 280 c 0
 514 280 536 312 539 375 c 1
 585 375 l 1
 585 248 512 227 468 227 c 0
 364 227 254 325 159 325 c 0
 112 325 88 292 86 227 c 1
 39 227 l 1
 39 361 126 375 159 375 c 0
EndSplineSet
EndChar

StartChar: exclamdown
Encoding: 161 161 100
Width: 227
VWidth: 1504
Flags: W
HStem: 402 111<68.6131 155.845>
VStem: 57 111<414.358 500.882> 71 82<-211 -88.7333> 86 52<190.733 313>
LayerCount: 2
Fore
SplineSet
153 -211 m 1xa0
 71 -211 l 1xa0
 86 313 l 1
 138 313 l 1x90
 153 -211 l 1xa0
113 513 m 256
 142 513 168 489 168 457 c 256
 168 426 141 402 113 402 c 256
 81 402 57 428 57 457 c 256xc0
 57 490 83 513 113 513 c 256
EndSplineSet
EndChar

StartChar: cent
Encoding: 162 162 101
Width: 618
VWidth: 1504
Flags: W
HStem: 36 50<261.23 314 364 438.914> 603 21G<529.5 556.444> 638 48<316.267 521.662>
VStem: 48 59<234.66 481.26> 314 50<-89 33 684 815>
LayerCount: 2
Fore
SplineSet
107 355 m 0
 107 140 257 86 390 86 c 0
 453 86 506 96 551 116 c 1
 569 72 l 1
 499 35 414 33 364 33 c 1
 364 -89 l 1
 314 -89 l 1
 314 36 l 1
 238 47 48 100 48 358 c 0
 48 537 154 650 314 678 c 1
 314 815 l 1
 364 815 l 1
 364 684 l 1
 371 685 382 686 396 686 c 0
 456 686 512 676 564 657 c 1
 552 603 l 1
 507 626 456 638 399 638 c 0
 213 638 107 538 107 355 c 0
EndSplineSet
EndChar

StartChar: sterling
Encoding: 163 163 102
Width: 618
VWidth: 1504
Flags: W
HStem: 0 50<187 531> 325 47<87 202 262 426> 644 49<296.831 450.571>
VStem: 86 445<0 38> 190 52<435.226 586.203> 214 54<145.59 298.397>
LayerCount: 2
Fore
SplineSet
531 0 m 1xf0
 86 0 l 1
 86 38 l 1xf0
 171 90 214 157 214 238 c 0xe4
 214 261 211 290 206 325 c 1
 87 325 l 1
 87 372 l 1
 202 372 l 1
 194 420 190 460 190 493 c 0
 190 626 254 693 382 693 c 0
 423 693 465 683 507 663 c 1
 489 620 l 1
 449 636 412 644 379 644 c 0
 288 644 242 593 242 492 c 0xe8
 242 455 247 415 256 372 c 1
 426 372 l 1
 426 325 l 1
 262 325 l 1
 266 302 268 276 268 248 c 0xe4
 268 164 241 98 187 50 c 1
 531 50 l 1
 531 0 l 1xf0
EndSplineSet
EndChar

StartChar: currency
Encoding: 164 164 103
Width: 618
VWidth: 1504
Flags: W
HStem: 65 54<215.74 399.03> 563 52<215.694 398.649>
VStem: 33 59<243.597 435.637> 522 60<244.398 435.679>
LayerCount: 2
Fore
SplineSet
582 338 m 0
 582 272 563 216 525 171 c 1
 585 110 l 1
 542 65 l 1
 478 128 l 1
 432 86 375 65 307 65 c 0
 242 65 185 86 137 128 c 1
 77 65 l 1
 33 110 l 1
 92 171 l 1
 53 220 33 275 33 338 c 0
 33 403 53 460 92 510 c 1
 33 570 l 1
 77 617 l 1
 137 554 l 1
 189 595 246 615 307 615 c 0
 371 615 428 595 478 554 c 1
 543 617 l 1
 585 570 l 1
 525 510 l 1
 563 466 582 409 582 338 c 0
307 119 m 0
 430 119 522 221 522 338 c 0
 522 460 429 563 307 563 c 0
 192 563 92 464 92 338 c 256
 92 212 193 119 307 119 c 0
EndSplineSet
EndChar

StartChar: yen
Encoding: 165 165 104
Width: 618
VWidth: 1504
Flags: W
HStem: 143 44<101 281 337 519> 272 44<101 281 337 519>
VStem: 281 56<29 143 187 272>
LayerCount: 2
Fore
SplineSet
519 143 m 1
 337 143 l 1
 337 29 l 1
 281 29 l 1
 281 143 l 1
 101 143 l 1
 101 187 l 1
 281 187 l 1
 281 272 l 1
 101 272 l 1
 101 316 l 1
 281 316 l 1
 51 690 l 1
 120 690 l 1
 308 373 l 1
 496 690 l 1
 567 690 l 1
 337 317 l 1
 519 317 l 1
 519 272 l 1
 337 272 l 1
 337 187 l 1
 519 187 l 1
 519 143 l 1
EndSplineSet
EndChar

StartChar: brokenbar
Encoding: 166 166 105
Width: 230
VWidth: 1504
Flags: W
VStem: 90 50<-185 190 341 714>
LayerCount: 2
Fore
SplineSet
140 341 m 1
 90 341 l 1
 90 714 l 1
 140 714 l 1
 140 341 l 1
140 -185 m 1
 90 -185 l 1
 90 190 l 1
 140 190 l 1
 140 -185 l 1
EndSplineSet
EndChar

StartChar: section
Encoding: 167 167 106
Width: 562
VWidth: 1504
Flags: W
HStem: -59 45<167.816 353.67> 677 44<211.082 388.737>
VStem: 83 51<328.621 440.128> 116 54<534.981 639.364> 402 51<30.7754 148.576> 424 56<240.238 359.528>
LayerCount: 2
Fore
SplineSet
289 677 m 0xd0
 223 677 170 640 170 585 c 0
 170 532 221 506 320 472 c 0
 427 436 480 384 480 317 c 0xd4
 480 271 459 228 417 188 c 1
 441 164 453 134 453 98 c 0
 453 -1 369 -59 263 -59 c 0
 200 -59 148 -42 108 -9 c 1
 132 33 l 1
 165 2 210 -14 266 -14 c 0
 349 -14 402 28 402 90 c 0
 402 133 374 168 319 193 c 2
 165 254 l 2
 110 282 83 322 83 375 c 0xe8
 83 419 105 459 150 495 c 1
 127 518 116 545 116 576 c 0
 116 663 190 721 296 721 c 256
 349 721 398 708 442 681 c 1
 417 638 l 1
 382 664 339 677 289 677 c 0xd0
424 310 m 0
 424 354 372 398 310 420 c 0
 250 440 208 457 185 471 c 1
 151 442 134 411 134 378 c 0xe4
 134 283 331 259 385 217 c 1
 411 248 424 279 424 310 c 0
EndSplineSet
EndChar

StartChar: dieresis
Encoding: 168 168 107
Width: 318
VWidth: 1504
Flags: W
HStem: 590 91<27.4806 106.103 214.556 292.149>
VStem: 21 92<596.556 674.149> 208 91<596.556 674.246>
LayerCount: 2
Fore
SplineSet
66 681 m 256
 94 681 113 660 113 635 c 256
 113 609 94 590 66 590 c 256
 41 590 21 608 21 635 c 256
 21 662 41 681 66 681 c 256
253 681 m 256
 280 681 299 660 299 635 c 256
 299 608 278 590 253 590 c 256
 226 590 208 608 208 635 c 256
 208 660 226 681 253 681 c 256
EndSplineSet
EndChar

StartChar: copyright
Encoding: 169 169 108
Width: 806
VWidth: 1504
Flags: W
HStem: -5 55<291.214 515.842> 132 53<321.74 509.537> 529 49<319.574 508.778> 672 55<290.576 515.203>
VStem: 38 54<244.828 472.275> 184 60<261.663 454.428> 714 55<249.725 477.172>
LayerCount: 2
Fore
SplineSet
184 350 m 0
 184 500 281 578 406 578 c 0
 469 578 517 566 549 542 c 1
 531 496 l 1
 493 518 451 529 406 529 c 0
 298 523 244 466 244 358 c 0
 244 249 299 191 408 185 c 0
 459 185 502 198 537 223 c 1
 557 176 l 1
 518 147 466 132 399 132 c 0
 259 132 184 236 184 350 c 0
769 361 m 256
 769 160 608 -5 403 -5 c 256
 199 -5 38 161 38 361 c 256
 38 562 200 727 403 727 c 256
 609 727 769 561 769 361 c 256
714 361 m 256
 714 537 575 672 403 672 c 256
 227 672 92 533 92 361 c 256
 92 185 231 50 403 50 c 256
 579 50 714 189 714 361 c 256
EndSplineSet
EndChar

StartChar: ordfeminine
Encoding: 170 170 109
Width: 370
VWidth: 1504
Flags: W
HStem: 367 45<100.688 225.308> 548 42<129.71 262> 675 46<93.3192 237.894>
VStem: 36 53<424.039 514.691> 262 52<445.089 459 459 548 590 651.515> 272 47<372 421.144>
LayerCount: 2
Fore
SplineSet
262 600 m 2xf8
 262 630 242 675 173 675 c 0
 139 675 108 665 80 644 c 1
 63 681 l 1
 100 708 141 721 184 721 c 0
 271 721 314 667 314 560 c 2
 314 459 l 2xf8
 314 430 316 401 319 372 c 1
 272 372 l 1xf4
 265 421 l 1
 237 385 199 367 152 367 c 0
 75 367 36 401 36 469 c 0
 36 548 111 588 262 590 c 1
 262 600 l 2xf8
161 412 m 0
 196 412 262 444 262 484 c 2
 262 548 l 1
 147 548 89 522 89 469 c 0
 89 431 113 412 161 412 c 0
EndSplineSet
EndChar

StartChar: guillemotleft
Encoding: 171 171 110
Width: 448
VWidth: 1504
Flags: MW
LayerCount: 2
Fore
SplineSet
350 72 m 1
 184 266 l 1
 349 465 l 1
 412 465 l 1
 247 266 l 1
 414 72 l 1
 350 72 l 1
184 72 m 1
 17 266 l 1
 182 465 l 1
 245 465 l 1
 80 266 l 1
 247 72 l 1
 184 72 l 1
EndSplineSet
EndChar

StartChar: logicalnot
Encoding: 172 172 111
Width: 631
VWidth: 1504
Flags: MW
HStem: 360 49<35 523>
VStem: 523 59<137 360>
LayerCount: 2
Fore
SplineSet
582 137 m 1
 523 137 l 1
 523 360 l 1
 35 360 l 1
 35 409 l 1
 582 409 l 1
 582 137 l 1
EndSplineSet
EndChar

StartChar: registered
Encoding: 174 174 112
Width: 806
VWidth: 1504
Flags: W
HStem: -5 55<291.214 515.842> 331 56<323 456.708> 537 53<329.985 473.614> 672 55<290.576 515.203>
VStem: 38 54<244.828 472.275> 263 60<140 331 387 532> 498 59<408.673 511.516> 513 59<140 284.875> 714 55<249.725 477.172>
LayerCount: 2
Fore
SplineSet
769 361 m 256xfc80
 769 160 608 -5 403 -5 c 256
 199 -5 38 161 38 361 c 256
 38 562 200 727 403 727 c 256
 609 727 769 561 769 361 c 256xfc80
714 361 m 256
 714 537 575 672 403 672 c 256
 227 672 92 533 92 361 c 256
 92 185 231 50 403 50 c 256
 579 50 714 189 714 361 c 256
388 590 m 0
 485 590 557 550 557 463 c 0xfe80
 557 411 536 374 495 352 c 1
 534 317 560 246 572 140 c 1
 513 140 l 1xfd80
 495 267 462 331 415 331 c 2
 323 331 l 1
 323 140 l 1
 263 140 l 1
 263 578 l 1
 299 585 341 589 388 590 c 0
405 387 m 2
 456 387 498 409 498 456 c 0
 498 510 463 537 394 537 c 0
 367 537 343 535 323 532 c 1
 323 387 l 1
 405 387 l 2
EndSplineSet
EndChar

StartChar: macron
Encoding: 175 175 113
Width: 529
VWidth: 1504
Flags: W
HStem: 794 47<0 529>
LayerCount: 2
Fore
SplineSet
529 841 m 1
 529 794 l 1
 0 794 l 1
 0 841 l 1
 529 841 l 1
EndSplineSet
EndChar

StartChar: degree
Encoding: 176 176 114
Width: 318
VWidth: 1504
Flags: W
HStem: 469 44<102.167 214.144> 683 44<102.925 212.686>
VStem: 30 45<541.107 654.216> 242 45<541.857 653.438>
LayerCount: 2
Fore
SplineSet
158 727 m 256
 231 727 287 667 287 597 c 256
 287 528 230 469 158 469 c 256
 86 469 30 528 30 597 c 256
 30 669 87 727 158 727 c 256
158 513 m 256
 207 513 242 553 242 597 c 256
 242 647 202 683 158 683 c 256
 108 683 75 641 75 597 c 256
 75 553 109 513 158 513 c 256
EndSplineSet
EndChar

StartChar: plusminus
Encoding: 177 177 115
Width: 618
VWidth: 1504
Flags: W
HStem: 0 48<57 561> 302 48<57 283 335 561>
VStem: 283 52<102 302 350 537>
LayerCount: 2
Fore
SplineSet
561 302 m 1
 335 302 l 1
 335 102 l 1
 283 102 l 1
 283 302 l 1
 57 302 l 1
 57 350 l 1
 283 350 l 1
 283 537 l 1
 335 537 l 1
 335 350 l 1
 561 350 l 1
 561 302 l 1
561 0 m 1
 57 0 l 1
 57 48 l 1
 561 48 l 1
 561 0 l 1
EndSplineSet
EndChar

StartChar: twosuperior
Encoding: 178 178 116
Width: 382
VWidth: 1504
Flags: W
HStem: 295 46<107 310> 594 21G<63 116.5> 677 47<137.812 247.02>
VStem: 63 51<603 664.379> 259 51<551.509 664.282>
LayerCount: 2
Fore
SplineSet
190 724 m 0
 261 724 310 680 310 612 c 0
 310 571 283 523 229 466 c 2
 107 341 l 1
 316 341 l 1
 310 295 l 1
 38 295 l 1
 42 374 156 462 220 531 c 0
 246 558 259 585 259 612 c 0
 259 655 237 677 194 677 c 0
 146 677 119 649 114 594 c 1
 63 603 l 1
 71 675 117 724 190 724 c 0
EndSplineSet
EndChar

StartChar: threesuperior
Encoding: 179 179 117
Width: 382
VWidth: 1504
Flags: W
HStem: 295 49<84.6925 232.345> 675 50<134.164 240.723>
VStem: 242 50<601.687 671.639> 274 49<383.728 500.686>
LayerCount: 2
Fore
SplineSet
292 647 m 0xe0
 292 608 258 566 224 552 c 1
 290 548 323 513 323 448 c 0
 323 376 280 295 151 295 c 0
 111 295 78 305 53 325 c 1
 75 373 l 1
 98 354 125 344 155 344 c 0
 230 344 274 386 274 447 c 0xd0
 274 491 253 513 211 513 c 0
 182 513 160 506 144 492 c 1
 123 529 l 1
 207 587 242 609 242 645 c 0
 242 665 226 675 193 675 c 0
 152 675 122 653 105 609 c 1
 62 632 l 1
 89 694 134 725 197 725 c 256
 260 725 292 699 292 647 c 0xe0
EndSplineSet
EndChar

StartChar: acute
Encoding: 180 180 118
Width: 318
VWidth: 1504
Flags: W
HStem: 794 137<128 156 156 156>
LayerCount: 2
Fore
SplineSet
128 794 m 1
 81 794 l 1
 156 931 l 1
 232 931 l 1
 128 794 l 1
EndSplineSet
EndChar

StartChar: mu
Encoding: 181 181 119
Width: 610
VWidth: 1504
Flags: W
HStem: -14 52<208.842 372.454> 491 20G<86 143 471 528>
VStem: 86 57<-211 63 109.24 511> 475 53<41.3891 78 78 95 128.658 511>
LayerCount: 2
Fore
SplineSet
296 38 m 0
 386 38 471 116 471 200 c 2
 471 511 l 1
 528 511 l 1
 528 125 l 2
 528 63 532 21 539 0 c 1
 483 0 l 1
 478 28 475 54 475 78 c 2
 475 95 l 1
 418 22 354 -14 283 -14 c 0
 225 -14 178 12 143 63 c 1
 143 -211 l 1
 86 -211 l 1
 86 511 l 1
 143 511 l 1
 143 220 l 2
 143 99 194 38 296 38 c 0
EndSplineSet
EndChar

StartChar: paragraph
Encoding: 182 182 120
Width: 562
VWidth: 1504
Flags: W
HStem: 666 48<360 431.303>
VStem: 68 292<390.927 589.42> 307 53<-95 271> 432 51<-95 666>
LayerCount: 2
Fore
SplineSet
68 483 m 0xd0
 68 637 167 714 366 714 c 0
 419 714 458 712 483 707 c 1
 483 -95 l 1
 432 -95 l 1
 432 666 l 1
 360 666 l 1
 360 -95 l 1
 307 -95 l 1
 307 271 l 1xb0
 147 271 68 376 68 483 c 0xd0
EndSplineSet
EndChar

StartChar: periodcentered
Encoding: 183 183 121
Width: 243
VWidth: 1504
Flags: W
HStem: 221 104<79.3116 161.803>
VStem: 69 104<231.475 313.803>
LayerCount: 2
Fore
SplineSet
120 325 m 256
 150 325 173 299 173 272 c 256
 173 242 147 221 120 221 c 256
 90 221 69 245 69 272 c 256
 69 299 90 325 120 325 c 256
EndSplineSet
EndChar

StartChar: cedilla
Encoding: 184 184 122
Width: 318
VWidth: 1504
Flags: W
HStem: -209 38<97.2752 178.779>
VStem: 184 46<-164.323 -100.528>
LayerCount: 2
Fore
SplineSet
230 -122 m 0
 230 -180 195 -209 125 -209 c 0
 101 -209 77 -203 53 -190 c 1
 68 -156 l 1
 89 -166 108 -171 126 -171 c 0
 165 -171 184 -157 184 -129 c 0
 184 -104 152 -89 89 -84 c 1
 147 6 l 1
 196 6 l 1
 155 -51 l 1
 205 -63 230 -87 230 -122 c 0
EndSplineSet
EndChar

StartChar: onesuperior
Encoding: 185 185 123
Width: 382
VWidth: 1504
Flags: MW
HStem: 302 36<108 174 227 292>
VStem: 174 53<338 647>
LayerCount: 2
Fore
SplineSet
292 302 m 1
 108 302 l 1
 108 338 l 1
 174 338 l 1
 174 647 l 1
 117 597 l 1
 89 633 l 1
 196 728 l 1
 217 726 227 712 227 686 c 2
 227 338 l 1
 292 338 l 1
 292 302 l 1
EndSplineSet
EndChar

StartChar: ordmasculine
Encoding: 186 186 124
Width: 428
VWidth: 1504
Flags: W
HStem: 358 53<141.556 286.79> 674 53<143.458 284.931>
VStem: 30 53<470.008 612.967> 346 53<471.252 612.72>
LayerCount: 2
Fore
SplineSet
214 727 m 0
 313 727 399 640 399 542 c 0
 399 436 309 358 214 358 c 0
 113 358 30 439 30 542 c 0
 30 638 109 727 214 727 c 0
214 411 m 256
 284 411 346 466 346 542 c 256
 346 615 287 674 214 674 c 256
 138 674 83 612 83 542 c 256
 83 467 141 411 214 411 c 256
EndSplineSet
EndChar

StartChar: guillemotright
Encoding: 187 187 125
Width: 442
VWidth: 1504
Flags: MW
LayerCount: 2
Fore
SplineSet
92 72 m 1
 29 72 l 1
 196 266 l 1
 30 465 l 1
 93 465 l 1
 259 266 l 1
 92 72 l 1
259 72 m 1
 196 72 l 1
 363 266 l 1
 197 465 l 1
 260 465 l 1
 426 266 l 1
 259 72 l 1
EndSplineSet
EndChar

StartChar: onequarter
Encoding: 188 188 126
Width: 806
VWidth: 1504
Flags: W
HStem: 0 21G<170 231.927 636 689> 93 50<523 636 689 752> 280 36<65 131 184 248>
VStem: 131 53<316 618> 636 53<0 93 143 366>
LayerCount: 2
Fore
SplineSet
636 143 m 1
 636 366 l 1
 584 320 527 208 523 143 c 1
 636 143 l 1
752 93 m 1
 689 93 l 1
 689 0 l 1
 636 0 l 1
 636 93 l 1
 468 93 l 1
 470 214 550 426 689 430 c 1
 689 143 l 1
 755 143 l 1
 752 93 l 1
220 -14 m 1
 170 -14 l 1
 597 702 l 1
 647 702 l 1
 220 -14 l 1
248 280 m 1
 65 280 l 1
 65 316 l 1
 131 316 l 1
 131 618 l 1
 74 569 l 1
 45 605 l 1
 152 699 l 1
 173 697 184 683 184 657 c 2
 184 316 l 1
 248 316 l 1
 248 280 l 1
EndSplineSet
LCarets2: 2 0 0 
Ligature2: "'frac' Diagonal Fractions in Latin lookup 0 subtable" one fraction four
Ligature2: "'frac' Diagonal Fractions in Latin lookup 0 subtable" one slash four
EndChar

StartChar: onehalf
Encoding: 189 189 127
Width: 806
VWidth: 1504
Flags: W
HStem: 0 47<564 761> 280 36<65 131 184 248> 382 47<589.492 697.335>
VStem: 131 53<316 618> 514 52<308 370.739> 710 53<256.72 369.935>
LayerCount: 2
Fore
SplineSet
220 -14 m 1
 170 -14 l 1
 597 702 l 1
 647 702 l 1
 220 -14 l 1
248 280 m 1
 65 280 l 1
 65 316 l 1
 131 316 l 1
 131 618 l 1
 74 569 l 1
 45 605 l 1
 152 699 l 1
 173 697 184 683 184 657 c 2
 184 316 l 1
 248 316 l 1
 248 280 l 1
641 429 m 0
 714 429 763 388 763 317 c 0
 763 276 736 228 681 171 c 2
 564 47 l 1
 767 47 l 1
 761 0 l 1
 489 0 l 1
 493 75 594 155 672 236 c 0
 697 264 710 290 710 317 c 0
 710 360 688 382 645 382 c 0
 597 382 571 354 566 299 c 1
 514 308 l 1
 522 383 570 429 641 429 c 0
EndSplineSet
LCarets2: 2 0 0 
Ligature2: "'frac' Diagonal Fractions in Latin lookup 0 subtable" one fraction two
Ligature2: "'frac' Diagonal Fractions in Latin lookup 0 subtable" one slash two
EndChar

StartChar: threequarters
Encoding: 190 190 128
Width: 806
VWidth: 1504
Flags: W
HStem: -14 21<170 231.927 636 689> 93 50<523 636 689 752> 277 49<84.6925 232.345> 591 21G<67.6087 111.5> 657 50<131.534 240.723>
VStem: 242 50<583.687 653.639> 274 49<365.728 482.774> 636 53<0 93 143 366>
LayerCount: 2
Fore
SplineSet
220 -14 m 1xf9
 170 -14 l 1
 597 702 l 1
 647 702 l 1
 220 -14 l 1xf9
292 629 m 0xfd
 292 590 258 548 224 534 c 1
 290 524 323 489 323 430 c 0
 323 358 280 277 151 277 c 0
 111 277 78 287 53 307 c 1
 75 355 l 1
 98 336 125 326 155 326 c 0
 230 326 274 368 274 429 c 0xfb
 274 473 253 495 211 495 c 0
 182 495 160 488 144 474 c 1
 123 511 l 1
 207 569 242 591 242 627 c 0
 242 647 226 657 193 657 c 0
 148 657 118 635 105 591 c 1
 62 614 l 1
 89 676 134 707 197 707 c 256
 260 707 292 681 292 629 c 0xfd
636 143 m 1
 636 366 l 1
 584 320 527 208 523 143 c 1
 636 143 l 1
752 93 m 1
 689 93 l 1
 689 0 l 1
 636 0 l 1
 636 93 l 1
 468 93 l 1
 470 214 550 426 689 430 c 1
 689 143 l 1
 755 143 l 1
 752 93 l 1
EndSplineSet
LCarets2: 2 0 0 
Ligature2: "'frac' Diagonal Fractions in Latin lookup 0 subtable" three fraction four
Ligature2: "'frac' Diagonal Fractions in Latin lookup 0 subtable" three slash four
EndChar

StartChar: questiondown
Encoding: 191 191 129
Width: 434
VWidth: 1504
Flags: W
HStem: -230 53<149.478 326.187> 402 111<199.358 285.882>
VStem: 51 59<-139.773 4.52637> 187 111<414.155 501.387> 220 54<181.399 298.46>
LayerCount: 2
Fore
SplineSet
223 -230 m 0xe8
 104 -230 51 -155 51 -72 c 0
 51 -19 83 41 146 108 c 0
 195 161 220 212 220 263 c 0
 220 281 218 297 215 311 c 1
 266 311 l 1
 271 296 274 279 274 259 c 0
 274 206 247 148 192 87 c 0
 137 26 110 -26 110 -69 c 0
 110 -141 151 -177 233 -177 c 0
 280 -177 320 -164 353 -138 c 1
 376 -184 l 1
 328 -215 277 -230 223 -230 c 0xe8
242 513 m 256
 275 513 298 487 298 457 c 256
 298 428 274 402 242 402 c 256
 211 402 187 429 187 457 c 256xf0
 187 489 213 513 242 513 c 256
EndSplineSet
EndChar

StartChar: AE
Encoding: 198 198 136
Width: 875
VWidth: 1504
Flags: W
HStem: 0 50<546 818> 295 48<232 447> 352 50<501 784> 666 50<457 800>
LayerCount: 2
Fore
SplineSet
818 0 m 1
 496 0 l 1
 454 295 l 1
 208 295 l 1
 51 0 l 1
 -11 0 l 1
 373 716 l 1
 800 716 l 1
 800 666 l 1
 457 666 l 1
 493 402 l 1
 784 402 l 1
 784 352 l 1
 501 352 l 1
 546 50 l 1
 818 50 l 1
 818 0 l 1
447 343 m 1
 406 674 l 1
 232 343 l 1
 447 343 l 1
EndSplineSet
EndChar

StartChar: Eth
Encoding: 208 208 146
Width: 648
VWidth: 1504
Flags: W
HStem: -6 51<198.546 390.461> 320 50<8 81 140 393> 672 52<222.469 395.721>
VStem: 81 59<54 320 370 660> 546 59<225.411 504.961>
LayerCount: 2
Fore
SplineSet
295 724 m 0
 481 724 605 589 605 373 c 0
 605 120 492 -6 265 -6 c 0
 235 -6 174 -1 81 8 c 1
 81 320 l 1
 8 320 l 1
 8 370 l 1
 81 370 l 1
 81 705 l 1
 174 718 245 724 295 724 c 0
283 45 m 0
 458 45 546 180 546 373 c 0
 546 549 453 672 290 672 c 0
 259 672 209 668 140 660 c 1
 140 370 l 1
 393 370 l 1
 393 320 l 1
 140 320 l 1
 140 54 l 1
 190 48 238 45 283 45 c 0
EndSplineSet
EndChar

StartChar: multiply
Encoding: 215 215 153
Width: 618
VWidth: 1504
Flags: MW
LayerCount: 2
Fore
SplineSet
507 17 m 1
 308 224 l 1
 110 17 l 1
 71 53 l 1
 269 262 l 1
 71 471 l 1
 110 507 l 1
 308 299 l 1
 507 507 l 1
 546 471 l 1
 347 262 l 1
 546 53 l 1
 507 17 l 1
EndSplineSet
EndChar

StartChar: Oslash
Encoding: 216 216 154
Width: 731
VWidth: 1504
Flags: W
HStem: -15 51<317.095 463.969> 677 51<263.857 440.222>
VStem: 33 59<229.72 479.724> 639 59<232.83 483.301>
LayerCount: 2
Fore
SplineSet
698 356 m 256
 698 142 566 -15 366 -15 c 0
 315 -15 268 -6 227 12 c 1
 200 -44 l 1
 143 -44 l 1
 182 38 l 1
 132 74 33 165 33 356 c 256
 33 570 166 728 366 728 c 0
 417 728 463 718 505 698 c 1
 526 742 l 1
 588 742 l 1
 552 671 l 1
 640 607 698 498 698 356 c 256
366 677 m 0
 202 677 92 533 92 356 c 256
 92 196 176 116 208 90 c 1
 481 650 l 1
 446 668 408 677 366 677 c 0
366 36 m 0
 530 36 639 181 639 356 c 256
 639 513 555 596 526 618 c 1
 251 62 l 1
 285 45 323 36 366 36 c 0
EndSplineSet
EndChar

StartChar: Thorn
Encoding: 222 222 160
Width: 571
VWidth: 1504
Flags: W
HStem: 0 21G<90 147> 165 49<200.906 370.1> 543 48<218.776 384.232> 696 20G<90 147>
VStem: 90 57<0 177 230 522 575 716> 472 56<303.125 466.669>
LayerCount: 2
Fore
SplineSet
271 591 m 0
 412 591 528 516 528 394 c 0
 528 211 375 165 245 165 c 0
 220 165 188 169 147 177 c 1
 147 0 l 1
 90 0 l 1
 90 716 l 1
 147 716 l 1
 147 575 l 1
 190 586 231 591 271 591 c 0
248 214 m 0
 379 214 472 267 472 387 c 0
 472 492 389 543 271 543 c 0
 234 543 192 536 147 522 c 1
 147 230 l 1
 184 219 217 214 248 214 c 0
EndSplineSet
EndChar

StartChar: germandbls
Encoding: 223 223 161
Width: 589
VWidth: 1504
Flags: W
HStem: -223 21G<62 127> -14 50<261.639 434.153> 678 55<223.651 385.709>
VStem: 90 59<-126.616 581.906> 328 59<342.288 429.288> 430 56<509.258 633.827> 481 54<79.4611 201.054>
LayerCount: 2
Fore
SplineSet
310 733 m 0xfc
 405 733 486 671 486 558 c 0xfc
 486 458 387 448 387 382 c 0
 387 324 535 272 535 153 c 0
 535 50 466 -14 353 -14 c 0
 304 -14 262 -4 226 17 c 1
 244 66 l 1
 282 46 319 36 355 36 c 0
 452 36 481 99 481 144 c 0xfa
 481 235 328 287 328 387 c 0
 328 455 430 501 430 555 c 0
 430 637 386 678 299 678 c 0
 199 678 149 596 149 432 c 2
 149 -81 l 2
 149 -135 138 -182 116 -223 c 1
 62 -208 l 1
 81 -169 90 -126 90 -81 c 2
 90 457 l 2
 90 641 163 733 310 733 c 0xfc
EndSplineSet
EndChar

StartChar: ae
Encoding: 230 230 168
Width: 914
VWidth: 1504
Flags: W
HStem: -14 50<135.33 298.106 548.793 790.706> 253 46<441 800> 268 51<199.568 381> 475 47<191.738 322.255 541.964 716.045>
VStem: 39 62<71.8259 198.196> 381 57<154.094 253 319 361.436> 800 56<299 388.864>
LayerCount: 2
Fore
SplineSet
438 253 m 1xde
 442 110 531 38 648 38 c 0
 709 38 768 49 827 72 c 1
 832 23 l 1
 774 -2 711 -14 642 -14 c 0
 539 -14 463 30 414 117 c 1
 386 30 315 -14 202 -14 c 0
 111 -14 39 40 39 128 c 0
 39 257 148 319 381 319 c 1xbe
 381 444 306 475 241 475 c 0
 206 475 151 464 78 441 c 1
 71 495 l 1
 127 513 185 522 245 522 c 0
 338 522 397 484 424 408 c 1
 472 484 543 522 636 522 c 0
 779 522 853 432 856 253 c 1
 438 253 l 1xde
206 36 m 0
 278 36 381 72 381 215 c 2
 381 268 l 1
 194 268 101 225 101 138 c 0
 101 56 165 36 206 36 c 0
800 299 m 1xde
 799 362 766 475 629 475 c 0
 527 475 456 401 441 299 c 1
 800 299 l 1xde
EndSplineSet
EndChar

StartChar: eth
Encoding: 240 240 178
Width: 544
VWidth: 1504
Flags: W
HStem: -18 51<192.367 341.745> 393 49<194.273 343.501> 678 44<109.588 210.307>
VStem: 57 60<114.707 307.672> 424 60<122.348 347.068>
LayerCount: 2
Fore
SplineSet
332 603 m 1
 358 579 484 460 484 245 c 0
 484 92 401 -18 262 -18 c 0
 128 -18 57 89 57 212 c 0
 57 338 136 442 257 442 c 0
 353 442 402 390 411 367 c 1
 388 445 345 513 284 572 c 1
 153 489 l 1
 128 529 l 1
 245 605 l 1
 200 639 152 663 101 678 c 1
 105 722 l 1
 176 708 240 679 295 636 c 1
 408 710 l 1
 433 669 l 1
 332 603 l 1
269 33 m 0
 357 33 424 113 424 212 c 0
 424 312 358 393 269 393 c 0
 174 393 117 311 117 212 c 0
 117 121 166 33 269 33 c 0
EndSplineSet
EndChar

StartChar: divide
Encoding: 247 247 185
Width: 618
VWidth: 1504
Flags: W
HStem: 38 103<270.5 349.839> 248 50<57 561> 402 103<271.214 350.835>
VStem: 262 96<69.1953 132.193 410.807 496.51>
LayerCount: 2
Fore
SplineSet
311 505 m 256
 340 505 360 481 360 454 c 256
 360 424 338 402 311 402 c 0
 282 402 262 425 262 454 c 0
 263 483 283 505 311 505 c 256
311 141 m 0
 339 141 358 118 358 89 c 256
 358 61 339 38 310 38 c 0
 272 38 262 71 262 89 c 256
 262 118 282 141 311 141 c 0
561 248 m 1
 57 248 l 1
 57 298 l 1
 561 298 l 1
 561 248 l 1
EndSplineSet
EndChar

StartChar: oslash
Encoding: 248 248 186
Width: 598
VWidth: 1504
Flags: W
HStem: -15 50<234.644 388.229> 472 50<210.018 338.506>
VStem: 42 57<149.386 353.931> 499 58<153.467 358.511>
LayerCount: 2
Fore
SplineSet
42 254 m 0
 42 406 145 522 299 522 c 0
 335 522 372 514 409 499 c 1
 456 576 l 1
 520 576 l 1
 456 472 l 1
 523 421 557 349 557 254 c 0
 557 101 454 -15 299 -15 c 0
 255 -15 213 -5 173 15 c 1
 137 -44 l 1
 77 -44 l 1
 131 45 l 1
 72 96 42 166 42 254 c 0
299 35 m 0
 419 35 499 131 499 254 c 0
 499 325 475 383 427 426 c 1
 202 60 l 1
 231 43 263 35 299 35 c 0
299 472 m 0
 179 472 99 376 99 254 c 0
 99 189 119 135 159 92 c 1
 382 454 l 1
 357 466 329 472 299 472 c 0
EndSplineSet
EndChar

StartChar: thorn
Encoding: 254 254 192
Width: 649
VWidth: 1504
Flags: W
HStem: -14 50<252.225 439.35> 475 47<249.481 438.688>
VStem: 92 57<-211 80 172.317 370.947 418 707> 548 55<151.666 365.028>
LayerCount: 2
Fore
SplineSet
358 522 m 0
 497 522 603 417 603 265 c 0
 603 90 492 -14 341 -14 c 0
 259 -14 195 17 149 80 c 1
 149 -211 l 1
 92 -211 l 1
 92 707 l 1
 149 707 l 1
 149 418 l 1
 200 487 270 522 358 522 c 0
346 36 m 0
 460 36 548 114 548 263 c 0
 548 386 470 475 347 475 c 0
 189 475 149 341 149 290 c 2
 149 202 l 2
 149 192 151 177 156 156 c 1
 174 115 232 36 346 36 c 0
EndSplineSet
EndChar

StartChar: dotlessi
Encoding: 305 305 194
Width: 215
VWidth: 1504
Flags: W
HStem: 0 21G<78 135> 491 20G<78 135>
VStem: 78 57<0 511>
LayerCount: 2
Fore
SplineSet
135 0 m 1
 78 0 l 1
 78 511 l 1
 135 511 l 1
 135 0 l 1
EndSplineSet
EndChar

StartChar: Lslash
Encoding: 321 321 195
Width: 543
VWidth: 1504
Flags: MW
HStem: 0 50<149 501> 696 20G<90 149>
VStem: 90 59<50 292 363 716>
LayerCount: 2
Fore
SplineSet
501 0 m 1
 90 0 l 1
 90 292 l 1
 41 277 l 1
 27 323 l 1
 90 343 l 1
 90 716 l 1
 149 716 l 1
 149 363 l 1
 475 466 l 1
 475 411 l 1
 149 311 l 1
 149 50 l 1
 501 50 l 1
 501 0 l 1
EndSplineSet
EndChar

StartChar: lslash
Encoding: 322 322 196
Width: 314
VWidth: 1504
Flags: W
HStem: -11 52<212.284 280> 740 20G<90 149>
VStem: 90 59<114.748 292 363 760>
LayerCount: 2
Fore
SplineSet
149 280 m 2
 149 133 170 45 286 41 c 1
 280 -11 l 1
 153 -5 90 84 90 257 c 2
 90 292 l 1
 41 277 l 1
 27 323 l 1
 90 343 l 1
 90 760 l 1
 149 760 l 1
 149 363 l 1
 272 403 l 1
 272 350 l 1
 149 310 l 1
 149 280 l 2
EndSplineSet
EndChar

StartChar: OE
Encoding: 338 338 197
Width: 1069
VWidth: 1504
Flags: W
HStem: -15 51<263.857 468.948> 0 50<681 1012> 353 50<681 976> 666 50<681 1012> 677 51<263.857 468.943>
VStem: 33 59<232.812 479.724> 623 58<50 111 218 353 403 539.897 602 666>
LayerCount: 2
Fore
SplineSet
1012 50 m 1x76
 1012 0 l 1
 623 0 l 1x76
 623 111 l 1
 560 27 474 -15 366 -15 c 0
 166 -15 33 143 33 356 c 256
 33 570 166 728 366 728 c 0xae
 474 728 560 686 623 602 c 1
 623 716 l 1
 1012 716 l 1
 1012 666 l 1
 681 666 l 1
 681 403 l 1
 976 403 l 1
 976 353 l 1
 681 353 l 1
 681 50 l 1
 1012 50 l 1x76
92 356 m 256
 92 180 202 36 366 36 c 0
 492 36 582 121 623 218 c 1
 623 481 l 1
 608 579 493 677 366 677 c 0xae
 202 677 92 533 92 356 c 256
EndSplineSet
EndChar

StartChar: oe
Encoding: 339 339 198
Width: 1021
VWidth: 1504
Flags: W
HStem: -15 50<206.968 390.424 663.816 909.145> 253 46<560 919> 472 50<210.018 390.709 658.172 835.707>
VStem: 42 57<153.893 353.931> 499 58<154.558 253 299 357.171> 919 56<299 382.889>
LayerCount: 2
Fore
SplineSet
557 253 m 1
 557 81 676 38 767 38 c 0
 826 38 886 49 946 72 c 1
 951 23 l 1
 892 -2 829 -14 761 -14 c 0
 651 -14 572 31 525 122 c 1
 480 31 404 -15 299 -15 c 0
 145 -15 42 102 42 254 c 256
 42 406 145 522 299 522 c 0
 408 522 484 475 528 382 c 1
 571 475 647 522 755 522 c 0
 898 522 972 432 975 253 c 1
 557 253 l 1
99 254 m 256
 99 132 179 35 299 35 c 0
 395 35 499 104 499 262 c 0
 499 377 419 472 299 472 c 0
 179 472 99 376 99 254 c 256
919 299 m 1
 915 402 851 475 748 475 c 0
 644 475 575 399 560 299 c 1
 919 299 l 1
EndSplineSet
EndChar

StartChar: florin
Encoding: 402 402 204
Width: 598
VWidth: 1504
Flags: W
HStem: -108 49<6.47662 138.908> 369 46<205 281 349 487> 645 50<449.015 563.872>
LayerCount: 2
Fore
SplineSet
615 671 m 1
 590 629 l 1
 571 640 547 645 519 645 c 0
 441 645 387 581 358 454 c 2
 349 415 l 1
 496 415 l 1
 487 369 l 1
 340 369 l 1
 289 132 l 2
 254 -28 176 -108 56 -108 c 0
 17 -108 -10 -100 -26 -84 c 1
 0 -42 l 1
 19 -53 43 -59 71 -59 c 0
 149 -59 202 5 230 132 c 2
 281 369 l 1
 196 369 l 1
 205 415 l 1
 292 415 l 1
 301 454 l 2
 338 615 415 695 534 695 c 0
 572 695 599 687 615 671 c 1
EndSplineSet
EndChar

StartChar: circumflex
Encoding: 710 710 205
Width: 318
VWidth: 1504
Flags: W
HStem: 590 117<181 284 181 181>
VStem: 35 249<590 590 590 590>
LayerCount: 2
Fore
SplineSet
181 707 m 1
 284 590 l 1
 229 590 l 1
 159 668 l 1
 90 590 l 1
 35 590 l 1
 138 707 l 1
 181 707 l 1
EndSplineSet
EndChar

StartChar: caron
Encoding: 711 711 206
Width: 318
VWidth: 1504
Flags: W
HStem: 578 117<35 181 35 35>
VStem: 35 249<695 695 695 695>
LayerCount: 2
Fore
SplineSet
181 578 m 1
 138 578 l 1
 35 695 l 1
 90 695 l 1
 159 617 l 1
 229 695 l 1
 284 695 l 1
 181 578 l 1
EndSplineSet
EndChar

StartChar: breve
Encoding: 728 728 207
Width: 454
VWidth: 1504
Flags: MW
HStem: 579 47<165.289 285.427>
LayerCount: 2
Fore
SplineSet
226 626 m 256
 276 626 300 659 308 681 c 1
 360 681 l 1
 348 621 296 579 226 579 c 256
 170 579 107 605 90 681 c 1
 143 681 l 1
 160 636 197 626 226 626 c 256
EndSplineSet
EndChar

StartChar: dotaccent
Encoding: 729 729 208
Width: 454
VWidth: 1504
Flags: W
HStem: 763 102<186.114 267.613>
VStem: 176 102<771.5 854.685>
LayerCount: 2
Fore
SplineSet
226 865 m 0
 257 865 278 839 278 812 c 256
 278 783 255 763 226 763 c 0
 198 763 176 783 176 812 c 256
 176 842 199 865 226 865 c 0
EndSplineSet
EndChar

StartChar: ring
Encoding: 730 730 209
Width: 454
VWidth: 1504
Flags: W
HStem: 554 45<177.69 276.294> 727 48<178.014 274.744>
VStem: 116 46<614.565 710.954> 292 43<615.317 710.292>
LayerCount: 2
Fore
SplineSet
224 775 m 0
 289 775 335 722 335 662 c 0
 335 604 289 554 224 554 c 0
 167 554 116 602 116 662 c 0
 116 725 167 775 224 775 c 0
226 599 m 0
 264 599 292 626 292 660 c 0
 292 700 262 727 226 727 c 0
 188 727 162 697 162 660 c 0
 162 627 189 599 226 599 c 0
EndSplineSet
EndChar

StartChar: ogonek
Encoding: 731 731 210
Width: 454
VWidth: 1504
Flags: MW
HStem: -238 54<194.284 297.705>
VStem: 120 59<-169.464 -86.1998>
LayerCount: 2
Fore
SplineSet
120 -129 m 0
 120 -102 127 -60 147 6 c 1
 208 6 l 1
 189 -43 179 -83 179 -114 c 0
 179 -157 199 -181 238 -184 c 0
 268 -184 297 -176 326 -161 c 1
 328 -215 l 1
 300 -227 267 -238 226 -238 c 0
 136 -238 120 -167 120 -129 c 0
EndSplineSet
EndChar

StartChar: tilde
Encoding: 732 732 211
Width: 318
VWidth: 1504
Flags: W
HStem: 594 45<161.845 245.527> 636 48<77.8534 158.035>
VStem: 35 37<589.945 612.697> 251 39<641.314 687>
LayerCount: 2
Fore
SplineSet
221 639 m 0xb0
 233 639 249 649 251 687 c 1
 290 687 l 1
 289 637 265 594 217 594 c 0xb0
 185 594 130 636 101 636 c 0
 81 636 74 607 72 588 c 1
 35 588 l 1
 37 626 48 684 99 684 c 0x70
 144 684 176 639 221 639 c 0xb0
EndSplineSet
EndChar

StartChar: hungarumlaut
Encoding: 733 733 212
Width: 419
VWidth: 1504
Flags: W
HStem: 496 243<235 283 283 283>
LayerCount: 2
Fore
SplineSet
235 496 m 1
 194 496 l 1
 283 739 l 1
 353 739 l 1
 235 496 l 1
104 496 m 1
 63 496 l 1
 152 739 l 1
 223 739 l 1
 104 496 l 1
EndSplineSet
EndChar

StartChar: uni0E01
Encoding: 3585 3585 214
Width: 580
VWidth: 1504
Flags: W
HStem: 0 21G<90 144 442 496> 554 48<192.705 365.597>
VStem: 90 54<0 337.836> 442 54<0 477.175>
LayerCount: 2
Fore
SplineSet
281 602 m 0
 413 602 496 525 496 399 c 2
 496 0 l 1
 442 0 l 1
 442 393 l 2
 442 491 375 554 278 554 c 0
 207 554 136 509 113 451 c 1
 172 446 213 424 235 385 c 1
 186 376 144 326 144 274 c 2
 144 0 l 1
 90 0 l 1
 90 272 l 2
 90 331 116 372 168 393 c 1
 135 409 97 414 54 409 c 1
 70 521 164 602 281 602 c 0
EndSplineSet
EndChar

StartChar: uni0E02
Encoding: 3586 3586 215
Width: 568
VWidth: 1504
Flags: W
HStem: -12 48<286.156 409.35> 341 43<78.5613 160.193> 480 40<87.7109 159.535> 558 44<107.793 251.385>
VStem: 23 48<391.927 471.898> 167 41<391.458 472.312> 211 54<55.8775 330.954> 286 51<403.005 522.834> 430 54<58.9197 590>
LayerCount: 2
Fore
SplineSet
337 478 m 0
 337 404 265 320 265 260 c 2
 265 120 l 2
 265 64 292 36 347 36 c 256
 402 36 430 64 430 120 c 2
 430 590 l 1
 484 590 l 1
 484 125 l 2
 484 34 438 -12 346 -12 c 0
 256 -12 211 34 211 125 c 2
 211 268 l 2
 211 332 286 409 286 471 c 0
 286 513 246 558 185 558 c 0
 141 558 107 543 84 514 c 1
 93 518 105 520 119 520 c 0
 172 520 208 483 208 433 c 0
 208 379 170 341 119 341 c 0
 42 341 23 415 23 460 c 0
 23 517 63 602 185 602 c 0
 270 602 337 557 337 478 c 0
119 384 m 256
 148 384 167 404 167 432 c 256
 167 461 147 480 119 480 c 256
 90 480 71 460 71 432 c 256
 71 403 91 384 119 384 c 256
EndSplineSet
EndChar

StartChar: uni0E03
Encoding: 3587 3587 216
Width: 574
VWidth: 1504
Flags: W
HStem: -12 48<292.156 415.35> 275 51<84.5405 165.898> 423 48<90.3652 165.56> 570 20<120.5 173.615 222.231 271.5 436 490>
VStem: 23 54<333.07 459.253> 173 48<333.735 415.311> 217 54<55.8775 292.463> 307 49<383.882 530.782> 436 54<58.9197 590>
LayerCount: 2
Fore
SplineSet
356 456 m 0xfd80
 356 373 271 293 271 215 c 2
 271 120 l 2
 271 64 298 36 353 36 c 256
 408 36 436 64 436 120 c 2
 436 590 l 1
 490 590 l 1
 490 125 l 2
 490 34 444 -12 352 -12 c 0
 262 -12 217 34 217 125 c 2
 217 220 l 2xfb80
 217 304 307 378 307 460 c 0
 307 513 288 543 250 551 c 1
 197 487 l 1
 143 549 l 1
 111 527 89 498 78 462 c 1
 92 468 108 471 126 471 c 0
 184 471 221 430 221 373 c 0
 221 312 176 275 125 275 c 0
 43 275 23 357 23 409 c 0
 23 500 82 588 159 603 c 1
 197 551 l 1
 238 603 l 1
 305 596 356 536 356 456 c 0xfd80
125 326 m 256
 154 326 173 346 173 375 c 256xfd80
 173 404 153 423 125 423 c 256
 96 423 77 403 77 375 c 256
 77 346 96 326 125 326 c 256
EndSplineSet
EndChar

StartChar: uni0E04
Encoding: 3588 3588 217
Width: 591
VWidth: 1504
Flags: W
HStem: 0 21G<98 152 453 507> 280 43<248.915 327.664> 417 42<250.139 327.927> 554 48<194.192 370.599>
VStem: 50 55<271.689 468.997> 98 54<0 214.392> 335 43<329.939 410.051> 453 54<0 478.6>
LayerCount: 2
Fore
SplineSet
281 602 m 0xfb
 366 602 507 563 507 409 c 2
 507 0 l 1
 453 0 l 1
 453 405 l 2
 453 524 337 554 278 554 c 0
 187 554 105 484 105 390 c 0xfb
 105 336 132 259 135 235 c 1
 152 336 198 459 292 459 c 0
 340 459 378 427 378 370 c 0
 378 318 337 280 289 280 c 0
 263 280 240 292 220 316 c 1
 196 279 152 185 152 98 c 2
 152 0 l 1
 98 0 l 1
 98 138 l 2xf7
 98 218 50 304 50 384 c 0
 50 515 149 602 281 602 c 0xfb
289 323 m 256
 314 323 335 342 335 370 c 256
 335 398 314 417 289 417 c 256
 261 417 242 396 242 370 c 256
 242 342 263 323 289 323 c 256
EndSplineSet
EndChar

StartChar: uni0E05
Encoding: 3589 3589 218
Width: 591
VWidth: 1504
Flags: W
HStem: 0 21G<101 155 453 507> 248 42<248.875 327.875> 384 40<249.37 327.829>
VStem: 50 57<310.48 478.177> 101 54<0 209.16> 335 41<297.036 376.865> 453 54<0 498.299>
LayerCount: 2
Fore
SplineSet
101 120 m 2xee
 101 200 50 307 50 387 c 0
 50 502 105 575 214 605 c 1
 280 528 l 1
 340 605 l 1
 450 583 506 523 507 424 c 2
 507 0 l 1
 453 0 l 1
 453 421 l 2
 452 490 418 533 352 549 c 1
 280 468 l 1
 200 551 l 1
 142 520 107 452 107 399 c 0xf6
 107 364 116 305 135 220 c 1
 162 356 214 424 289 424 c 0
 340 424 376 390 376 337 c 0
 376 285 338 248 290 248 c 0
 258 248 232 260 212 283 c 1
 184 252 155 157 155 81 c 2
 155 0 l 1
 101 0 l 1
 101 120 l 2xee
289 290 m 256
 314 290 335 309 335 337 c 256
 335 364 314 384 289 384 c 256
 261 384 242 362 242 337 c 256
 242 309 263 290 289 290 c 256
EndSplineSet
EndChar

StartChar: uni0E06
Encoding: 3590 3590 219
Width: 613
VWidth: 1504
Flags: W
HStem: -12 51<168.895 252.569> 144 50<169.438 216.033> 275 51<84.5405 165.898> 423 48<90.3652 165.56> 570 20<120.5 173.615 222.231 273 475 529>
VStem: 23 54<333.07 459.253> 107 51<50.6802 133.139> 173 48<333.735 415.311> 217 54<194 292.463> 263 50<49.7137 125.687> 307 49<383.882 530.666> 475 54<81 590>
LayerCount: 2
Fore
SplineSet
211 39 m 256xfe50
 241 39 263 65 263 92 c 256
 263 122 238 144 211 144 c 256
 184 144 158 122 158 92 c 256
 158 62 184 39 211 39 c 256xfe50
356 456 m 0xff30
 356 373 271 293 271 215 c 2
 271 193 l 1xfeb0
 360 182 428 145 475 81 c 1
 475 590 l 1
 529 590 l 1
 529 0 l 1
 475 0 l 1
 432 82 371 132 292 149 c 1
 306 133 313 114 313 92 c 0xfe50
 313 31 267 -12 211 -12 c 0
 149 -12 107 34 107 92 c 256
 107 146 145 194 217 194 c 1
 217 220 l 2xfe90
 217 304 307 378 307 460 c 0
 307 513 288 543 250 551 c 1
 197 487 l 1
 143 549 l 1
 111 527 89 498 78 462 c 1
 92 468 108 471 126 471 c 0
 184 471 221 430 221 373 c 0
 221 312 176 275 125 275 c 0
 43 275 23 357 23 409 c 0
 23 500 82 588 159 603 c 1
 197 551 l 1
 238 603 l 1
 308 595 356 536 356 456 c 0xff30
125 326 m 256
 154 326 173 346 173 375 c 256xff10
 173 404 153 423 125 423 c 256
 96 423 77 403 77 375 c 256
 77 346 96 326 125 326 c 256
EndSplineSet
EndChar

StartChar: uni0E07
Encoding: 3591 3591 220
Width: 442
VWidth: 1504
Flags: W
HStem: 0 21G<286.109 358> 403 50<215.353 291.466> 555 47<215.293 298.749>
VStem: 158 48<461.955 545.18> 304 54<77 414 462.018 544.808>
LayerCount: 2
Fore
SplineSet
257 602 m 0
 318 602 358 562 358 501 c 2
 358 0 l 1
 304 0 l 1
 24 313 l 1
 54 347 l 1
 304 77 l 1
 304 414 l 1
 290 407 274 403 257 403 c 0
 201 403 158 450 158 501 c 0
 158 561 201 602 257 602 c 0
257 453 m 256
 287 453 308 477 308 504 c 256
 308 534 284 555 257 555 c 256
 227 555 206 531 206 504 c 256
 206 474 230 453 257 453 c 256
EndSplineSet
EndChar

StartChar: uni0E08
Encoding: 3592 3592 221
Width: 552
VWidth: 1504
Flags: MW
HStem: -14 50<327.285 406.011> 226 43<150.103 222.753> 361 45<150.806 228.446> 552 50<159.986 360.196>
VStem: 36 56<452.282 510.841> 99 45<275.302 354.007> 414 54<43.7141 504.771>
LayerCount: 2
Fore
SplineSet
36 445 m 1
 44 506 97 602 257 602 c 0
 398 602 468 549 468 444 c 2
 468 98 l 2
 468 23 432 -14 361 -14 c 0
 305 -14 273 14 265 71 c 2
 239 239 l 1
 224 230 207 226 188 226 c 0
 136 226 99 265 99 314 c 0
 99 368 138 406 188 406 c 0
 234 406 270 373 278 329 c 2
 322 74 l 2
 326 49 340 36 364 36 c 0
 397 36 414 54 414 90 c 2
 414 444 l 2
 414 530 325 552 259 552 c 0
 170 552 106 514 92 445 c 1
 36 445 l 1
190 269 m 256
 217 269 236 289 236 314 c 256
 236 342 215 361 190 361 c 256
 162 361 144 340 144 314 c 256
 144 289 162 269 190 269 c 256
EndSplineSet
EndChar

StartChar: uni0E09
Encoding: 3593 3593 222
Width: 567
VWidth: 1504
Flags: W
HStem: -11 44<376.424 456.539> 206 45<93.4219 134.737> 341 47<91.8805 169.151> 552 50<172.466 365.466>
VStem: 39 47<257.327 335.153> 125 54<53 184.253> 176 45<257.289 334.464> 322 45<42.7683 101.788> 429 54<211.625 495.096> 466 44<42.1797 123.628>
LayerCount: 2
Fore
SplineSet
263 602 m 0xfd80
 390 602 483 551 483 438 c 2
 483 286 l 2xfd80
 483 238 469 200 442 173 c 1
 487 159 510 129 510 83 c 0
 510 33 476 -11 415 -11 c 0
 364 -11 322 29 322 83 c 0
 322 92 322 98 323 102 c 1
 266 78 223 44 193 0 c 1
 125 0 l 1
 125 140 l 2xfd40
 125 169 128 191 135 206 c 1
 129 206 l 2
 78 206 39 248 39 296 c 0
 39 349 80 388 129 388 c 0
 183 388 221 347 221 296 c 0xfb
 221 245 179 208 179 149 c 2
 179 53 l 1
 212 101 267 136 343 159 c 1
 400 186 429 229 429 289 c 2
 429 439 l 2
 429 509 353 552 266 552 c 0
 180 552 110 504 95 442 c 1
 39 442 l 1
 44 509 106 602 263 602 c 0xfd80
417 33 m 0
 446 33 466 57 466 83 c 0xf940
 466 112 444 132 417 132 c 0
 391 132 367 112 367 83 c 0
 367 55 391 33 417 33 c 0
131 251 m 256
 158 251 176 271 176 296 c 256xfb
 176 323 156 341 131 341 c 256
 104 341 86 323 86 296 c 256
 86 271 104 251 131 251 c 256
EndSplineSet
EndChar

StartChar: uni0E0A
Encoding: 3594 3594 223
Width: 571
VWidth: 1504
Flags: W
HStem: -12 48<286.68 411.677> 341 43<78.5613 160.193> 480 40<87.7109 159.535> 558 44<107.793 251.385>
VStem: 23 48<391.927 471.898> 167 41<391.458 472.312> 211 54<58.9197 330.954> 286 51<403.005 522.834> 433 54<58.9197 424.465> 459 57<545.005 626>
LayerCount: 2
Fore
SplineSet
516 626 m 1xff40
 507 528 448 479 429 469 c 1
 468 454 487 421 487 369 c 2
 487 125 l 2
 487 34 440 -12 347 -12 c 0
 256 -12 211 34 211 125 c 2
 211 268 l 2
 211 332 286 409 286 471 c 0
 286 513 246 558 185 558 c 0
 141 558 107 543 84 514 c 1
 93 518 105 520 119 520 c 0
 172 520 208 483 208 433 c 0
 208 379 170 341 119 341 c 0
 42 341 23 415 23 460 c 0
 23 517 63 602 185 602 c 0
 270 602 337 557 337 478 c 0
 337 404 265 320 265 260 c 2
 265 120 l 2
 265 64 293 36 349 36 c 256
 405 36 433 64 433 120 c 2
 433 363 l 2xff80
 433 407 412 436 369 451 c 1
 371 457 372 469 372 486 c 1
 427 509 456 555 459 626 c 1
 516 626 l 1xff40
119 384 m 256
 148 384 167 404 167 432 c 256
 167 461 147 480 119 480 c 256
 90 480 71 460 71 432 c 256
 71 403 91 384 119 384 c 256
EndSplineSet
EndChar

StartChar: uni0E0B
Encoding: 3595 3595 224
Width: 577
VWidth: 1504
Flags: W
HStem: -12 48<292.68 417.677> 275 51<84.5405 165.898> 423 48<90.3652 165.56> 583 20G<120.5 173.615 222.231 271.5>
VStem: 23 54<333.07 459.253> 173 48<333.735 415.311> 217 54<58.9197 292.463> 307 49<383.882 530.782> 439 54<58.9197 425.511> 465 57<545.005 626>
LayerCount: 2
Fore
SplineSet
125 326 m 256xfd
 154 326 173 346 173 375 c 256
 173 404 153 423 125 423 c 256
 96 423 77 403 77 375 c 256
 77 346 96 326 125 326 c 256xfd
522 626 m 1xf940
 513 528 454 479 435 469 c 1
 474 454 493 421 493 369 c 2
 493 125 l 2
 493 34 446 -12 353 -12 c 0
 262 -12 217 34 217 125 c 2
 217 220 l 2xfb80
 217 304 307 378 307 460 c 0
 307 513 288 543 250 551 c 1
 197 487 l 1
 143 549 l 1
 111 527 89 498 78 462 c 1
 92 468 108 471 126 471 c 0
 184 471 221 430 221 373 c 0xfd
 221 312 176 275 125 275 c 0
 43 275 23 357 23 409 c 0
 23 500 82 588 159 603 c 1
 197 551 l 1
 238 603 l 1
 305 596 356 536 356 456 c 0
 356 373 271 293 271 215 c 2
 271 122 l 2
 271 65 299 36 355 36 c 256
 411 36 439 64 439 120 c 2
 439 363 l 2xfb80
 439 407 419 436 379 450 c 1
 380 459 380 471 378 486 c 1
 433 509 462 555 465 626 c 1
 522 626 l 1xf940
EndSplineSet
EndChar

StartChar: uni0E0C
Encoding: 3596 3596 225
Width: 780
VWidth: 1504
Flags: W
HStem: -14 50<133.038 216.751 381.638 464.239> 137 48<143.949 216.479 383.114 415> 554 48<182.764 354.099>
VStem: 75 50<43.6993 119.647> 86 54<179 336.69> 226 48<45.3357 128> 325 48<45.4437 128.241> 415 54<185 492.605> 474 49<44.813 104.448> 642 54<71 590>
LayerCount: 2
Fore
SplineSet
263 602 m 0xefc0
 391 602 469 529 469 405 c 2
 469 179 l 1
 552 151 609 115 642 71 c 1
 642 590 l 1
 696 590 l 1
 696 0 l 1
 641 0 l 1
 617 37 577 72 520 105 c 1
 522 97 523 91 523 86 c 0
 523 36 492 -14 424 -14 c 0
 372 -14 325 29 325 86 c 0
 325 141 368 181 415 185 c 1
 415 399 l 2
 415 502 363 554 260 554 c 0
 196 554 132 511 110 450 c 1
 166 446 206 424 230 384 c 1
 182 373 140 327 140 274 c 2
 140 179 l 1xefc0
 149 183 160 185 174 185 c 0
 231 185 274 138 274 86 c 256
 274 34 236 -14 174 -14 c 256
 114 -14 75 33 75 86 c 0xf7c0
 75 102 79 116 86 129 c 1
 86 272 l 2
 86 326 112 366 164 391 c 1
 126 406 86 412 45 408 c 1
 63 517 149 602 263 602 c 0xefc0
423 36 m 256
 453 36 474 59 474 86 c 256
 474 116 450 137 423 137 c 256
 396 137 373 116 373 86 c 256
 373 56 396 36 423 36 c 256
174 36 m 256
 205 36 226 58 226 86 c 256
 226 114 205 137 174 137 c 256
 145 137 125 113 125 86 c 256xf7c0
 125 58 145 36 174 36 c 256
EndSplineSet
EndChar

StartChar: uni0E0D
Encoding: 3597 3597 226
Width: 780
VWidth: 1504
Flags: W
HStem: -257 43<497.039 606.073> -86 41<422.657 493.683> -14 50<143.835 226.215 481.129 619.717> 137 48<150.956 227.076> 554 48<180.081 343.825>
VStem: 86 54<46.3281 128.102 176 329.195> 236 48<44.8866 127.69> 376 42<-161.475 -91.1355> 403 54<58.9197 493.307> 499 41<-161.953 -91.36> 642 54<58.333 120 120 590> 663 56<-151.072 -51>
LayerCount: 2
Fore
SplineSet
457 -45 m 0xfec0
 507 -45 540 -84 540 -126 c 0
 540 -163 522 -189 487 -203 c 1
 499 -210 514 -214 531 -214 c 0
 617 -214 661 -160 663 -51 c 1
 719 -51 l 1
 716 -140 682 -257 532 -257 c 0
 455 -257 376 -204 376 -126 c 0xff50
 376 -79 414 -45 457 -45 c 0xfec0
459 -167 m 256
 480 -167 499 -150 499 -126 c 256
 499 -103 480 -86 459 -86 c 256
 435 -86 418 -105 418 -126 c 256
 418 -150 437 -167 459 -167 c 256
185 36 m 256
 215 36 236 59 236 86 c 256
 236 116 212 137 185 137 c 256
 158 137 135 116 135 86 c 256
 135 56 158 36 185 36 c 256
260 602 m 0
 381 602 457 534 457 405 c 2
 457 120 l 2
 457 64 488 36 551 36 c 0
 612 36 642 64 642 120 c 2
 642 590 l 1
 696 590 l 1
 696 123 l 2
 696 33 647 -12 549 -12 c 0
 452 -12 403 34 403 125 c 2
 403 399 l 2xfee0
 403 502 354 554 257 554 c 0
 188 554 130 508 110 450 c 1
 166 446 206 424 230 384 c 1
 182 373 140 327 140 274 c 2
 140 176 l 1
 153 182 168 185 185 185 c 0
 243 185 284 141 284 87 c 256
 284 50 269 -14 185 -14 c 0
 126 -14 86 26 86 89 c 2
 86 272 l 2
 86 326 112 366 164 391 c 1
 126 406 86 412 45 408 c 1
 63 516 144 602 260 602 c 0
EndSplineSet
Substitution2: "Single Substitution lookup 42 subtable" uni0E0D.alt1
Substitution2: "Single Substitution lookup 42 subtable" uni0E0D.alt1
EndChar

StartChar: uni0E0E
Encoding: 3598 3598 227
AltUni2: 00f71b.ffffffff.0
Width: 639
VWidth: 1504
Flags: W
HStem: -329 48<176.204 263.366> -203 50<338.087 449.779> -187 50<178.942 270.223> -12 48<92.2315 175.928> 137 48<93.6709 162.998> 554 48<251.976 423.308>
VStem: 36 48<45.3558 127.928> 123 48<-274.899 -196.125> 161 53<202.85 344.349> 185 48<45.5743 127.991> 274 51<-272.347 -203.238> 501 54<-254 476.568>
LayerCount: 2
Fore
SplineSet
338 602 m 0xdeb0
 469 602 555 524 555 397 c 2
 555 -323 l 1
 495 -323 l 1
 479 -274 384 -219 325 -203 c 1xdeb0
 325 -214 l 2
 325 -280 283 -329 220 -329 c 0
 158 -329 123 -290 123 -238 c 0
 123 -176 173 -137 236 -137 c 0xbf30
 241 -137 254 -138 275 -141 c 1
 279 -104 298 -76 331 -57 c 1
 372 -81 l 1
 341 -100 326 -124 325 -153 c 1
 405 -182 464 -215 501 -254 c 1
 501 391 l 2
 501 491 433 554 337 554 c 0
 261 554 194 504 173 450 c 1
 226 445 267 423 295 384 c 1
 241 365 214 329 214 274 c 0xdeb0
 214 182 233 154 233 90 c 0xde70
 233 30 186 -12 134 -12 c 256
 77 -12 36 33 36 86 c 256
 36 138 77 185 134 185 c 0
 145 185 157 182 170 177 c 1
 164 224 161 259 161 283 c 0
 161 329 181 365 221 391 c 1
 194 403 168 409 141 409 c 0
 128 409 119 409 113 408 c 1
 122 516 216 602 338 602 c 0xdeb0
271 -191 m 1
 262 -188 251 -187 239 -187 c 0
 194 -187 171 -203 171 -235 c 0xbf30
 171 -266 188 -281 221 -281 c 0
 256 -281 274 -259 274 -214 c 0
 274 -207 273 -199 271 -191 c 1
134 36 m 256
 164 36 185 59 185 86 c 256x9e70
 185 116 161 137 134 137 c 256
 107 137 84 116 84 86 c 256
 84 56 107 36 134 36 c 256
EndSplineSet
Substitution2: "Single Substitution lookup 42 subtable" uni0E0E.alt1
Substitution2: "Single Substitution lookup 42 subtable" uni0E0E.alt1
EndChar

StartChar: uni0E0F
Encoding: 3599 3599 228
AltUni2: 00f71c.ffffffff.0
Width: 639
VWidth: 1504
Flags: W
HStem: -331 47<122.301 207.645> -188 47<124.478 201.253> -12 48<92.2315 175.928> 137 48<93.6709 162.998> 554 48<251.976 423.308>
VStem: 36 48<45.3558 127.928> 72 45<-279.056 -196.297> 161 53<202.85 344.349> 185 48<45.5743 127.991> 221 44<-271.581 -232 -152 -122.415> 501 54<-254 476.568>
LayerCount: 2
Fore
SplineSet
221 -202 m 1xfa60
 212 -193 197 -188 176 -188 c 0
 137 -188 117 -205 117 -239 c 0
 117 -269 133 -284 165 -284 c 0
 202 -284 221 -257 221 -202 c 1xfa60
338 602 m 0
 469 602 555 524 555 397 c 2
 555 -323 l 1
 495 -323 l 1
 414 -232 l 1
 347 -322 l 1
 265 -232 l 1
 262 -295 217 -331 168 -331 c 0
 91 -331 72 -273 72 -238 c 0
 72 -180 114 -141 171 -141 c 0
 190 -141 207 -145 221 -152 c 1
 223 -117 244 -88 283 -65 c 1
 323 -89 l 1
 289 -110 271 -138 269 -173 c 1
 343 -251 l 1
 414 -156 l 1
 501 -254 l 1
 501 391 l 2
 501 491 433 554 337 554 c 0
 261 554 194 504 173 450 c 1
 226 445 267 423 295 384 c 1
 241 365 214 329 214 274 c 0xfb60
 214 182 233 154 233 90 c 0xf8a0
 233 30 186 -12 134 -12 c 256
 77 -12 36 33 36 86 c 256
 36 138 77 185 134 185 c 0
 145 185 157 182 170 177 c 1
 164 224 161 259 161 283 c 0xfd20
 161 329 181 365 221 391 c 1
 194 403 168 409 141 409 c 0
 128 409 119 409 113 408 c 1
 122 516 216 602 338 602 c 0
134 36 m 256
 164 36 185 59 185 86 c 256
 185 116 161 137 134 137 c 256
 107 137 84 116 84 86 c 256xfca0
 84 56 107 36 134 36 c 256
EndSplineSet
Substitution2: "Single Substitution lookup 42 subtable" uni0E0F.alt1
Substitution2: "Single Substitution lookup 42 subtable" uni0E0F.alt1
EndChar

StartChar: uni0E10
Encoding: 3600 3600 229
Width: 515
VWidth: 1504
Flags: W
HStem: -331 42<29.8008 122.524> -220 35<320.849 378.866> -211 41<29.9797 115.506> -117 36<320.838 389.346> -14 50<255.963 355.805> 190 49<113.997 179.465> 319 50<115.215 185.261> 513 56<286.794 425.899> 549 53<142.84 310.467>
VStem: -21 47<-284.541 -217.21> 60 50<243.204 314.587> 187 54<51.6064 196 243.85 313.862> 278 41<-182.653 -118.607> 379 51<-286 -218 51.6064 358.767> 391 39<-183.288 -118.825>
LayerCount: 2
Fore
SplineSet
108 481 m 1x9efa
 326 438 426 400 426 337 c 2
 426 119 l 2
 426 30 386 -14 305 -14 c 0
 226 -14 187 30 187 119 c 2
 187 196 l 1
 176 192 163 190 149 190 c 0
 99 190 60 225 60 277 c 0
 60 331 99 369 149 369 c 0
 201 369 241 336 241 280 c 2
 241 114 l 2
 241 62 262 36 305 36 c 0
 350 36 372 62 372 114 c 2
 372 332 l 2
 372 386 125 429 39 441 c 1
 45 526 106 602 220 602 c 0x9efa
 274 602 337 569 387 569 c 0x9f7a
 411 569 425 580 430 602 c 1x9efa
 477 591 l 1
 461 539 432 513 390 513 c 0x9f7a
 332 513 265 549 211 549 c 0
 163 549 112 517 108 481 c 1x9efa
355 -81 m 0
 396 -81 430 -109 430 -150 c 2
 430 -325 l 1
 372 -325 l 1
 307 -284 l 1
 241 -323 l 1
 173 -241 l 1
 170 -298 127 -331 75 -331 c 0
 11 -330 -21 -301 -21 -245 c 0
 -21 -185 44 -170 80 -170 c 0xbe7a
 103 -170 120 -172 132 -177 c 1
 138 -136 160 -106 199 -86 c 1
 239 -108 l 1
 198 -128 177 -158 176 -197 c 1
 242 -274 l 1
 307 -241 l 1
 379 -286 l 1
 379 -218 l 1
 374 -219 366 -220 355 -220 c 0xde7c
 311 -220 278 -189 278 -150 c 256
 278 -112 312 -81 355 -81 c 0
126 -221 m 1
 116 -214 99 -211 75 -211 c 0
 42 -213 26 -226 26 -250 c 0
 26 -276 41 -289 72 -289 c 0
 110 -289 129 -273 129 -241 c 0
 129 -236 128 -229 126 -221 c 1
391 -150 m 0
 391 -128 379 -117 355 -117 c 256
 331 -117 319 -128 319 -150 c 0
 319 -173 331 -185 355 -185 c 256xde7a
 379 -185 391 -173 391 -150 c 0
149 239 m 256
 170 239 190 255 190 278 c 256
 190 302 170 319 149 319 c 256
 126 319 110 301 110 278 c 256
 110 257 126 239 149 239 c 256
EndSplineSet
Substitution2: "Single Substitution lookup 42 subtable" uni0E10.alt1
Substitution2: "Single Substitution lookup 42 subtable" uni0E10.alt1
EndChar

StartChar: uni0E11
Encoding: 3601 3601 230
Width: 693
VWidth: 1504
Flags: W
HStem: 0 21G<217 291.49 555 609> 275 51<84.5405 165.898> 423 48<90.3652 165.56> 549 53<485.306 545.846>
VStem: 23 54<333.07 459.311> 173 48<333.735 415.311> 217 54<133.333 293.976> 298 49<379.804 536.881> 555 54<0 542.326>
LayerCount: 2
Fore
SplineSet
347 456 m 0xfd80
 347 372 271 293 271 208 c 2
 265 80 l 1
 276 122 288 160 301 193 c 2
 424 517 l 2
 445 574 476 602 516 602 c 0
 578 602 609 562 609 481 c 2
 609 0 l 1
 555 0 l 1
 555 481 l 2
 555 526 540 549 511 549 c 0
 500 549 488 536 475 510 c 2
 284 0 l 1
 217 0 l 1
 217 220 l 2xfb80
 217 304 298 378 298 460 c 0
 298 515 282 545 250 551 c 1
 197 487 l 1
 143 549 l 1
 111 527 89 498 78 462 c 1
 92 468 108 471 126 471 c 0
 184 471 221 430 221 373 c 0
 221 312 176 275 125 275 c 0
 43 275 23 357 23 409 c 0
 23 493 75 586 159 603 c 1
 197 551 l 1
 238 603 l 1
 311 594 347 545 347 456 c 0xfd80
125 326 m 256
 154 326 173 346 173 375 c 256xfd80
 173 404 153 423 125 423 c 256
 96 423 77 403 77 375 c 256
 77 346 96 326 125 326 c 256
EndSplineSet
EndChar

StartChar: uni0E12
Encoding: 3602 3602 231
Width: 800
VWidth: 1504
Flags: W
HStem: -12 48<400.905 484.123> 137 50<402.563 435> 382 39<229.856 308.759> 582 20<148.5 208.837 333.591 402.5 662 716>
VStem: 48 54<289.809 477.382> 111 54<0 65.6267 129 230.109> 182 41<293.178 376.154> 344 49<44.1053 128.055> 435 54<187 490.955> 493 50<45.4417 106.672> 662 54<78 590>
LayerCount: 2
Fore
SplineSet
352 602 m 1
 453 584 489 474 489 397 c 2
 489 179 l 1
 571 151 629 117 662 78 c 1
 662 590 l 1
 716 590 l 1
 716 0 l 1
 662 0 l 1
 636 43 595 79 540 107 c 1
 542 101 543 94 543 86 c 0
 543 38 508 -12 444 -12 c 256
 379 -12 344 38 344 87 c 0
 344 142 387 183 435 187 c 1
 435 391 l 2
 435 463 412 514 366 545 c 1
 269 457 l 1
 181 546 l 1
 130 512 102 444 102 388 c 0
 102 309 163 220 165 129 c 1
 186 175 238 206 263 244 c 1
 215 249 182 285 182 332 c 0
 182 385 221 421 271 421 c 256
 331 421 440 351 263 166 c 0
 201 101 168 46 165 0 c 1
 111 0 l 1
 111 137 l 2
 111 217 48 306 48 382 c 0
 48 492 107 578 190 600 c 1
 271 514 l 1
 352 602 l 1
269 287 m 256
 298 287 317 306 317 334 c 256
 317 363 297 382 269 382 c 256
 241 382 223 363 223 334 c 256
 223 306 240 287 269 287 c 256
442 36 m 256
 472 36 493 59 493 86 c 256
 493 116 469 137 442 137 c 256
 413 137 393 113 393 86 c 256
 393 58 413 36 442 36 c 256
EndSplineSet
EndChar

StartChar: uni0E13
Encoding: 3603 3603 232
Width: 816
VWidth: 1504
Flags: W
HStem: -14 50<146.385 224.731 620.924 704.598> 137 48<150.956 227.076> 554 48<180.081 343.825>
VStem: 86 54<44.5592 128.102 176 336.69> 236 48<45.3037 127.69> 403 54<72 493.307> 564 48<43.1187 92.7242> 678 55<210.487 293 293 590> 714 50<42.3533 125.773>
LayerCount: 2
Fore
SplineSet
260 602 m 0xfe80
 381 602 457 534 457 405 c 2
 457 72 l 1
 511 141 600 161 641 193 c 0
 666 215 678 248 678 293 c 2
 678 590 l 1
 733 590 l 1
 733 296 l 2xff
 733 236 723 196 704 177 c 1
 744 160 764 129 764 84 c 0
 764 28 723 -15 663 -15 c 0
 605 -15 564 29 564 84 c 2
 564 93 l 1
 528 79 496 48 468 0 c 1
 403 0 l 1
 403 399 l 2
 403 502 354 554 257 554 c 0
 188 554 130 508 110 450 c 1
 166 446 206 424 230 384 c 1
 182 373 140 327 140 274 c 2
 140 176 l 1
 153 182 168 185 185 185 c 0
 243 185 284 141 284 87 c 0
 284 27 242 -14 185 -14 c 256
 126 -14 86 30 86 89 c 2
 86 272 l 2
 86 326 112 366 164 391 c 1
 126 406 86 412 45 408 c 1
 63 516 144 602 260 602 c 0xfe80
185 36 m 256
 215 36 236 59 236 86 c 256
 236 116 212 137 185 137 c 256
 158 137 135 116 135 86 c 256
 135 56 158 36 185 36 c 256
663 33 m 256
 693 33 714 57 714 84 c 256xfe80
 714 114 690 135 663 135 c 256
 633 135 612 111 612 84 c 256
 612 54 636 33 663 33 c 256
EndSplineSet
EndChar

StartChar: uni0E14
Encoding: 3604 3604 233
Width: 588
VWidth: 1504
Flags: W
HStem: 0 21G<98 153.5 450 504> 280 42<239.794 280> 415 42<240.036 319.318> 554 48<193.397 379.811>
VStem: 48 54<279.445 466.832> 98 54<0 63.3132 116.333 246.257> 191 42<329.472 407.786> 326 43<329.441 407.519> 450 54<0 483.95>
LayerCount: 2
Fore
SplineSet
284 602 m 0xfb80
 420 602 504 526 504 399 c 2
 504 0 l 1
 450 0 l 1
 450 391 l 2
 450 500 392 554 277 554 c 0
 186 554 102 485 102 390 c 0xfb80
 102 311 150 232 150 156 c 0
 150 136 149 123 147 116 c 1
 159 142 180 171 209 203 c 2
 280 280 l 1
 227 280 191 319 191 369 c 256
 191 418 228 457 280 457 c 256
 331 457 369 417 369 369 c 0
 369 320 334 259 262 185 c 0
 192 111 155 49 152 0 c 1
 98 0 l 1
 98 135 l 2xf780
 98 212 48 308 48 382 c 0
 48 527 159 602 284 602 c 0xfb80
280 322 m 256
 305 322 326 341 326 369 c 256
 326 396 305 415 280 415 c 256
 252 415 233 394 233 369 c 256
 233 341 254 322 280 322 c 256
EndSplineSet
EndChar

StartChar: uni0E15
Encoding: 3605 3605 234
Width: 588
VWidth: 1504
Flags: W
HStem: 0 21G<99 154.5 450 504> 382 41<243.683 322.079> 582 20G<146.5 210.41 346.277 408.5>
VStem: 48 56<272.753 487.278> 99 54<0 62.4609 119 245.145> 193 43<296.37 375.048> 329 40<295.587 374.464> 450 54<0 491.407>
LayerCount: 2
Fore
SplineSet
367 602 m 1xf7
 450 587 504 499 504 399 c 2
 504 0 l 1
 450 0 l 1
 450 391 l 2
 450 465 426 517 378 546 c 1
 281 457 l 1
 179 546 l 1
 129 514 104 462 104 390 c 0xf7
 104 303 152 225 152 119 c 1
 177 169 246 204 274 247 c 1
 227 251 193 286 193 334 c 0
 193 384 228 423 280 423 c 256
 328 423 369 386 369 334 c 0
 369 288 334 233 264 168 c 0
 193 104 156 48 153 0 c 1
 99 0 l 1
 99 135 l 2xef
 99 212 48 308 48 382 c 0
 48 494 105 580 188 602 c 1
 281 519 l 1
 367 602 l 1xf7
283 289 m 256
 310 289 329 310 329 335 c 256
 329 363 308 382 283 382 c 256
 255 382 236 361 236 335 c 256
 236 310 255 289 283 289 c 256
EndSplineSet
EndChar

StartChar: uni0E16
Encoding: 3606 3606 235
Width: 568
VWidth: 1504
Flags: W
HStem: -12 48<138.986 222.74> 137 51<147.347 222.251> 554 48<183.248 357.327>
VStem: 80 54<43.9383 128.924 177 338.014> 232 48<45.6709 127.951> 430 54<0 478.746>
LayerCount: 2
Fore
SplineSet
269 602 m 0
 400 602 484 524 484 399 c 2
 484 0 l 1
 430 0 l 1
 430 393 l 2
 430 498 362 554 266 554 c 0
 199 554 129 511 104 450 c 1
 165 445 205 423 223 385 c 1
 176 376 134 326 134 275 c 2
 134 177 l 1
 150 184 165 188 179 188 c 0
 237 188 280 141 280 87 c 0
 280 28 239 -12 179 -12 c 0
 121 -12 80 32 80 87 c 2
 80 274 l 2
 80 328 105 368 156 393 c 1
 129 404 90 409 39 409 c 1
 55 523 157 602 269 602 c 0
181 36 m 256
 211 36 232 59 232 86 c 256
 232 116 208 137 181 137 c 256
 151 137 131 114 131 86 c 256
 131 58 151 36 181 36 c 256
EndSplineSet
EndChar

StartChar: uni0E17
Encoding: 3607 3607 236
Width: 646
VWidth: 1504
Flags: W
HStem: 0 21G<170 234.49 508 563> 403 48<83.1384 159.099> 554 48<84.3564 165.429 433.062 496.444>
VStem: 26 48<460.072 544.339> 170 54<143.288 414 460.018 543.915> 508 55<0 542.326>
LayerCount: 2
Fore
SplineSet
125 602 m 256
 177 602 224 559 224 502 c 2
 224 208 l 2
 222 161 220 128 217 108 c 1
 223 128 232 156 244 193 c 2
 366 517 l 2
 387 574 421 602 469 602 c 0
 532 602 563 562 563 481 c 2
 563 0 l 1
 508 0 l 1
 508 481 l 2
 508 526 494 549 465 549 c 0
 447 549 431 536 418 510 c 2
 227 0 l 1
 170 0 l 1
 170 414 l 1
 157 407 142 403 125 403 c 0
 68 403 26 450 26 502 c 256
 26 559 72 602 125 602 c 256
125 451 m 256
 155 451 176 475 176 502 c 256
 176 532 152 554 125 554 c 256
 98 554 74 532 74 502 c 256
 74 472 98 451 125 451 c 256
EndSplineSet
EndChar

StartChar: uni0E18
Encoding: 3608 3608 237
Width: 503
VWidth: 1504
Flags: W
HStem: -11 49<163.39 339.401> 519 50<270.621 411.43> 554 48<134.04 300.091>
VStem: 86 54<62.4101 349> 363 54<62.4101 359.982>
LayerCount: 2
Fore
SplineSet
99 483 m 1xb8
 252 452 417 425 417 338 c 2
 417 114 l 2
 417 31 362 -11 251 -11 c 256
 141 -11 86 31 86 114 c 2
 86 349 l 1
 140 349 l 1
 140 111 l 2
 140 62 177 38 251 38 c 256
 326 38 363 62 363 111 c 2
 363 334 l 2
 363 386 120 430 30 442 c 1
 36 520 85 602 200 602 c 0xb8
 261 602 321 569 373 569 c 0
 397 569 411 580 415 603 c 1
 462 593 l 1
 447 544 418 519 376 519 c 0xd8
 318 519 251 554 197 554 c 0
 150 554 105 517 99 483 c 1xb8
EndSplineSet
EndChar

StartChar: uni0E19
Encoding: 3609 3609 238
Width: 631
VWidth: 1504
Flags: W
HStem: -12 48<436.325 519.807> 403 48<83.1384 159.099> 554 48<84.3564 165.429>
VStem: 26 48<460.072 544.339> 170 54<59 414 460.018 544.764> 381 46<47.0625 95.7242> 493 55<218.982 590> 529 49<45.4072 128.581>
LayerCount: 2
Fore
SplineSet
224 59 m 1xfd
 300 143 493 148 493 290 c 2
 493 590 l 1
 548 590 l 1
 548 283 l 2xfe
 548 235 537 200 514 177 c 1
 557 160 578 130 578 86 c 0
 578 27 529 -12 478 -12 c 256
 426 -12 381 30 381 86 c 2
 381 96 l 1
 318 71 270 39 236 0 c 1
 170 0 l 1
 170 414 l 1
 157 407 142 403 125 403 c 0
 68 403 26 450 26 502 c 256
 26 559 72 602 125 602 c 256
 177 602 224 559 224 502 c 2
 224 59 l 1xfd
125 451 m 256
 155 451 176 475 176 502 c 256
 176 532 152 554 125 554 c 256
 98 554 74 532 74 502 c 256
 74 472 98 451 125 451 c 256
478 36 m 256
 508 36 529 60 529 87 c 256xfd
 529 117 505 138 478 138 c 256
 448 138 427 114 427 87 c 256
 427 57 451 36 478 36 c 256
EndSplineSet
EndChar

StartChar: uni0E1A
Encoding: 3610 3610 239
Width: 643
VWidth: 1504
Flags: W
HStem: -12 50<262.059 468.165> 403 48<83.1384 159.099> 554 48<84.3564 165.429>
VStem: 26 48<460.072 544.339> 170 54<73.5827 414 460.018 543.915> 505 55<73.5827 590>
LayerCount: 2
Fore
SplineSet
125 602 m 256
 177 602 224 559 224 502 c 2
 224 132 l 2
 224 69 271 38 366 38 c 0
 459 38 505 69 505 132 c 2
 505 590 l 1
 560 590 l 1
 560 128 l 2
 560 35 495 -12 366 -12 c 0
 235 -12 170 35 170 128 c 2
 170 414 l 1
 157 407 142 403 125 403 c 0
 68 403 26 450 26 502 c 256
 26 559 72 602 125 602 c 256
125 451 m 256
 155 451 176 475 176 502 c 256
 176 532 152 554 125 554 c 256
 98 554 74 532 74 502 c 256
 74 472 98 451 125 451 c 256
EndSplineSet
EndChar

StartChar: uni0E1B
Encoding: 3611 3611 240
Width: 643
VWidth: 1504
Flags: W
HStem: -12 50<262.059 468.165> 403 48<83.1384 159.099> 554 48<84.3564 165.429>
VStem: 26 48<460.072 544.339> 170 54<73.5827 414 460.018 543.915> 505 55<73.5827 841>
LayerCount: 2
Fore
SplineSet
125 602 m 256
 177 602 224 559 224 502 c 2
 224 132 l 2
 224 69 271 38 366 38 c 0
 459 38 505 69 505 132 c 2
 505 841 l 1
 560 841 l 1
 560 128 l 2
 560 35 495 -12 366 -12 c 0
 235 -12 170 35 170 128 c 2
 170 414 l 1
 157 407 142 403 125 403 c 0
 68 403 26 450 26 502 c 256
 26 559 72 602 125 602 c 256
125 451 m 256
 155 451 176 475 176 502 c 256
 176 532 152 554 125 554 c 256
 98 554 74 532 74 502 c 256
 74 472 98 451 125 451 c 256
EndSplineSet
EndChar

StartChar: uni0E1C
Encoding: 3612 3612 241
Width: 573
VWidth: 1504
Flags: W
HStem: 0 21G<60 132.941 415.975 489> 403 48<127.076 202.653> 554 48<120.532 201.59>
VStem: 60 54<81 414 459.898 544.764> 212 47<460.35 544.573> 435 54<81 590>
LayerCount: 2
Fore
SplineSet
259 502 m 0
 259 451 219 403 159 403 c 0
 145 403 130 407 114 414 c 1
 114 81 l 1
 253 295 l 1
 293 295 l 1
 435 81 l 1
 435 590 l 1
 489 590 l 1
 489 0 l 1
 429 0 l 1
 274 238 l 1
 120 0 l 1
 60 0 l 1
 60 502 l 2
 60 556 101 602 159 602 c 0
 216 602 259 555 259 502 c 0
161 451 m 256
 191 451 212 475 212 502 c 256
 212 532 188 554 161 554 c 256
 134 554 110 532 110 502 c 256
 110 472 134 451 161 451 c 256
EndSplineSet
EndChar

StartChar: uni0E1D
Encoding: 3613 3613 242
Width: 573
VWidth: 1504
Flags: W
HStem: 0 21G<60 132.941 415.975 489> 403 48<127.076 202.653> 554 48<120.532 201.59>
VStem: 60 54<81 414 459.898 544.764> 212 47<460.35 544.573> 435 54<81 841>
LayerCount: 2
Fore
SplineSet
259 502 m 0
 259 451 219 403 159 403 c 0
 145 403 130 407 114 414 c 1
 114 81 l 1
 253 295 l 1
 293 295 l 1
 435 81 l 1
 435 841 l 1
 489 841 l 1
 489 0 l 1
 429 0 l 1
 274 238 l 1
 120 0 l 1
 60 0 l 1
 60 502 l 2
 60 556 101 602 159 602 c 0
 216 602 259 555 259 502 c 0
161 451 m 256
 191 451 212 475 212 502 c 256
 212 532 188 554 161 554 c 256
 134 554 110 532 110 502 c 256
 110 472 134 451 161 451 c 256
EndSplineSet
EndChar

StartChar: uni0E1E
Encoding: 3614 3614 243
Width: 672
VWidth: 1504
Flags: W
HStem: 0 21G<170 241.479 516.521 588> 403 48<83.1384 159.099> 554 48<84.3564 165.429>
VStem: 26 48<460.072 544.339> 170 54<118.596 414 460.018 543.915> 534 54<127.641 188 188 590>
LayerCount: 2
Fore
SplineSet
125 602 m 256
 177 602 224 559 224 502 c 2
 224 188 l 2
 224 163 222 128 217 83 c 1
 224 116 233 152 244 193 c 2
 353 590 l 1
 405 590 l 1
 514 193 l 2
 525 152 535 116 542 83 c 1
 537 128 534 163 534 188 c 2
 534 590 l 1
 588 590 l 1
 588 0 l 1
 522 0 l 1
 379 522 l 1
 236 0 l 1
 170 0 l 1
 170 414 l 1
 157 407 142 403 125 403 c 0
 68 403 26 450 26 502 c 256
 26 559 72 602 125 602 c 256
125 451 m 256
 155 451 176 475 176 502 c 256
 176 532 152 554 125 554 c 256
 98 554 74 532 74 502 c 256
 74 472 98 451 125 451 c 256
EndSplineSet
EndChar

StartChar: uni0E1F
Encoding: 3615 3615 244
Width: 672
VWidth: 1504
Flags: W
HStem: 0 21G<170 241.479 516.521 588> 403 48<83.1384 159.099> 554 48<84.3564 165.429>
VStem: 26 48<460.072 544.339> 170 54<118.596 414 460.018 543.915> 534 54<127.641 188 188 841>
LayerCount: 2
Fore
SplineSet
125 602 m 256
 177 602 224 559 224 502 c 2
 224 188 l 2
 224 163 222 128 217 83 c 1
 224 116 233 152 244 193 c 2
 353 590 l 1
 405 590 l 1
 514 193 l 2
 525 152 535 116 542 83 c 1
 537 128 534 163 534 188 c 2
 534 841 l 1
 588 841 l 1
 588 0 l 1
 522 0 l 1
 379 522 l 1
 236 0 l 1
 170 0 l 1
 170 414 l 1
 157 407 142 403 125 403 c 0
 68 403 26 450 26 502 c 256
 26 559 72 602 125 602 c 256
125 451 m 256
 155 451 176 475 176 502 c 256
 176 532 152 554 125 554 c 256
 98 554 74 532 74 502 c 256
 74 472 98 451 125 451 c 256
EndSplineSet
EndChar

StartChar: uni0E20
Encoding: 3616 3616 245
Width: 639
VWidth: 1504
Flags: W
HStem: -12 48<92.2315 175.329> 137 48<93.6709 162.998> 554 48<251.976 423.308>
VStem: 36 48<45.3558 127.928> 161 53<202.85 344.349> 185 48<45.5305 127.991> 501 54<0 476.568>
LayerCount: 2
Fore
SplineSet
338 602 m 0xfa
 469 602 555 524 555 397 c 2
 555 0 l 1
 501 0 l 1
 501 391 l 2
 501 491 433 554 337 554 c 0
 261 554 194 504 173 450 c 1
 226 445 267 423 295 384 c 1
 241 365 214 329 214 274 c 0xfa
 214 182 233 154 233 90 c 0xf6
 233 35 199 -12 134 -12 c 0
 77 -12 36 33 36 86 c 256
 36 138 77 185 134 185 c 0
 145 185 157 182 170 177 c 1
 164 224 161 259 161 283 c 0
 161 329 181 365 221 391 c 1
 194 403 168 409 141 409 c 0
 128 409 119 409 113 408 c 1
 122 516 216 602 338 602 c 0xfa
134 36 m 256
 164 36 185 59 185 86 c 256xf6
 185 116 161 137 134 137 c 256
 107 137 84 116 84 86 c 256
 84 56 107 36 134 36 c 256
EndSplineSet
EndChar

StartChar: uni0E21
Encoding: 3617 3617 246
Width: 601
VWidth: 1504
Flags: W
HStem: -12 50<95.3086 181.459> 149 48<95.6636 168.032> 403 48<83.1384 159.099> 554 48<84.3564 165.429>
VStem: 26 48<460.072 544.339> 35 48<50.1866 136.803> 170 54<193 414 460.018 543.915> 194 50<49.8746 116.059> 463 54<56 590>
LayerCount: 2
Fore
SplineSet
125 602 m 256xfa80
 177 602 224 559 224 502 c 2
 224 177 l 1xfa80
 323 142 403 102 463 56 c 1
 463 590 l 1
 517 590 l 1
 517 0 l 1
 459 0 l 1
 380 60 307 100 239 119 c 1
 242 110 244 101 244 92 c 0
 244 30 194 -12 138 -12 c 256
 82 -12 35 31 35 92 c 256xf580
 35 147 77 197 138 197 c 0
 149 197 160 196 170 193 c 1
 170 414 l 1
 157 407 142 403 125 403 c 0
 68 403 26 450 26 502 c 256
 26 559 72 602 125 602 c 256xfa80
138 38 m 256
 170 38 194 64 194 93 c 256
 194 126 168 149 138 149 c 256
 109 149 83 125 83 93 c 256xf580
 83 62 110 38 138 38 c 256
125 451 m 256
 155 451 176 475 176 502 c 256
 176 532 152 554 125 554 c 256
 98 554 74 532 74 502 c 256xf880
 74 472 98 451 125 451 c 256
EndSplineSet
EndChar

StartChar: uni0E22
Encoding: 3618 3618 247
Width: 564
VWidth: 1504
Flags: W
HStem: -12 50<168.615 383.859> 295 51<151.02 292> 432 37<148.775 231.053> 564 38<150.68 230.964>
VStem: 63 48<386.613 480.242> 72 54<77.2448 268.928> 238 39<476.237 557.155> 426 54<77.2448 590>
LayerCount: 2
Fore
SplineSet
205 295 m 2xfb
 158 295 126 258 126 208 c 2
 126 138 l 2
 126 71 176 38 277 38 c 0
 376 38 426 71 426 138 c 2
 426 590 l 1
 480 590 l 1
 480 134 l 2
 480 37 412 -12 277 -12 c 0
 140 -12 72 37 72 134 c 2
 72 211 l 2xf7
 72 260 106 305 143 320 c 1
 90 343 63 393 63 469 c 0
 63 547 109 602 191 602 c 0
 245 602 277 560 277 516 c 256
 277 471 248 432 191 432 c 0
 154 432 128 448 113 481 c 1
 112 474 111 466 111 457 c 0
 111 406 145 346 206 346 c 2
 292 346 l 1
 292 295 l 1
 205 295 l 2xfb
190 469 m 256
 219 469 238 488 238 516 c 256
 238 545 218 564 190 564 c 256
 160 564 143 544 143 516 c 256
 143 497 152 469 190 469 c 256
EndSplineSet
EndChar

StartChar: uni0E23
Encoding: 3619 3619 248
Width: 484
VWidth: 1504
Flags: W
HStem: -12 48<241.138 325.075> 138 49<241.938 317.039> 520 50<249.785 378.862> 554 48<126.465 282.211>
VStem: 184 48<45.0718 128.949> 328 54<45.0176 129.102 176 365.614>
LayerCount: 2
Fore
SplineSet
355 520 m 0xec
 301 520 228 554 174 554 c 0
 136 554 102 514 99 483 c 1
 307 448 382 399 382 338 c 2
 382 87 l 2
 382 36 346 -12 283 -12 c 0
 226 -12 184 35 184 87 c 256
 184 144 230 187 283 187 c 0
 300 187 315 183 328 176 c 1
 328 334 l 2
 328 375 231 411 38 442 c 1
 44 549 93 602 184 602 c 0xdc
 236 602 313 570 356 570 c 0
 367 570 376 582 385 605 c 1
 432 593 l 1
 417 544 391 520 355 520 c 0xec
283 36 m 256
 313 36 334 60 334 87 c 256
 334 117 310 138 283 138 c 256
 253 138 232 114 232 87 c 256
 232 57 256 36 283 36 c 256
EndSplineSet
EndChar

StartChar: uni0E24
Encoding: 3620 3620 249
Width: 568
VWidth: 1504
Flags: W
HStem: -12 48<138.986 222.339> 137 51<147.347 222.251> 554 48<183.248 357.327>
VStem: 80 54<43.9383 128.924 177 338.014> 232 48<45.6709 127.951> 430 54<-301 478.746>
LayerCount: 2
Fore
SplineSet
269 602 m 0
 400 602 484 524 484 399 c 2
 484 -301 l 1
 430 -301 l 1
 430 393 l 2
 430 498 362 554 266 554 c 0
 199 554 129 511 104 450 c 1
 165 445 205 423 223 385 c 1
 176 376 134 326 134 275 c 2
 134 177 l 1
 150 184 165 188 179 188 c 0
 237 188 280 141 280 87 c 256
 280 28 232 -12 179 -12 c 256
 121 -12 80 32 80 87 c 2
 80 274 l 2
 80 328 105 368 156 393 c 1
 129 404 90 409 39 409 c 1
 55 523 157 602 269 602 c 0
181 36 m 256
 211 36 232 59 232 86 c 256
 232 116 208 137 181 137 c 256
 151 137 131 114 131 86 c 256
 131 58 151 36 181 36 c 256
EndSplineSet
EndChar

StartChar: uni0E25
Encoding: 3621 3621 250
Width: 573
VWidth: 1504
Flags: W
HStem: -12 48<133.597 217.04> 137 50<140.531 216.49> 367 53<186.111 370.611> 554 48<165.231 361.012>
VStem: 32 52<452.354 503.014> 72 54<44.6843 128.676 176 312.178> 226 49<45.0596 127.936> 435 54<0 313.531 360 489.812>
LayerCount: 2
Fore
SplineSet
265 602 m 0xfb
 387 602 489 537 489 430 c 2
 489 0 l 1
 435 0 l 1
 435 257 l 2
 435 327 355 367 271 367 c 0
 193 367 126 321 126 251 c 2
 126 176 l 1
 140 183 157 187 176 187 c 0
 234 187 275 141 275 87 c 256
 275 36 235 -12 176 -12 c 0
 110 -12 72 37 72 89 c 2
 72 251 l 2xf7
 72 352 161 420 266 420 c 0
 337 420 393 400 435 360 c 1
 435 433 l 2
 435 504 351 554 268 554 c 0
 179 554 102 510 84 445 c 1
 32 445 l 1
 45 536 145 602 265 602 c 0xfb
174 36 m 256
 205 36 226 58 226 86 c 256
 226 114 205 137 174 137 c 256
 145 137 125 113 125 86 c 256
 125 58 145 36 174 36 c 256
EndSplineSet
EndChar

StartChar: uni0E26
Encoding: 3622 3622 251
Width: 639
VWidth: 1504
Flags: W
HStem: -12 48<92.2315 175.928> 137 48<93.6709 162.998> 554 48<251.976 423.308>
VStem: 36 48<45.3558 127.928> 161 53<202.85 344.349> 185 48<45.5743 127.991> 501 54<-301 476.568>
LayerCount: 2
Fore
SplineSet
338 602 m 0xfa
 469 602 555 524 555 397 c 2
 555 -301 l 1
 501 -301 l 1
 501 391 l 2
 501 491 433 554 337 554 c 0
 261 554 194 504 173 450 c 1
 226 445 267 423 295 384 c 1
 241 365 214 329 214 274 c 0xfa
 214 182 233 154 233 90 c 0xf6
 233 30 186 -12 134 -12 c 256
 77 -12 36 33 36 86 c 256
 36 138 77 185 134 185 c 0
 145 185 157 182 170 177 c 1
 164 224 161 259 161 283 c 0
 161 329 181 365 221 391 c 1
 194 403 168 409 141 409 c 0
 128 409 119 409 113 408 c 1
 122 516 216 602 338 602 c 0xfa
134 36 m 256
 164 36 185 59 185 86 c 256xf6
 185 116 161 137 134 137 c 256
 107 137 84 116 84 86 c 256
 84 56 107 36 134 36 c 256
EndSplineSet
EndChar

StartChar: uni0E27
Encoding: 3623 3623 252
Width: 503
VWidth: 1504
Flags: W
HStem: -12 48<278.132 362.339> 138 49<278.072 354.715> 554 48<130.462 310.027>
VStem: 15 56<456.484 529.356> 221 48<45.5082 128.949> 366 54<45.7346 128.265 176 500.865>
LayerCount: 2
Fore
SplineSet
220 602 m 0
 327 602 420 545 420 429 c 2
 420 87 l 2
 420 35 377 -12 320 -12 c 256
 268 -12 221 32 221 87 c 256
 221 144 268 187 320 187 c 0
 337 187 353 183 366 176 c 1
 366 420 l 2
 366 509 316 554 217 554 c 0
 138 554 90 518 71 445 c 1
 15 445 l 1
 37 550 105 602 220 602 c 0
320 36 m 256
 350 36 372 60 372 87 c 256
 372 114 350 138 320 138 c 256
 290 138 269 114 269 87 c 256
 269 57 293 36 320 36 c 256
EndSplineSet
EndChar

StartChar: uni0E28
Encoding: 3624 3624 253
Width: 591
VWidth: 1504
Flags: W
HStem: 0 21G<98 152 453 507> 281 41<248.189 326.682> 554 48<194.192 320.758>
VStem: 50 55<271.689 468.997> 98 54<0 218.264> 334 42<329.299 407.798> 453 54<0 477.114> 457 69<604.428 647>
LayerCount: 2
Fore
SplineSet
50 384 m 0xf4
 50 515 149 602 281 602 c 0
 323 602 363 593 400 576 c 1
 436 608 455 632 457 647 c 1
 526 647 l 1xf5
 522 623 495 590 445 548 c 1
 486 515 507 468 507 409 c 2
 507 0 l 1
 453 0 l 1
 453 405 l 2
 453 449 435 484 400 511 c 1
 393 505 368 486 323 453 c 1
 358 439 376 411 376 369 c 0
 376 318 336 281 289 281 c 0
 259 281 235 293 218 316 c 1
 194 279 152 185 152 98 c 2
 152 0 l 1
 98 0 l 1
 98 138 l 2xee
 98 218 50 304 50 384 c 0xf4
278 554 m 0
 187 554 105 484 105 390 c 0
 105 336 132 259 135 235 c 1
 154 337 189 407 238 445 c 2
 356 539 l 1
 332 549 306 554 278 554 c 0
287 322 m 256
 315 322 334 343 334 369 c 256
 334 394 315 415 287 415 c 256
 260 415 241 394 241 369 c 256
 241 341 262 322 287 322 c 256
EndSplineSet
EndChar

StartChar: uni0E29
Encoding: 3625 3625 254
Width: 658
VWidth: 1504
Flags: W
HStem: -12 50<264.658 480.226> 232 42<397.723 484.718> 403 48<83.1384 159.099> 403 39<321.588 392.756> 554 48<84.3564 165.429>
VStem: 26 48<460.072 544.339> 170 54<74.5723 414 460.018 544.764> 275 41<326.091 397.934> 399 40<325.523 396.637> 520 55<74.5723 242 319 590>
LayerCount: 2
Fore
SplineSet
356 442 m 0xdfc0
 402 442 439 410 439 361 c 0
 439 326 422 300 387 284 c 1
 399 277 419 274 447 274 c 0
 474 274 498 279 520 289 c 1
 520 590 l 1
 575 590 l 1
 575 319 l 1
 599 337 618 360 633 388 c 1
 666 360 l 1
 652 333 622 300 575 263 c 1
 575 128 l 2
 575 35 508 -12 373 -12 c 0
 238 -12 170 35 170 128 c 2
 170 414 l 1
 157 407 142 403 125 403 c 0xefc0
 68 403 26 450 26 502 c 256
 26 559 72 602 125 602 c 256
 177 602 224 559 224 502 c 2
 224 132 l 2
 224 69 273 38 372 38 c 0
 471 38 520 69 520 132 c 2
 520 242 l 1
 490 235 466 232 447 232 c 0
 357 232 275 286 275 361 c 0
 275 410 313 442 356 442 c 0xdfc0
356 320 m 256
 380 320 399 339 399 361 c 256
 399 385 378 403 356 403 c 256xdfc0
 335 403 316 384 316 361 c 256
 316 337 335 320 356 320 c 256
125 451 m 256xefc0
 155 451 176 475 176 502 c 256
 176 532 152 554 125 554 c 256
 98 554 74 532 74 502 c 256
 74 472 98 451 125 451 c 256xefc0
EndSplineSet
EndChar

StartChar: uni0E2A
Encoding: 3626 3626 255
Width: 573
VWidth: 1504
Flags: MW
HStem: -12 48<133.597 217.04> 137 50<140.531 216.49> 355 53<187.083 275> 554 48<165.231 361.06>
VStem: 32 52<452.354 503.014> 72 54<44.6843 128.676 176 300.178> 226 49<45.0596 127.936> 435 54<0 301.531 347 454.751> 460 54<607.952 642>
LayerCount: 2
Fore
SplineSet
32 445 m 1
 45 536 145 602 265 602 c 256
 322 602 373 587 420 558 c 1
 441 582 454 610 460 642 c 1
 514 642 l 1
 507 602 488 562 457 523 c 1
 478 496 489 465 489 430 c 2
 489 0 l 1
 435 0 l 1
 435 245 l 2
 435 315 355 355 271 355 c 0
 193 355 126 309 126 239 c 2
 126 176 l 1
 140 183 157 187 176 187 c 0
 234 187 275 141 275 87 c 256
 275 36 235 -12 176 -12 c 0
 110 -12 72 37 72 89 c 2
 72 239 l 2
 72 340 161 408 266 408 c 2
 275 408 l 1
 320 445 359 481 390 516 c 1
 353 541 312 554 268 554 c 0
 179 554 102 510 84 445 c 1
 32 445 l 1
435 347 m 1
 435 433 l 2
 435 447 430 463 421 481 c 1
 393 451 363 424 331 400 c 1
 373 390 408 372 435 347 c 1
174 36 m 256
 205 36 226 58 226 86 c 256
 226 114 205 137 174 137 c 256
 145 137 125 113 125 86 c 256
 125 58 145 36 174 36 c 256
EndSplineSet
EndChar

StartChar: uni0E2B
Encoding: 3627 3627 256
Width: 642
VWidth: 1504
Flags: W
HStem: 0 21G<170 231.378 504 558> 394 57<442.404 496.089> 403 48<83.1384 159.099> 554 48<84.3564 165.429 443.571 524.469>
VStem: 26 48<460.072 544.339> 170 54<122.498 414 460.018 544.764> 385 48<460.106 544.339> 504 54<0 389.417> 535 49<460.295 544.573>
LayerCount: 2
Fore
SplineSet
484 602 m 256xbf
 541 602 584 555 584 502 c 0xbe80
 584 464 567 436 534 417 c 1
 550 400 558 369 558 325 c 2
 558 0 l 1
 504 0 l 1
 504 325 l 2
 504 371 492 394 468 394 c 0xdf
 453 394 435 376 414 341 c 2
 220 0 l 1
 170 0 l 1
 170 414 l 1
 157 407 142 403 125 403 c 0
 68 403 26 450 26 502 c 256
 26 559 72 602 125 602 c 256
 177 602 224 559 224 502 c 2
 224 176 l 2
 224 167 222 136 217 83 c 1
 250 149 l 1
 372 373 l 2
 386 398 402 416 421 426 c 1
 397 445 385 470 385 502 c 0
 385 559 432 602 484 602 c 256xbf
125 451 m 256
 155 451 176 475 176 502 c 256
 176 532 152 554 125 554 c 256
 98 554 74 532 74 502 c 256
 74 472 98 451 125 451 c 256
484 451 m 256xde80
 514 451 535 475 535 502 c 256
 535 532 511 554 484 554 c 256
 457 554 433 532 433 502 c 256
 433 472 457 451 484 451 c 256xde80
EndSplineSet
EndChar

StartChar: uni0E2C
Encoding: 3628 3628 257
AltUni2: 00f71d.ffffffff.0
Width: 682
VWidth: 1504
Flags: W
HStem: 0 21G<170 242.239 521.761 599> 403 48<83.1384 159.099 457.132 533.715> 554 48<84.3564 165.429 458.571 532.365>
VStem: 26 48<460.072 544.339> 170 54<80.0823 414 460.018 544.764> 400 48<460.508 544.339> 545 54<75.4941 414 460.735 525.091> 582 69<591.413 648>
LayerCount: 2
Fore
SplineSet
400 502 m 256xfe
 400 559 447 602 499 602 c 0
 515 602 530 598 545 590 c 1xfe
 565 599 577 618 582 648 c 1
 651 648 l 1xfd
 642 611 620 579 585 552 c 1
 594 534 599 517 599 502 c 2
 599 0 l 1
 532 0 l 1
 382 293 l 1
 232 0 l 1
 170 0 l 1
 170 414 l 1
 157 407 142 403 125 403 c 0
 68 403 26 450 26 502 c 256
 26 559 72 602 125 602 c 256
 177 602 224 559 224 502 c 2
 224 147 l 2
 224 131 223 107 220 74 c 1
 226 91 234 112 245 138 c 2
 356 349 l 1
 408 349 l 1
 519 138 l 2
 522 131 531 110 548 74 c 1
 546 106 545 130 545 147 c 2
 545 414 l 1
 532 407 516 403 499 403 c 0
 447 403 400 447 400 502 c 256xfe
125 451 m 256
 155 451 176 475 176 502 c 256
 176 532 152 554 125 554 c 256
 98 554 74 532 74 502 c 256
 74 472 98 451 125 451 c 256
499 451 m 256
 529 451 551 475 551 502 c 256
 551 532 526 554 499 554 c 256
 472 554 448 532 448 502 c 256
 448 472 472 451 499 451 c 256
EndSplineSet
Substitution2: "Single Substitution lookup 42 subtable" uni0E2C.alt1
Substitution2: "Single Substitution lookup 42 subtable" uni0E2C.alt1
EndChar

StartChar: uni0E2D
Encoding: 3629 3629 258
Width: 582
VWidth: 1504
Flags: W
HStem: -12 50<195.926 401.076> 214 48<162.269 238.123> 364 48<155.078 238.862> 554 48<174.306 369.353>
VStem: 39 54<456.014 514.35> 98 54<84.1286 128 140 224 270.898 354.754> 248 48<271.35 354.928> 444 54<77.8438 488.301>
LayerCount: 2
Fore
SplineSet
197 262 m 256
 227 262 248 286 248 313 c 256
 248 343 224 364 197 364 c 256
 167 364 146 340 146 313 c 256
 146 283 170 262 197 262 c 256
275 602 m 0
 399 602 498 536 498 429 c 2
 498 128 l 2
 496 35 429 -12 296 -12 c 256
 164 -12 98 35 98 128 c 2
 98 313 l 2
 98 365 140 412 197 412 c 256
 254 412 296 365 296 313 c 256
 296 262 261 214 197 214 c 0
 180 214 165 217 152 224 c 1
 152 140 l 2
 152 72 201 38 299 38 c 0
 396 38 444 72 444 140 c 2
 444 420 l 2
 444 504 367 554 272 554 c 0
 186 554 107 507 93 445 c 1
 39 445 l 1
 59 541 151 602 275 602 c 0
EndSplineSet
EndChar

StartChar: uni0E2E
Encoding: 3630 3630 259
Width: 559
VWidth: 1504
Flags: W
HStem: -12 50<171.602 376.588> 174 49<136.961 213.351> 325 48<129.508 213.479> 403 48<120.307 375.583> 557 46<146.71 351.484>
VStem: 56 54<464.879 525.983> 72 54<77.8438 185 231.898 315.982> 223 48<231.817 316> 421 54<78.0879 446.514>
LayerCount: 2
Fore
SplineSet
56 493 m 0xfd80
 56 569 161 603 260 603 c 0
 337 603 397 578 442 529 c 1
 458 556 467 581 468 603 c 1
 525 603 l 1
 518 562 498 523 465 486 c 1
 472 472 475 452 475 426 c 2
 475 134 l 2
 475 37 408 -12 275 -12 c 0
 140 -12 72 37 72 134 c 2
 72 274 l 2
 72 326 116 373 171 373 c 256
 228 373 271 326 271 274 c 256
 271 236 251 174 171 174 c 0
 154 174 139 178 126 185 c 1
 126 140 l 2xfb80
 126 72 176 38 275 38 c 0
 372 38 421 72 421 141 c 2
 421 447 l 1
 378 418 312 403 223 403 c 0
 112 403 56 433 56 493 c 0xfd80
259 557 m 0
 197 557 110 538 110 493 c 0xfd80
 110 465 149 451 226 451 c 0
 301 451 362 463 411 487 c 1
 389 524 325 557 259 557 c 0
171 223 m 256
 202 223 223 246 223 274 c 256
 223 302 202 325 171 325 c 256
 141 325 120 301 120 274 c 256
 120 244 144 223 171 223 c 256
EndSplineSet
EndChar

StartChar: uni0E2F
Encoding: 3631 3631 260
Width: 588
VWidth: 1504
Flags: W
HStem: 0 21G<447 501> 394 69<138.55 261.463> 552 50<137.978 214.277>
VStem: 81 51<468.777 535.245> 221 53<474.497 545.157> 447 54<0 535.036>
LayerCount: 2
Fore
SplineSet
177 602 m 256
 233 602 274 557 274 505 c 0
 274 483 267 464 253 447 c 1
 308 466 342 513 356 590 c 1
 411 590 l 2
 471 590 501 559 501 496 c 2
 501 0 l 1
 447 0 l 1
 447 492 l 2
 447 523 431 540 400 542 c 1
 365 443 307 394 226 394 c 0
 107 394 81 461 81 505 c 0
 81 561 126 602 177 602 c 256
176 463 m 256
 203 463 221 481 221 507 c 256
 221 532 203 552 176 552 c 256
 141 552 132 523 132 507 c 256
 132 481 150 463 176 463 c 256
EndSplineSet
EndChar

StartChar: uni0E30
Encoding: 3632 3632 261
Width: 536
VWidth: 1504
Flags: W
HStem: 23 46<203.034 315.064> 203 48<100.261 181.006> 341 47<203.189 315.064> 522 48<100.261 181.006>
VStem: 47 46<115.317 195.994 434.284 514.995> 188 51<114.688 195.68 433.688 514.68> 402 54<162.641 256 481.484 575>
LayerCount: 2
Fore
SplineSet
233 388 m 0
 342 392 398 465 402 575 c 1
 456 575 l 1
 452 440 370 341 242 341 c 0
 138 341 47 384 47 474 c 0
 47 529 93 570 143 570 c 256
 198 570 239 524 239 474 c 0
 239 440 225 413 196 394 c 1
 212 390 224 388 233 388 c 0
140 427 m 256
 169 427 188 446 188 474 c 256
 188 503 168 522 140 522 c 256
 112 522 93 503 93 474 c 256
 93 446 112 427 140 427 c 256
233 69 m 0
 342 73 398 146 402 256 c 1
 456 256 l 1
 452 121 370 23 242 23 c 0
 137 23 47 65 47 155 c 0
 47 210 93 251 143 251 c 256
 198 251 239 205 239 155 c 0
 239 121 225 94 196 75 c 1
 212 71 224 69 233 69 c 0
140 108 m 256
 169 108 188 127 188 155 c 256
 188 184 168 203 140 203 c 256
 112 203 93 184 93 155 c 256
 93 127 112 108 140 108 c 256
EndSplineSet
EndChar

StartChar: uni0E31
Encoding: 3633 3633 262
Width: 0
VWidth: 1504
Flags: W
HStem: 698 47<-203.223 -73.4715> 881 44<-298.013 -217.867>
VStem: -353 46<793.276 871.992> -209 48<791.955 872.653> 17 57<841.535 931>
LayerCount: 2
Fore
SplineSet
-150 745 m 0
 -54 746 13 826 17 931 c 1
 74 931 l 1
 71 792 -28 698 -161 698 c 0
 -279 698 -353 750 -353 829 c 0
 -353 884 -307 925 -257 925 c 256
 -202 925 -161 880 -161 830 c 0
 -161 796 -176 769 -206 749 c 1
 -192 746 -173 745 -150 745 c 0
-257 784 m 256
 -233 784 -209 802 -209 832 c 256
 -209 861 -232 881 -257 881 c 256
 -283 881 -307 861 -307 832 c 256
 -307 802 -282 784 -257 784 c 256
EndSplineSet
Substitution2: "Single Substitution lookup 42 subtable" uni0E31.alt1
Substitution2: "Single Substitution lookup 42 subtable" uni0E31.alt1
EndChar

StartChar: uni0E32
Encoding: 3634 3634 263
Width: 475
VWidth: 1504
Flags: W
HStem: 0 21G<337 391> 554 48<141.762 291.788>
VStem: 36 56<442 502.102> 337 54<0 511.755>
LayerCount: 2
Fore
SplineSet
212 602 m 0
 355 602 391 514 391 448 c 2
 391 0 l 1
 337 0 l 1
 337 450 l 2
 337 511 289 554 211 554 c 0
 128 554 95 483 92 442 c 1
 36 442 l 1
 38 517 99 602 212 602 c 0
EndSplineSet
EndChar

StartChar: uni0E34
Encoding: 3636 3636 265
Width: 0
VWidth: 1504
Flags: MW
HStem: 746 42<-454.957 -214.869> 863 44<-406.165 -229.077>
LayerCount: 2
Fore
SplineSet
-519 737 m 1
 -516 842 -424 907 -317 907 c 0
 -182 907 -101 833 -75 684 c 1
 -190 725 -299 746 -400 746 c 0
 -436 746 -476 743 -519 737 c 1
-134 742 m 1
 -178 823 -239 863 -316 863 c 0
 -386 863 -433 837 -457 784 c 1
 -436 787 -413 788 -387 788 c 0
 -290 788 -206 773 -134 742 c 1
EndSplineSet
Substitution2: "Single Substitution lookup 42 subtable" uni0E34.alt1
Substitution2: "Single Substitution lookup 42 subtable" uni0E34.alt1
EndChar

StartChar: uni0E35
Encoding: 3637 3637 266
Width: 0
VWidth: 1504
Flags: W
HStem: 746 42<-454.957 -214.869> 863 44<-406.165 -228.036>
VStem: -134 50<827 973>
LayerCount: 2
Fore
SplineSet
-519 737 m 1
 -516 842 -424 907 -317 907 c 0
 -237 907 -176 880 -134 827 c 1
 -134 973 l 1
 -84 973 l 1
 -84 725 l 1
 -80 712 -77 698 -75 684 c 1
 -190 725 -299 746 -400 746 c 0
 -436 746 -476 743 -519 737 c 1
-134 742 m 1
 -178 823 -239 863 -316 863 c 0
 -386 863 -433 837 -457 784 c 1
 -436 787 -413 788 -387 788 c 0
 -290 788 -206 773 -134 742 c 1
EndSplineSet
Substitution2: "Single Substitution lookup 42 subtable" uni0E35.alt1
Substitution2: "Single Substitution lookup 42 subtable" uni0E35.alt1
EndChar

StartChar: uni0E36
Encoding: 3638 3638 267
Width: 0
VWidth: 1504
Flags: W
HStem: 746 42<-454.957 -214.869> 818 35<-127.622 -73.3626> 863 44<-406.165 -226.735> 931 35<-143.009 -73.2615>
VStem: -182 35<870.426 926.907> -69 34<857.404 926.725>
LayerCount: 2
Fore
SplineSet
-35 892 m 256
 -35 850 -69 818 -108 818 c 0
 -113 818 -120 819 -128 821 c 1
 -103 786 -85 741 -75 684 c 1
 -190 725 -299 746 -400 746 c 0
 -436 746 -476 743 -519 737 c 1
 -516 842 -424 907 -317 907 c 0
 -263 907 -216 894 -177 868 c 1
 -180 876 -182 884 -182 892 c 0
 -182 934 -147 966 -108 966 c 256
 -65 966 -35 931 -35 892 c 256
-134 742 m 1
 -178 823 -239 863 -316 863 c 0
 -386 863 -433 837 -457 784 c 1
 -436 787 -413 788 -387 788 c 0
 -290 788 -206 773 -134 742 c 1
-108 853 m 256
 -87 853 -69 869 -69 892 c 256
 -69 915 -87 931 -108 931 c 256
 -132 931 -147 914 -147 892 c 256
 -147 868 -130 853 -108 853 c 256
EndSplineSet
Substitution2: "Single Substitution lookup 42 subtable" uni0E36.alt1
Substitution2: "Single Substitution lookup 42 subtable" uni0E36.alt1
EndChar

StartChar: uni0E37
Encoding: 3639 3639 268
Width: 0
VWidth: 1504
Flags: W
HStem: 746 42<-454.957 -214.869> 863 44<-406.165 -261.738>
VStem: -254 49<901 973> -134 50<827 973>
LayerCount: 2
Fore
SplineSet
-519 737 m 1
 -516 842 -424 907 -317 907 c 0
 -294 907 -273 905 -254 901 c 1
 -254 973 l 1
 -205 973 l 1
 -205 883 l 1
 -176 870 -153 851 -134 827 c 1
 -134 973 l 1
 -84 973 l 1
 -84 725 l 1
 -80 712 -77 698 -75 684 c 1
 -190 725 -299 746 -400 746 c 0
 -436 746 -476 743 -519 737 c 1
-134 742 m 1
 -178 823 -239 863 -316 863 c 0
 -386 863 -433 837 -457 784 c 1
 -436 787 -413 788 -387 788 c 0
 -290 788 -206 773 -134 742 c 1
EndSplineSet
Substitution2: "Single Substitution lookup 42 subtable" uni0E37.alt1
Substitution2: "Single Substitution lookup 42 subtable" uni0E37.alt1
EndChar

StartChar: uni0E38
Encoding: 3640 3640 269
Width: 0
VWidth: 1504
Flags: W
HStem: -232 42<-198.569 -139.401> -111 39<-198.586 -129.431>
VStem: -244 41<-186.104 -115.513> -137 53<-349 -227> -125 41<-186.04 -116.101>
LayerCount: 2
Fore
SplineSet
-164 -72 m 256xf0
 -117 -72 -84 -109 -84 -152 c 2xe8
 -84 -349 l 1
 -137 -349 l 1
 -137 -227 l 1
 -145 -230 -154 -232 -164 -232 c 0
 -211 -232 -244 -195 -244 -152 c 256
 -244 -105 -207 -72 -164 -72 c 256xf0
-164 -190 m 256
 -141 -190 -125 -172 -125 -150 c 256
 -125 -129 -141 -111 -164 -111 c 256
 -187 -111 -203 -129 -203 -150 c 256
 -203 -172 -187 -190 -164 -190 c 256
EndSplineSet
Substitution2: "Single Substitution lookup 41 subtable" a
Substitution2: "Single Substitution lookup 42 subtable" uni0E38.alt1
Substitution2: "Single Substitution lookup 41 subtable" a
Substitution2: "Single Substitution lookup 42 subtable" uni0E38.alt1
EndChar

StartChar: uni0E39
Encoding: 3641 3641 270
Width: 0
VWidth: 1504
Flags: W
HStem: -369 47<-238.587 -141.546> -232 42<-356.598 -297.401> -111 39<-356.586 -287.431>
VStem: -402 41<-186.073 -115.513> -295 53<-315.795 -227> -283 41<-186.04 -116.101> -138 54<-316.266 -78>
LayerCount: 2
Fore
SplineSet
-322 -72 m 256xfa
 -275 -72 -242 -109 -242 -152 c 2xf6
 -242 -287 l 2
 -242 -310 -225 -322 -190 -322 c 0
 -155 -322 -138 -310 -138 -287 c 2
 -138 -78 l 1
 -84 -78 l 1
 -84 -275 l 2
 -84 -338 -120 -369 -193 -369 c 0
 -261 -369 -295 -339 -295 -278 c 2
 -295 -227 l 1
 -303 -230 -312 -232 -322 -232 c 0
 -369 -232 -402 -195 -402 -152 c 256
 -402 -105 -365 -72 -322 -72 c 256xfa
-322 -190 m 256
 -299 -190 -283 -172 -283 -150 c 256
 -283 -129 -299 -111 -322 -111 c 256
 -345 -111 -361 -129 -361 -150 c 256
 -361 -174 -343 -190 -322 -190 c 256
EndSplineSet
Substitution2: "Single Substitution lookup 41 subtable" b
Substitution2: "Single Substitution lookup 42 subtable" uni0E39.alt1
Substitution2: "Single Substitution lookup 41 subtable" b
Substitution2: "Single Substitution lookup 42 subtable" uni0E39.alt1
EndChar

StartChar: uni0E3A
Encoding: 3642 3642 271
Width: 0
VWidth: 1504
Flags: W
HStem: -144 79<-147.325 -76.3668>
VStem: -152 80<-139.355 -69.4128>
LayerCount: 2
Fore
SplineSet
-111 -65 m 256
 -90 -65 -72 -81 -72 -104 c 256
 -72 -127 -90 -144 -111 -144 c 256
 -135 -144 -152 -125 -152 -104 c 256
 -152 -81 -134 -65 -111 -65 c 256
EndSplineSet
Substitution2: "Single Substitution lookup 41 subtable" c
Substitution2: "Single Substitution lookup 42 subtable" uni0E3A.alt1
Substitution2: "Single Substitution lookup 41 subtable" c
Substitution2: "Single Substitution lookup 42 subtable" uni0E3A.alt1
EndChar

StartChar: uni0E3F
Encoding: 3647 3647 272
Width: 618
VWidth: 1504
Flags: W
HStem: 33 48<193.197 260 310 365.777> 352 50<170 365.334> 635 48<211.071 257.095>
VStem: 113 57<89 352 402 624> 260 50<-89 33 683 787> 423 55<455.101 581.592> 450 54<149.846 288.646>
LayerCount: 2
Fore
SplineSet
382 378 m 1xfc
 420 364 504 315 504 220 c 0xfa
 504 115 439 54 310 38 c 1
 310 -89 l 1
 260 -89 l 1
 260 33 l 1
 236 33 l 2
 199 33 158 38 113 47 c 1
 113 663 l 1
 169 676 215 683 250 683 c 2
 260 683 l 1
 260 787 l 1
 310 787 l 1
 310 680 l 1
 422 665 478 611 478 520 c 0
 478 453 446 406 382 378 c 1xfc
248 81 m 0
 356 81 450 123 450 218 c 0
 450 312 368 352 259 352 c 2
 170 352 l 1
 170 89 l 1
 189 84 215 81 248 81 c 0
275 402 m 2
 374 402 423 457 423 519 c 0xfc
 423 612 325 635 250 635 c 0
 230 635 203 631 170 624 c 1
 170 402 l 1
 275 402 l 2
EndSplineSet
EndChar

StartChar: uni0E40
Encoding: 3648 3648 273
Width: 305
VWidth: 1504
Flags: W
HStem: -9 51<139.962 223.451> 144 50<147.452 223.116> 582 20G<80 134>
VStem: 80 54<53.0156 134.982 182 602> 233 50<51.5947 134.451>
LayerCount: 2
Fore
SplineSet
182 194 m 0
 240 194 283 147 283 93 c 256
 283 34 236 -9 182 -9 c 0
 120 -9 80 36 80 93 c 2
 80 602 l 1
 134 602 l 1
 134 182 l 1
 148 190 164 194 182 194 c 0
182 42 m 256
 212 42 233 66 233 93 c 256
 233 123 209 144 182 144 c 256
 152 144 131 120 131 93 c 256
 131 63 155 42 182 42 c 256
EndSplineSet
EndChar

StartChar: uni0E41
Encoding: 3649 3649 274
Width: 567
VWidth: 1504
Flags: W
HStem: -9 51<139.962 223.451 400.173 483.451> 144 50<147.452 223.116 407.452 483.116> 582 20G<80 134 340 394>
VStem: 80 54<53.0156 134.982 182 602> 233 50<51.5947 134.451> 340 54<51.5962 134.982 182 602> 493 50<51.5947 134.451>
LayerCount: 2
Fore
SplineSet
182 194 m 0
 240 194 283 147 283 93 c 256
 283 34 236 -9 182 -9 c 0
 120 -9 80 36 80 93 c 2
 80 602 l 1
 134 602 l 1
 134 182 l 1
 148 190 164 194 182 194 c 0
182 42 m 256
 212 42 233 66 233 93 c 256
 233 123 209 144 182 144 c 256
 152 144 131 120 131 93 c 256
 131 63 155 42 182 42 c 256
442 194 m 0
 500 194 543 147 543 93 c 256
 543 34 496 -9 442 -9 c 0
 381 -9 340 38 340 93 c 2
 340 602 l 1
 394 602 l 1
 394 182 l 1
 408 190 424 194 442 194 c 0
442 42 m 256
 472 42 493 66 493 93 c 256
 493 123 469 144 442 144 c 256
 412 144 391 120 391 93 c 256
 391 63 415 42 442 42 c 256
EndSplineSet
EndChar

StartChar: uni0E42
Encoding: 3650 3650 275
Width: 356
VWidth: 1504
Flags: W
HStem: -12 51<191.617 273.869> 141 50<198.713 273.796> 883 50<165.961 258.633> 933 46<18.4533 148.269>
VStem: 129 55<48.1034 131.823 179 762.14> 284 50<48.9533 131.033>
LayerCount: 2
Fore
SplineSet
232 39 m 256
 262 39 284 63 284 90 c 256
 284 117 262 141 232 141 c 0
 206 141 182 119 182 90 c 256
 182 60 205 39 232 39 c 256
232 191 m 0
 291 191 334 144 334 90 c 256
 334 31 286 -12 232 -12 c 0
 165 -12 129 39 129 90 c 2
 129 716 l 2
 129 775 17 835 -59 838 c 1
 -54 932 -7 979 80 979 c 0
 119 979 200 933 230 933 c 0
 248 933 259 945 263 970 c 1
 308 958 l 1
 294 908 271 883 238 883 c 0
 193 883 122 933 75 933 c 0
 31 933 8 914 5 877 c 1
 124 842 184 786 184 710 c 2
 184 179 l 1
 198 187 214 191 232 191 c 0
EndSplineSet
EndChar

StartChar: uni0E43
Encoding: 3651 3651 276
Width: 364
VWidth: 1504
Flags: W
HStem: -12 51<198.547 281.558> 141 50<206.479 281.558> 746 41<-17.9457 56.749> 945 43<22.2682 153.886>
VStem: -63 40<792.652 855.486> 62 40<792.582 865.997> 137 54<47.3241 131.823 179 772.601> 182 56<791.514 916.561> 292 49<49.4527 130.469>
LayerCount: 2
Fore
SplineSet
241 191 m 0xfe80
 293 191 341 148 341 90 c 256
 341 32 293 -12 241 -12 c 0
 179 -12 137 32 137 90 c 2
 137 705 l 2xfe80
 137 755 182 827 182 859 c 0
 182 911 144 945 93 945 c 0
 56 945 28 933 8 910 c 1
 65 919 102 879 102 829 c 0
 102 779 63 746 21 746 c 256
 -7 746 -63 763 -63 842 c 0
 -63 914 -13 988 98 988 c 0
 165 988 238 944 238 868 c 0xfd80
 238 810 191 751 191 695 c 2
 191 179 l 1
 205 187 222 191 241 191 c 0xfe80
239 39 m 256
 266 39 292 60 292 90 c 256
 292 120 266 141 239 141 c 0
 214 141 190 119 190 90 c 256
 190 63 210 39 239 39 c 256
20 787 m 256
 45 787 62 806 62 829 c 256
 62 850 46 871 20 871 c 256
 -14 871 -23 842 -23 829 c 256
 -23 806 -7 787 20 787 c 256
EndSplineSet
EndChar

StartChar: uni0E44
Encoding: 3652 3652 277
Width: 367
VWidth: 1504
Flags: W
HStem: -12 51<200.806 283.934> 141 50<207.73 283.874> 748 21G<-18 45.8462>
VStem: -53 47<805.939 992.066> 140 54<49.5938 131.982 179 904> 293 51<48.8057 131.176>
LayerCount: 2
Fore
SplineSet
244 191 m 0
 296 191 344 148 344 90 c 256
 344 32 296 -12 244 -12 c 0
 182 -12 140 32 140 90 c 2
 140 904 l 1
 32 748 l 1
 -18 766 l 1
 -23 833 -35 911 -53 1000 c 1
 -6 1000 l 1
 10 913 20 847 23 803 c 1
 146 985 l 1
 172 984 194 956 194 933 c 2
 194 179 l 1
 208 187 225 191 244 191 c 0
242 39 m 256
 272 39 293 63 293 90 c 256
 293 120 269 141 242 141 c 256
 212 141 191 117 191 90 c 256
 191 60 215 39 242 39 c 256
EndSplineSet
EndChar

StartChar: uni0E45
Encoding: 3653 3653 278
Width: 308
VWidth: 1504
Flags: W
HStem: 554 48<-25.2376 124.788>
VStem: -131 56<442 502.102> 170 54<-301 511.755>
LayerCount: 2
Fore
SplineSet
45 602 m 0
 188 602 224 514 224 448 c 2
 224 -301 l 1
 170 -301 l 1
 170 450 l 2
 170 511 122 554 44 554 c 0
 -39 554 -72 483 -75 442 c 1
 -131 442 l 1
 -129 517 -68 602 45 602 c 0
EndSplineSet
EndChar

StartChar: uni0E46
Encoding: 3654 3654 279
Width: 600
VWidth: 1504
Flags: W
HStem: 308 48<160.898 238.238> 445 48<168.333 237.191> 516 21G<277.357 333.296>
VStem: 92 63<362.688 439.504> 244 48<362.016 438.551> 447 55<-256 525.75>
LayerCount: 2
Fore
SplineSet
292 400 m 256
 292 349 253 308 199 308 c 0
 131 308 93 368 92 424 c 0
 89 527 135 592 230 621 c 1
 304 572 l 1
 373 621 l 1
 459 588 502 532 502 451 c 2
 502 -256 l 1
 447 -256 l 1
 447 451 l 2
 447 502 424 542 378 570 c 1
 307 516 l 1
 224 572 l 1
 182 554 158 523 152 478 c 1
 167 488 182 493 199 493 c 0
 253 493 292 451 292 400 c 256
199 356 m 256
 224 356 244 374 244 400 c 256
 244 427 224 445 199 445 c 256
 173 445 155 427 155 400 c 256
 155 374 173 356 199 356 c 256
EndSplineSet
EndChar

StartChar: uni0E47
Encoding: 3655 3655 280
Width: 0
VWidth: 1504
Flags: W
HStem: 693 43<-209.822 -122.5> 749 21G<-239 -223.5> 802 37<-184.043 -122.274> 883 44<-375.572 -162.92>
VStem: -439 49<770.819 868.821> -224 37<749.363 798.97> -134 51<956.125 1035> -120 39<738.832 799.153>
LayerCount: 2
Fore
SplineSet
-153 839 m 256xfe
 -111 839 -81 806 -81 769 c 0xfd
 -81 723 -119 693 -158 693 c 0
 -200 693 -248 715 -302 758 c 1
 -329 749 -355 727 -379 692 c 1
 -419 717 -439 756 -439 809 c 0
 -439 888 -396 927 -311 927 c 2
 -212 927 l 2
 -163 927 -137 963 -134 1035 c 1
 -83 1035 l 1
 -83 972 -109 883 -214 883 c 2
 -317 883 l 2
 -366 883 -390 860 -390 814 c 0
 -390 792 -384 772 -373 755 c 1
 -348 783 -322 799 -296 803 c 1
 -279 788 -255 770 -223 749 c 1
 -224 757 -224 764 -224 769 c 0
 -224 809 -195 839 -153 839 c 256xfe
-153 736 m 256
 -136 736 -120 750 -120 769 c 256
 -120 787 -136 802 -153 802 c 256
 -172 802 -187 786 -187 769 c 256
 -187 751 -173 736 -153 736 c 256
EndSplineSet
Substitution2: "Single Substitution lookup 42 subtable" uni0E47.alt1
Substitution2: "Single Substitution lookup 42 subtable" uni0E47.alt1
EndChar

StartChar: uni0E48
Encoding: 3656 3656 281
Width: 0
VWidth: 1504
Flags: W
VStem: -134 50<1023 1190 1023 1190 1023 1023>
LayerCount: 2
Fore
SplineSet
-84 1023 m 1
 -134 1023 l 1
 -134 1190 l 1
 -84 1190 l 1
 -84 1023 l 1
EndSplineSet
Substitution2: "Single Substitution lookup 42 subtable" uni0E48.alt2
Substitution2: "Single Substitution lookup 42 subtable" uni0E48.alt2
EndChar

StartChar: uni0E49
Encoding: 3657 3657 282
Width: 0
VWidth: 1504
Flags: W
HStem: 1106 40<-237.637 -205> 1217 41<-237.727 -172.582>
VStem: -280 39<1148.63 1213.66> -170 42<1148.97 1214.62> 8 55<1139.39 1242>
LayerCount: 2
Fore
SplineSet
-203 1258 m 0
 -161 1258 -132 1224 -128 1181 c 0
 -128 1131 -151 1090 -196 1057 c 1
 -77 1067 -9 1129 8 1242 c 1
 63 1242 l 1
 37 1083 -62 1018 -248 1018 c 2
 -275 1018 l 1
 -275 1047 l 1
 -242 1061 -219 1081 -205 1106 c 1
 -243 1106 -280 1136 -280 1181 c 256
 -280 1221 -248 1258 -203 1258 c 0
-205 1146 m 256
 -184 1146 -170 1162 -170 1181 c 256
 -170 1202 -185 1217 -205 1217 c 256
 -226 1217 -241 1200 -241 1181 c 256
 -241 1161 -226 1146 -205 1146 c 256
EndSplineSet
Substitution2: "Single Substitution lookup 42 subtable" uni0E49.alt2
Substitution2: "Single Substitution lookup 42 subtable" uni0E49.alt2
EndChar

StartChar: uni0E4A
Encoding: 3658 3658 283
Width: 0
VWidth: 1504
Flags: W
HStem: 1017 39<-402.628 -337.592> 1127 42<-395.333 -338.271>
VStem: -451 45<1059.16 1154.94> -335 40<1059.03 1124.48> -206 41<1078.95 1196.06> -98 48<1130.86 1239>
LayerCount: 2
Fore
SplineSet
-370 1056 m 256
 -349 1056 -335 1072 -335 1091 c 256
 -335 1112 -350 1127 -370 1127 c 256
 -391 1127 -406 1110 -406 1091 c 256
 -406 1071 -391 1056 -370 1056 c 256
-199 1059 m 1
 -163 1062 -98 1112 -98 1239 c 1
 -50 1239 l 1
 -53 1090 -125 1015 -266 1015 c 1
 -266 1048 l 1
 -226 1069 -206 1101 -206 1145 c 0
 -206 1179 -223 1201 -256 1211 c 1
 -298 1164 l 1
 -340 1211 l 1
 -356 1209 -390 1192 -399 1163 c 1
 -392 1166 -382 1169 -370 1169 c 0
 -328 1169 -295 1136 -295 1092 c 256
 -295 1047 -329 1017 -370 1017 c 0
 -435 1017 -451 1070 -451 1112 c 0
 -451 1185 -399 1253 -332 1253 c 1
 -296 1208 l 1
 -263 1253 l 1
 -202 1250 -165 1207 -165 1148 c 0
 -165 1112 -176 1082 -199 1059 c 1
EndSplineSet
Substitution2: "Single Substitution lookup 42 subtable" uni0E4A.alt2
Substitution2: "Single Substitution lookup 42 subtable" uni0E4A.alt2
EndChar

StartChar: uni0E4B
Encoding: 3659 3659 284
Width: 0
VWidth: 1504
Flags: MW
HStem: 1082 42<-212 -132 -86 -6>
VStem: -132 46<1023 1082 1124 1188 1023 1188 1023 1023>
LayerCount: 2
Fore
SplineSet
-6 1082 m 1
 -86 1082 l 1
 -86 1023 l 1
 -132 1023 l 1
 -132 1082 l 1
 -212 1082 l 1
 -212 1124 l 1
 -132 1124 l 1
 -132 1188 l 1
 -86 1188 l 1
 -86 1124 l 1
 -6 1124 l 1
 -6 1082 l 1
EndSplineSet
Substitution2: "Single Substitution lookup 42 subtable" uni0E4B.alt2
Substitution2: "Single Substitution lookup 42 subtable" uni0E4B.alt2
EndChar

StartChar: uni0E4C
Encoding: 3660 3660 285
Width: 0
VWidth: 1504
Flags: W
HStem: 948 36<-221.762 -153.073>
VStem: -268 42<988.529 1057.12> -149 38<988.49 1057.8> -63 46<1178.93 1214>
LayerCount: 2
Fore
SplineSet
-188 948 m 0
 -234 948 -268 981 -268 1024 c 0
 -268 1091 -234 1133 -165 1152 c 2
 -99 1172 l 2
 -75 1180 -63 1194 -63 1214 c 1
 -17 1214 l 1
 -25 1116 -160 1131 -185 1103 c 1
 -143 1099 -111 1067 -111 1024 c 0
 -111 978 -146 948 -188 948 c 0
-187 984 m 0
 -165 984 -149 1003 -149 1023 c 256
 -149 1043 -165 1062 -187 1062 c 0
 -209 1062 -226 1043 -226 1023 c 256
 -226 1003 -209 984 -187 984 c 0
EndSplineSet
Substitution2: "Single Substitution lookup 42 subtable" uni0E4C.alt2
Substitution2: "Single Substitution lookup 42 subtable" uni0E4C.alt2
EndChar

StartChar: uni0E4D
Encoding: 3661 3661 286
Width: 0
VWidth: 1504
Flags: W
HStem: 695 50<-176.779 -79.2424> 875 50<-175.809 -81.0253>
VStem: -244 50<761.459 857.458> -63 49<762.316 857.646>
LayerCount: 2
Fore
SplineSet
-128 925 m 256
 -60 925 -14 870 -14 809 c 256
 -14 742 -66 695 -128 695 c 256
 -193 695 -244 744 -244 809 c 256
 -244 875 -191 925 -128 925 c 256
-128 745 m 0
 -94 745 -63 771 -63 809 c 256
 -63 847 -94 875 -128 875 c 0
 -166 875 -194 844 -194 809 c 256
 -194 771 -163 745 -128 745 c 0
EndSplineSet
Substitution2: "Single Substitution lookup 42 subtable" uni0E4D.alt1
Substitution2: "Single Substitution lookup 42 subtable" uni0E4D.alt1
EndChar

StartChar: uni0E4E
Encoding: 3662 3662 287
Width: 0
VWidth: 1504
Flags: W
HStem: 696 38<-248.362 -164.775> 835 30<-231.59 -200 -168.521 -133.688 -133.688 -123> 969 40<-177.529 -75.0208>
VStem: -298 44<742.603 812.177> -230 45<880.548 958.949>
LayerCount: 2
Fore
SplineSet
-298 776 m 0
 -298 828 -250 865 -200 865 c 1
 -220 878 -230 897 -230 922 c 0
 -230 980 -191 1009 -114 1009 c 0
 -87 1009 -65 1006 -47 999 c 1
 -60 961 l 1
 -77 966 -96 969 -116 969 c 0
 -162 969 -185 953 -185 922 c 0
 -185 889 -160 869 -110 863 c 1
 -123 829 l 1
 -135 833 -147 835 -159 835 c 0
 -222 835 -254 801 -254 775 c 0
 -254 748 -232 734 -187 734 c 0
 -174 734 -157 738 -138 746 c 1
 -137 708 l 1
 -156 700 -179 696 -206 696 c 0
 -257 696 -298 728 -298 776 c 0
EndSplineSet
Substitution2: "Single Substitution lookup 42 subtable" uni0E4E.alt1
Substitution2: "Single Substitution lookup 42 subtable" uni0E4E.alt1
EndChar

StartChar: uni0E4F
Encoding: 3663 3663 288
Width: 676
VWidth: 1504
Flags: W
HStem: -9 51<245.735 429.564> 95 54<276.954 398.45> 341 53<278.081 398.027> 447 52<248.529 429.564>
VStem: 84 53<152.059 336.528> 190 52<184.051 304.894> 435 52<184.425 304.051> 540 53<154.465 334.227>
LayerCount: 2
Fore
SplineSet
338 149 m 256
 395 149 435 193 435 245 c 0
 435 296 394 341 338 341 c 256
 283 341 242 296 242 245 c 0
 242 189 286 149 338 149 c 256
338 394 m 256
 423 394 487 327 487 245 c 256
 487 165 424 95 338 95 c 256
 255 95 190 163 190 245 c 256
 190 331 259 394 338 394 c 256
338 42 m 0
 456 42 540 136 540 245 c 256
 540 354 456 447 338 447 c 256
 222 447 137 355 137 245 c 0
 137 130 222 42 338 42 c 0
338 499 m 0
 477 499 593 386 593 245 c 0
 593 98 477 -9 338 -9 c 0
 189 -9 84 107 84 245 c 0
 84 382 192 499 338 499 c 0
EndSplineSet
EndChar

StartChar: uni0E50
Encoding: 3664 3664 289
Width: 675
VWidth: 1504
Flags: W
HStem: -11 49<222.887 449.611> 397 47<225.819 448.685>
VStem: 57 56<135.619 298.599> 558 60<135.729 296.833>
LayerCount: 2
Fore
SplineSet
337 444 m 256
 513 444 618 342 618 217 c 256
 618 107 532 -11 337 -11 c 256
 142 -11 57 108 57 217 c 256
 57 327 144 444 337 444 c 256
335 397 m 256
 195 397 113 315 113 217 c 256
 113 110 205 38 335 38 c 256
 488 38 558 129 558 217 c 256
 558 316 475 397 335 397 c 256
EndSplineSet
EndChar

StartChar: uni0E51
Encoding: 3665 3665 290
Width: 675
VWidth: 1504
Flags: W
HStem: -12 48<180.704 332.903> 102 41<284.293 367.096> 259 42<285.667 376.321> 396 46<223.307 439.863>
VStem: 54 54<112.63 287.387> 229 45<152.947 247.462> 390 51<155.593 246.383> 567 54<57.9028 274.262>
LayerCount: 2
Fore
SplineSet
54 202 m 0
 54 365 190 442 322 442 c 0
 559 442 621 290 621 187 c 0
 621 96 597 24 548 -29 c 1
 481 -29 l 1
 538 18 567 87 567 176 c 0
 567 269 515 396 323 396 c 0
 208 396 108 320 108 200 c 0
 108 103 170 36 259 36 c 0
 316 36 356 62 381 114 c 1
 362 106 345 102 329 102 c 0
 270 102 229 145 229 200 c 0
 229 263 282 301 332 301 c 0
 407 301 441 243 441 182 c 0
 441 110 402 -12 245 -12 c 0
 130 -12 54 82 54 202 c 0
331 143 m 256
 365 143 390 166 390 200 c 256
 390 235 363 259 331 259 c 256
 297 259 274 235 274 200 c 256
 274 164 297 143 331 143 c 256
EndSplineSet
EndChar

StartChar: uni0E52
Encoding: 3666 3666 291
Width: 675
VWidth: 1504
Flags: W
HStem: -18 50<219.847 478.88> 143 44<236.796 317.459> 286 43<245.086 318> 396 46<261.585 371.615 458.916 539.076> 639 53<24 57.4501>
VStem: 63 53<116.192 633.922> 176 51<196.573 315.582> 326 44<195.317 277.626> 572 52<116.406 353.088>
LayerCount: 2
Fore
SplineSet
502 442 m 0
 551 442 624 403 624 220 c 0
 624 61 534 -18 355 -18 c 0
 160 -18 63 58 63 209 c 2
 63 594 l 2
 63 623 50 638 24 639 c 1
 24 692 l 1
 85 687 116 654 116 594 c 2
 116 202 l 2
 116 89 196 32 356 32 c 0
 500 32 572 92 572 212 c 0
 572 354 533 394 507 394 c 0
 462 394 436 352 432 307 c 1
 397 307 l 1
 389 366 364 396 322 396 c 0
 274 396 246 372 239 323 c 1
 246 327 259 329 277 329 c 0
 325 329 370 289 370 236 c 256
 370 184 324 143 277 143 c 0
 231 143 176 177 176 272 c 0
 176 360 220 442 319 442 c 0
 364 442 396 418 415 370 c 1
 431 418 460 442 502 442 c 0
277 187 m 0
 306 187 326 211 326 236 c 0
 326 264 306 286 277 286 c 0
 251 286 227 265 227 236 c 0
 227 211 249 187 277 187 c 0
EndSplineSet
EndChar

StartChar: uni0E53
Encoding: 3667 3667 292
Width: 675
VWidth: 1504
Flags: W
HStem: -3 42<128.764 220.061> 153 43<129.283 220.336> 397 45<162.192 285.006 437.563 538.627>
VStem: 51 54<124.911 328.458> 232 46<51.8846 140.911> 341 56<0 340.493> 572 52<0 361.261>
LayerCount: 2
Fore
SplineSet
486 442 m 0
 573 442 624 381 624 287 c 2
 624 0 l 1
 572 0 l 1
 572 283 l 2
 572 346 542 397 486 397 c 0
 437 397 397 336 397 277 c 2
 397 0 l 1
 341 0 l 1
 341 278 l 2
 341 340 280 397 223 397 c 0
 168 397 105 350 105 215 c 0
 105 198 107 181 110 164 c 1
 125 185 148 196 181 196 c 0
 238 196 278 146 278 95 c 256
 278 41 239 -3 173 -3 c 0
 85 -3 51 100 51 202 c 0
 51 362 110 442 227 442 c 0
 295 442 342 410 369 347 c 1
 392 410 431 442 486 442 c 0
174 39 m 256
 206 39 232 62 232 96 c 256
 232 130 206 153 174 153 c 256
 140 153 117 127 117 96 c 256
 117 62 143 39 174 39 c 256
EndSplineSet
EndChar

StartChar: uni0E54
Encoding: 3668 3668 293
Width: 675
VWidth: 1504
Flags: W
HStem: -12 45<171.439 362.16> 277 42<293.18 381.047> 396 49<206.761 431.657>
VStem: 44 60<105.505 304.049> 236 45<174.945 263.734> 393 43<174.458 265.154> 638 51<524.104 623>
LayerCount: 2
Fore
SplineSet
337 162 m 256
 370 162 393 190 393 220 c 0
 393 251 371 277 337 277 c 256
 304 277 281 249 281 220 c 0
 281 187 307 162 337 162 c 256
363 125 m 1
 435 75 568 72 651 27 c 1
 624 -17 l 1
 570 8 525 20 490 20 c 0
 428 20 341 -12 241 -12 c 0
 117 -12 44 75 44 206 c 0
 44 363 161 445 328 445 c 0
 424 445 489 453 522 468 c 0
 586 498 625 550 638 623 c 1
 689 623 l 1
 666 518 615 449 537 418 c 0
 499 403 429 396 326 396 c 0
 178 396 104 331 104 202 c 0
 104 101 155 33 250 33 c 0
 308 33 363 41 415 56 c 1
 294 88 234 144 236 224 c 0
 239 283 285 319 337 319 c 0
 399 319 436 274 436 220 c 0
 436 173 401 132 363 125 c 1
EndSplineSet
EndChar

StartChar: uni0E55
Encoding: 3669 3669 294
Width: 675
VWidth: 1504
Flags: W
HStem: -12 45<171.439 362.16> 277 42<293.18 381.047> 396 49<204.214 331> 587 45<327.509 410.337>
VStem: 44 60<105.505 304.461> 236 45<174.945 263.734> 272 45<493.592 577.327> 393 43<174.458 265.154> 421 45<492.836 575.863> 638 51<524.104 623>
LayerCount: 2
Fore
SplineSet
369 483 m 0xfac0
 399 483 421 507 421 534 c 256
 421 561 399 587 369 587 c 256
 338 587 317 561 317 534 c 0
 317 508 341 483 369 483 c 0xfac0
337 162 m 256
 370 162 393 190 393 220 c 0
 393 251 371 277 337 277 c 256
 304 277 281 249 281 220 c 0xfd40
 281 187 307 162 337 162 c 256
363 125 m 1
 435 75 568 72 651 27 c 1
 624 -17 l 1
 570 8 525 20 490 20 c 0
 428 20 341 -12 241 -12 c 0
 117 -12 44 75 44 206 c 0
 44 365 162 445 331 445 c 1
 292 462 272 492 272 534 c 0
 272 590 317 632 369 632 c 0
 421 632 466 590 466 534 c 0xfac0
 466 493 447 464 409 447 c 1
 462 451 500 458 522 468 c 0
 586 498 625 550 638 623 c 1
 689 623 l 1
 666 518 615 449 537 418 c 0
 499 403 429 396 326 396 c 0
 178 396 104 331 104 202 c 0
 104 101 155 33 250 33 c 0
 308 33 363 41 415 56 c 1
 294 88 234 144 236 224 c 0
 239 283 285 319 337 319 c 0
 399 319 436 274 436 220 c 0
 436 173 401 132 363 125 c 1
EndSplineSet
EndChar

StartChar: uni0E56
Encoding: 3670 3670 295
Width: 675
VWidth: 1504
Flags: W
HStem: -12 48<273.992 472.831> 187 42<161.943 253.574> 396 46<231.619 470.9>
VStem: 107 43<82.1311 174.367 379 460.189> 266 42<82.18 174.156> 578 55<130.891 304.679>
LayerCount: 2
Fore
SplineSet
344 442 m 0
 588 442 633 316 633 232 c 0
 634 69 535 -12 334 -12 c 0
 148 -12 107 72 107 128 c 0
 107 188 152 229 208 229 c 0
 268 229 308 184 308 128 c 0
 308 90 293 61 262 42 c 1
 292 38 320 36 347 36 c 0
 522 39 578 113 578 229 c 0
 578 329 492 396 356 396 c 0
 249 396 169 358 114 283 c 1
 108 435 79 548 27 623 c 1
 92 623 l 1
 130 552 149 471 150 379 c 1
 203 421 268 442 344 442 c 0
208 71 m 256
 243 71 266 94 266 128 c 256
 266 160 243 187 208 187 c 256
 172 187 150 160 150 128 c 256
 150 92 174 71 208 71 c 256
EndSplineSet
EndChar

StartChar: uni0E57
Encoding: 3671 3671 296
Width: 675
VWidth: 1504
Flags: W
HStem: -5 43<119.454 208.685> 152 44<120.216 207.855> 397 45<134.328 225.701 356.156 444.706>
VStem: 36 53<163.775 337.445> 221 42<50.6427 139.08> 266 57<206 344.833> 475 53<108.306 364.792> 581 49<136.225 305 305 488.911>
LayerCount: 2
Fore
SplineSet
162 38 m 0
 196 38 221 63 221 93 c 0
 221 130 192 152 162 152 c 256
 133 152 107 126 107 93 c 0
 107 66 132 38 162 38 c 0
36 197 m 0
 36 349 94 442 181 442 c 0
 236 442 274 410 295 347 c 1
 310 410 345 442 400 442 c 0
 485 442 528 380 528 256 c 0
 528 189 515 123 490 60 c 1
 551 74 581 156 581 305 c 0
 581 479 587 585 600 623 c 1
 656 623 l 1
 638 579 629 498 630 381 c 2
 630 328 l 2
 630 185 610 94 569 56 c 0
 528 16 481 -3 426 -3 c 2
 418 -3 l 1
 456 98 475 185 475 256 c 0
 475 350 449 397 397 397 c 0
 357 397 323 338 323 277 c 2
 323 206 l 1
 266 206 l 1
 266 278 l 2
 266 339 222 397 181 397 c 0
 126 397 89 325 89 218 c 0
 89 196 90 177 93 162 c 1
 108 185 131 196 162 196 c 0
 221 196 263 148 263 93 c 0
 263 41 219 -5 162 -5 c 0
 69 -5 36 91 36 197 c 0
EndSplineSet
EndChar

StartChar: uni0E58
Encoding: 3672 3672 297
Width: 675
VWidth: 1504
Flags: W
HStem: -8 50<409.549 540.57> 78 45<482.95 554.734> 235 45<482.95 569.775> 390 52<195.233 375.128 369.668 380.589 375.128 520.793>
VStem: 48 57<94.9324 304.993> 426 45<135.547 222.453> 567 53<492.115 623> 582 45<134.737 223.071>
LayerCount: 2
Fore
SplineSet
526 280 m 256xfe
 585 280 627 234 627 179 c 0xfd
 627 54 577 -8 478 -8 c 0
 405 -8 335 35 268 122 c 1
 244 111 162 23 153 -14 c 1
 83 21 48 97 48 214 c 0
 48 366 139 442 320 442 c 0
 365 442 399 436 433 436 c 0
 513 436 567 467 567 597 c 2
 567 623 l 1
 620 623 l 1
 620 593 l 2
 620 454 560 384 441 384 c 0
 388 384 348 390 308 390 c 0
 140 390 105 288 105 220 c 0
 105 147 117 99 141 75 c 1
 182 131 229 169 281 188 c 1
 306 139 408 42 474 42 c 0
 512 42 541 56 560 83 c 1
 541 80 530 78 526 78 c 0
 471 78 426 121 426 179 c 256
 426 237 471 280 526 280 c 256xfe
526 123 m 256
 559 123 582 149 582 179 c 256
 582 212 556 235 526 235 c 256
 497 235 471 211 471 179 c 256
 471 147 497 123 526 123 c 256
EndSplineSet
EndChar

StartChar: uni0E59
Encoding: 3673 3673 298
Width: 675
VWidth: 1504
Flags: W
HStem: -5 43<222.874 303.754> 149 44<217.592 304.299> 347 49<497.284 577.667> 396 46<175.416 305.501 419.422 465.397>
VStem: 39 54<121.685 304.77> 164 42<60.7806 137.364> 317 44<49.6601 137.257> 590 45<405.897 558.356>
LayerCount: 2
Fore
SplineSet
411 340 m 1
 430 225 551 86 627 24 c 1
 599 -17 l 1
 520 45 403 203 360 316 c 0
 348 344 302 395 238 397 c 0
 176 397 93 328 93 209 c 0
 100 135 126 84 170 56 c 1
 166 67 164 79 164 93 c 0
 164 150 209 193 262 193 c 256
 314 193 361 150 361 93 c 256
 361 37 314 -5 262 -5 c 0
 85 -7 39 117 39 217 c 0
 39 352 126 444 236 444 c 0
 293 444 340 419 376 369 c 1
 380 418 400 442 435 442 c 0
 458 442 515 396 542 396 c 0
 574 396 590 424 590 481 c 0
 590 536 586 583 578 623 c 1
 623 623 l 1
 631 572 635 526 635 486 c 0
 635 393 608 347 554 347 c 0
 529 347 449 396 441 396 c 0
 426 396 416 377 411 340 c 1
262 38 m 256
 293 38 317 65 317 93 c 256
 317 125 291 149 262 149 c 256
 229 149 206 123 206 93 c 256
 206 64 230 38 262 38 c 256
EndSplineSet
EndChar

StartChar: uni0E5A
Encoding: 3674 3674 299
Width: 785
VWidth: 1504
Flags: W
HStem: 0 21G<447 501 647 701> 394 69<138.55 261.463> 542 48<600 639.279> 552 50<137.978 214.277>
VStem: 81 51<468.777 535.245> 221 53<474.497 545.157> 447 54<0 409 474 535.036> 647 54<0 535.036>
LayerCount: 2
Fore
SplineSet
177 602 m 256xdf
 233 602 274 557 274 505 c 0
 274 483 267 464 253 447 c 1
 308 466 342 513 356 590 c 1
 411 590 l 2
 471 590 501 559 501 496 c 2
 501 474 l 1
 528 500 547 539 557 590 c 1
 611 590 l 2
 671 590 701 559 701 496 c 2
 701 0 l 1
 647 0 l 1
 647 492 l 2
 647 523 631 540 600 542 c 1
 578 475 545 431 501 409 c 1
 501 0 l 1
 447 0 l 1
 447 492 l 2
 447 523 431 540 400 542 c 1xef
 365 443 307 394 226 394 c 0
 107 394 81 461 81 505 c 0
 81 561 126 602 177 602 c 256xdf
176 463 m 256
 203 463 221 481 221 507 c 256
 221 532 203 552 176 552 c 256xdf
 141 552 132 523 132 507 c 256
 132 481 150 463 176 463 c 256
EndSplineSet
EndChar

StartChar: uni0E5B
Encoding: 3675 3675 300
Width: 1048
VWidth: 1504
Flags: W
HStem: 36 50<244.104 405.01> 194 41<285.603 356.832> 253 16<917.913 973.975> 319 41<286.363 357.874> 465 15<245 256 283 294.453 326 335.934> 465 6<232.347 238.998 242 245 256 259 263 277 280 283 305.69 319.609 323 326> 472 18<224.916 235.062> 481 9<236 239 283 291.796 326 334.888> 492 19<221.316 298.437 242 245 256 259 263 266 280 294.453 263.588 338.297 323 337.609 343 346 353 357.969>
VStem: 116 54<167.326 390.866> 224 18<472.562 489.438> 239 3<471 478 484 484> 241 39<240.647 313.512> 245 11<471 481 483 492> 259 4<471 492> 266 14<474 492> 277 3<471 474> 283 9<481.204 489.888> 295 10<482.906 491.225> 308 9<472.211 477 486 489.888> 319 4<471.475 477 477 480.094 486 491.625> 326 17<471 480> 326 9<481.023 489.988> 338 5<480.475 491.525> 387 52<330.976 350.385 340.68 438.624> 501 41<197.661 323> 721 96<242.643 325.592 326.502 382> 728 26<290.455 331>
LayerCount: 2
Fore
SplineSet
292 486 m 256xf1c078c0
 292 483 290 481 287 481 c 2
 283 481 l 1
 283 490 l 1
 287 490 l 2
 290 490 292 489 292 486 c 256xf1c078c0
295 486 m 256
 295 490 292 492 287 492 c 2
 280 492 l 1xf8c178c0
 280 471 l 1
 283 471 l 1xf4c0f8c0
 283 480 l 1
 287 480 l 2xf8c0f8c0
 292 480 295 482 295 486 c 256
335 486 m 256xf1c07ac0
 335 483 334 481 331 481 c 2
 326 481 l 1
 326 490 l 1
 331 490 l 2
 334 490 335 489 335 486 c 256xf1c07ac0
277 471 m 1xf4c2f8c0
 277 474 l 1xf4c2f8c0
 266 474 l 1
 266 492 l 1xf4c178c0
 263 492 l 1
 263 471 l 1
 277 471 l 1xf4c2f8c0
239 478 m 1xf5d078c0
 236 478 l 1
 236 474 234 472 230 472 c 256xf6d078c0
 226 472 224 475 224 481 c 256xf1e078c0
 224 487 226 490 230 490 c 0xf2e078c0
 233 490 235 488 236 484 c 1
 239 484 l 1
 237 489 234 492 230 492 c 0
 224 492 221 488 221 481 c 256
 221 474 224 471 230 471 c 256
 236 471 239 473 239 478 c 1xf5d078c0
320 477 m 1
 317 480 313 483 308 486 c 1
 308 489 310 490 313 490 c 1xf5c078c0
 315 488 316 487 316 486 c 1
 319 486 l 1
 319 490 317 492 313 492 c 0
 308 492 305 490 305 486 c 1
 308 483 312 480 317 477 c 1
 317 474 316 472 313 472 c 256
 310 472 308 474 308 478 c 1
 305 478 l 1
 305 473 308 471 313 471 c 256
 318 471 320 473 320 477 c 1
259 471 m 1xf5d678c0
 259 492 l 1
 256 492 l 1
 256 483 l 1
 245 483 l 1
 245 492 l 1
 242 492 l 1
 242 471 l 1
 245 471 l 1
 245 481 l 1
 256 481 l 1
 256 471 l 1
 259 471 l 1xf5d678c0
358 471 m 1
 350 483 l 1
 358 492 l 1
 353 492 l 1
 346 481 l 1
 346 492 l 1
 343 492 l 1xf5c079c0
 343 471 l 1xf5c07cc0
 346 471 l 1
 346 478 l 1
 349 481 l 1
 353 471 l 1
 358 471 l 1
338 486 m 256
 338 490 336 492 331 492 c 2
 323 492 l 1
 323 471 l 1
 326 471 l 1xf4c07cc0
 326 480 l 1
 331 480 l 2xf8c07cc0
 336 480 338 482 338 486 c 256
827 349 m 1
 856 342 913 269 999 269 c 2
 1006 269 l 1
 986 258 966 253 945 253 c 0
 912 253 882 265 857 290 c 1
 851 242 837 215 815 208 c 1
 793 208 772 311 754 331 c 1xf4c078d0
 754 239 740 193 713 193 c 0
 697 193 678 296 656 323 c 1
 650 225 631 176 599 176 c 0
 584 176 559 301 542 323 c 1
 542 132 467 36 317 36 c 0
 187 36 116 134 116 275 c 0
 116 411 169 511 293 511 c 0
 385 511 439 452 439 356 c 0
 439 265 400 194 322 194 c 0
 275 194 241 235 241 277 c 0
 241 320 273 360 322 360 c 0
 348 360 370 350 387 329 c 1
 387 332 l 1
 389 342 390 354 390 369 c 0
 390 433 359 465 298 465 c 0
 204 465 170 373 170 268 c 0
 170 153 234 86 317 86 c 0
 448 86 501 191 501 334 c 0
 501 365 499 389 496 405 c 1
 553 394 590 340 609 245 c 1
 618 274 623 302 623 329 c 0
 623 348 619 373 611 402 c 1
 653 390 690 346 721 271 c 1xf4c878e0
 726 296 728 314 728 326 c 0xf4c078d0
 728 335 726 354 721 382 c 1
 764 370 796 328 817 256 c 1xf4c078e0
 827 269 832 286 832 308 c 0
 832 320 830 334 827 349 c 1
322 235 m 256
 343 235 364 254 364 277 c 256
 364 297 345 319 322 319 c 256
 298 319 280 298 280 277 c 256xf0c878c0
 280 253 300 235 322 235 c 256
EndSplineSet
EndChar

StartChar: zerowidthnonjoiner
Encoding: 8204 8204 301
Width: 0
VWidth: 1504
Flags: W
LayerCount: 2
Back
SplineSet
23 -232 m 1
 -21 -232 l 1
 -21 576 l 1
 23 576 l 1
 23 -232 l 1
EndSplineSet
EndChar

StartChar: zerowidthjoiner
Encoding: 8205 8205 302
Width: 0
VWidth: 1504
Flags: W
LayerCount: 2
Back
SplineSet
23 -232 m 1
 -21 -232 l 1
 -21 442 l 1
 -51 412 l 1
 -77 438 l 1
 -21 493 l 1
 -77 552 l 1
 -50 576 l 1
 0 520 l 1
 51 576 l 1
 78 552 l 1
 23 493 l 1
 78 438 l 1
 51 412 l 1
 23 442 l 1
 23 -232 l 1
EndSplineSet
EndChar

StartChar: lefttorightmark
Encoding: 8206 8206 303
Width: 0
VWidth: 1504
Flags: W
LayerCount: 2
Back
SplineSet
23 -232 m 1
 -21 -232 l 1
 -21 523 l 1
 168 523 l 1
 143 551 l 1
 167 575 l 1
 245 496 l 1
 167 418 l 1
 143 444 l 1
 168 471 l 1
 23 471 l 1
 23 -232 l 1
EndSplineSet
EndChar

StartChar: righttoleftmark
Encoding: 8207 8207 304
Width: 0
VWidth: 1504
Flags: W
LayerCount: 2
Back
SplineSet
23 -232 m 1
 -21 -232 l 1
 -21 471 l 1
 -167 471 l 1
 -141 444 l 1
 -165 418 l 1
 -244 496 l 1
 -165 575 l 1
 -163 571.667 -159.5 567.5 -154.5 562.5 c 0
 -149.5 557.5 -145 553.667 -141 551 c 1
 -167 523 l 1
 23 523 l 1
 23 -232 l 1
EndSplineSet
EndChar

StartChar: endash
Encoding: 8211 8211 305
Width: 541
VWidth: 1504
Flags: MW
HStem: 248 50<32 508>
LayerCount: 2
Fore
SplineSet
508 248 m 1
 32 248 l 1
 32 298 l 1
 508 298 l 1
 508 248 l 1
EndSplineSet
EndChar

StartChar: emdash
Encoding: 8212 8212 306
Width: 1083
VWidth: 1504
Flags: MW
HStem: 248 50<33 1045>
LayerCount: 2
Fore
SplineSet
1045 248 m 1
 33 248 l 1
 33 298 l 1
 1045 298 l 1
 1045 248 l 1
EndSplineSet
EndChar

StartChar: quoteleft
Encoding: 8216 8216 307
Width: 371
VWidth: 1504
Flags: MW
VStem: 110 52<614 659.955>
LayerCount: 2
Fore
SplineSet
170 615 m 2
 197 615 224 591 224 561 c 0
 224 528 198 502 168 502 c 0
 137 502 110 527 110 561 c 0
 110 689 202 760 230 775 c 1
 253 749 l 1
 196 713 166 668 162 614 c 1
 168 615 170 615 170 615 c 2
EndSplineSet
EndChar

StartChar: quoteright
Encoding: 8217 8217 308
Width: 371
VWidth: 1504
Flags: W
HStem: 644 113<150.358 198.848>
VStem: 200 53<594.87 645>
LayerCount: 2
Fore
SplineSet
138 698 m 0
 138 732 164 757 194 757 c 0
 229 757 253 732 253 698 c 0
 253 570 163 500 132 484 c 1
 110 510 l 1
 166 546 196 591 200 645 c 1
 194 644 193 644 193 644 c 1
 162 644 138 671 138 698 c 0
EndSplineSet
EndChar

StartChar: quotesinglbase
Encoding: 8218 8218 309
Width: 371
VWidth: 1504
Flags: W
HStem: -8 113<150.57 198.72>
VStem: 200 53<-56.2493 -6>
LayerCount: 2
Fore
SplineSet
194 105 m 0
 228 105 253 82 253 47 c 0
 253 -83 164 -151 132 -167 c 1
 110 -141 l 1
 166 -105 196 -60 200 -6 c 1
 196 -7 193 -8 190 -8 c 0
 148 -8 138 28 138 47 c 0
 138 80 164 105 194 105 c 0
EndSplineSet
EndChar

StartChar: quotedblleft
Encoding: 8220 8220 310
Width: 556
VWidth: 1504
Flags: W
HStem: 502 113<171.28 218.798 344.24 348.138 348.138 392.757>
VStem: 117 53<614 660.767> 292 52<614 659.955>
LayerCount: 2
Fore
SplineSet
352 615 m 2
 379 615 406 591 406 561 c 0
 406 528 380 502 350 502 c 0
 319 502 292 527 292 561 c 0
 292 689 384 760 412 775 c 1
 435 749 l 1
 378 713 348 668 344 614 c 1
 350 615 352 615 352 615 c 2
177 615 m 1
 208 615 232 588 232 561 c 0
 232 528 206 502 176 502 c 0
 142 502 117 530 117 561 c 0
 117 690 212 762 238 775 c 1
 260 749 l 1
 204 713 174 668 170 614 c 1
 176 615 177 615 177 615 c 1
EndSplineSet
EndChar

StartChar: quotedblright
Encoding: 8221 8221 311
Width: 556
VWidth: 1504
Flags: W
HStem: 644 113<159.243 203.862 203.862 206.842 333.202 380.72>
VStem: 208 52<598.164 645> 382 53<599.231 645>
LayerCount: 2
Fore
SplineSet
202 757 m 0
 237 757 260 732 260 698 c 0
 260 568 167 499 140 484 c 1
 117 510 l 1
 174 546 204 591 208 645 c 1
 202 644 200 644 200 644 c 2
 173 644 146 668 146 698 c 0
 146 731 172 757 202 757 c 0
376 757 m 0
 410 757 435 734 435 698 c 0
 435 570 344 500 314 484 c 1
 292 510 l 1
 348 546 378 591 382 645 c 1
 376 644 375 644 375 644 c 1
 344 644 320 671 320 698 c 0
 320 731 346 757 376 757 c 0
EndSplineSet
EndChar

StartChar: quotedblbase
Encoding: 8222 8222 312
Width: 556
VWidth: 1504
Flags: W
HStem: -8 113<158.407 206.842 332.57 380.72>
VStem: 208 52<-55.9285 -6> 382 53<-56.2493 -6>
LayerCount: 2
Fore
SplineSet
202 105 m 0
 237 105 260 79 260 47 c 0
 260 -81 172 -150 140 -167 c 1
 117 -141 l 1
 174 -105 204 -60 208 -6 c 1
 204 -7 200 -8 197 -8 c 0
 156 -8 146 26 146 47 c 0
 146 80 172 105 202 105 c 0
376 105 m 0
 410 105 435 82 435 47 c 0
 435 -83 346 -151 314 -167 c 1
 292 -141 l 1
 348 -105 378 -60 382 -6 c 1
 378 -7 375 -8 372 -8 c 0
 330 -8 320 28 320 47 c 0
 320 80 346 105 376 105 c 0
EndSplineSet
EndChar

StartChar: dagger
Encoding: 8224 8224 313
Width: 562
VWidth: 1504
Flags: W
HStem: 435 49<59 156.5 156.5 156.5 156.5 254 308 406 406 406 406 504>
VStem: 254 54<-51 441 478 713>
LayerCount: 2
Fore
SplineSet
504 484 m 1
 504 435 l 1
 308 441 l 1
 308 -51 l 1
 254 -51 l 1
 254 441 l 1
 59 435 l 1
 59 484 l 1
 254 478 l 1
 254 713 l 1
 308 713 l 1
 308 478 l 1
 504 484 l 1
EndSplineSet
EndChar

StartChar: daggerdbl
Encoding: 8225 8225 314
Width: 562
VWidth: 1504
Flags: W
HStem: 168 50<59 156.5 156.5 156.5 156.5 254 308 406 406 406 406 504> 435 49<59 156.5 156.5 156.5 156.5 254 308 406 406 406 406 504>
VStem: 254 54<-51 174 212 441 478 713>
LayerCount: 2
Fore
SplineSet
504 484 m 1
 504 435 l 1
 308 441 l 1
 308 212 l 1
 504 218 l 1
 504 168 l 1
 308 174 l 1
 308 -51 l 1
 254 -51 l 1
 254 174 l 1
 59 168 l 1
 59 218 l 1
 254 212 l 1
 254 441 l 1
 59 435 l 1
 59 484 l 1
 254 478 l 1
 254 713 l 1
 308 713 l 1
 308 478 l 1
 504 484 l 1
EndSplineSet
EndChar

StartChar: bullet
Encoding: 8226 8226 315
Width: 324
VWidth: 1504
Flags: W
HStem: 174 253<92.1351 231.717>
VStem: 36 253<229.176 370.311>
LayerCount: 2
Fore
SplineSet
162 427 m 0
 235 427 289 368 289 301 c 0
 289 229 233 174 162 174 c 256
 93 174 36 229 36 301 c 256
 36 369 88 427 162 427 c 0
EndSplineSet
EndChar

StartChar: ellipsis
Encoding: 8230 8230 316
Width: 720
VWidth: 1504
Flags: W
HStem: -9 104<79.3116 161.803 320.312 402.803 559.312 641.803>
VStem: 69 104<1.47482 83.8031> 310 104<1.47482 83.8031> 549 104<1.47482 83.8031>
LayerCount: 2
Fore
SplineSet
120 95 m 256
 150 95 173 69 173 42 c 256
 173 12 147 -9 120 -9 c 256
 90 -9 69 15 69 42 c 256
 69 69 90 95 120 95 c 256
361 95 m 256
 391 95 414 69 414 42 c 256
 414 12 388 -9 361 -9 c 256
 331 -9 310 15 310 42 c 256
 310 69 331 95 361 95 c 256
600 95 m 256
 630 95 653 69 653 42 c 256
 653 12 627 -9 600 -9 c 256
 570 -9 549 15 549 42 c 256
 549 69 570 95 600 95 c 256
EndSplineSet
EndChar

StartChar: perthousand
Encoding: 8240 8240 317
Width: 1246
VWidth: 1504
Flags: W
HStem: -5 49<597.378 722.77 970.378 1095.77> 289 48<149.23 274.77> 375 48<597.378 722.77 970.378 1095.77> 668 48<149.23 274.77>
VStem: 51 54<389.441 615.307> 319 54<389.441 615.307> 499 55<94.6738 323.744> 767 54<96.1039 322.307> 872 55<94.6738 323.744> 1140 54<96.1039 322.307>
LayerCount: 2
Fore
SplineSet
623 716 m 1
 674 716 l 1
 238 -14 l 1
 187 -14 l 1
 623 716 l 1
1194 209 m 256
 1194 66 1140 -5 1033 -5 c 256
 926 -5 872 66 872 209 c 256
 872 352 926 423 1033 423 c 256
 1140 423 1194 352 1194 209 c 256
373 502 m 256
 373 360 319 289 212 289 c 256
 105 289 51 360 51 502 c 256
 51 645 105 716 212 716 c 256
 319 716 373 645 373 502 c 256
319 502 m 256
 319 613 283 668 212 668 c 256
 141 668 105 613 105 502 c 256
 105 392 141 337 212 337 c 256
 283 337 319 392 319 502 c 256
1140 209 m 256
 1140 320 1104 375 1033 375 c 256
 962 375 927 320 927 209 c 256
 927 99 962 44 1033 44 c 256
 1104 44 1140 99 1140 209 c 256
821 209 m 256
 821 66 767 -5 660 -5 c 256
 553 -5 499 66 499 209 c 256
 499 352 553 423 660 423 c 256
 767 423 821 352 821 209 c 256
767 209 m 256
 767 320 731 375 660 375 c 256
 589 375 554 320 554 209 c 256
 554 99 589 44 660 44 c 256
 731 44 767 99 767 209 c 256
EndSplineSet
EndChar

StartChar: minute
Encoding: 8242 8242 318
Width: 188
VWidth: 1504
Flags: W
HStem: 558 158<63 80 80 80>
LayerCount: 2
Fore
SplineSet
63 558 m 1
 23 558 l 1
 80 716 l 1
 162 716 l 1
 63 558 l 1
EndSplineSet
EndChar

StartChar: second
Encoding: 8243 8243 319
Width: 321
VWidth: 1504
Flags: W
HStem: 558 158<63 80 80 80>
LayerCount: 2
Fore
SplineSet
63 558 m 1
 23 558 l 1
 80 716 l 1
 162 716 l 1
 63 558 l 1
197 558 m 1
 156 558 l 1
 214 716 l 1
 296 716 l 1
 197 558 l 1
EndSplineSet
EndChar

StartChar: guilsinglleft
Encoding: 8249 8249 320
Width: 275
VWidth: 1504
Flags: MW
LayerCount: 2
Fore
SplineSet
184 72 m 1
 17 266 l 1
 182 465 l 1
 245 465 l 1
 80 266 l 1
 247 72 l 1
 184 72 l 1
EndSplineSet
EndChar

StartChar: guilsinglright
Encoding: 8250 8250 321
Width: 275
VWidth: 1504
Flags: MW
LayerCount: 2
Fore
SplineSet
92 72 m 1
 29 72 l 1
 196 266 l 1
 30 465 l 1
 93 465 l 1
 259 266 l 1
 92 72 l 1
EndSplineSet
EndChar

StartChar: fraction
Encoding: 8260 8260 322
Width: 243
VWidth: 1504
Flags: MW
HStem: 0 21G<-54 8.32402> 696 20G<235.676 298>
LayerCount: 2
Fore
SplineSet
0 0 m 1
 -54 0 l 1
 244 716 l 1
 298 716 l 1
 0 0 l 1
EndSplineSet
EndChar

StartChar: Euro
Encoding: 8364 8364 323
Width: 610
VWidth: 1504
Flags: W
HStem: -11 52<273.685 519.111> 226 48<0 42 117 489> 426 48<0 39 111 489> 675 52<271.383 519.111>
VStem: 35 60<302.219 422.045> 50 61<489.946 587.104>
LayerCount: 2
Fore
SplineSet
117 226 m 1xf8
 158 120 256 41 378 41 c 0
 440 41 498 52 552 75 c 1
 570 27 l 1
 517 2 452 -11 375 -11 c 0
 213 -11 98 90 56 226 c 1
 0 226 l 1
 0 274 l 1
 42 274 l 1
 37 304 35 333 35 360 c 0xf8
 35 383 36 405 39 426 c 1
 0 426 l 1
 0 474 l 1
 50 474 l 1
 89 618 208 727 375 727 c 0
 452 727 517 714 570 689 c 1
 552 641 l 1
 498 664 440 675 378 675 c 0
 246 675 148 588 111 474 c 1xf4
 489 474 l 1
 489 426 l 1
 99 426 l 1
 96 405 95 382 95 358 c 0
 95 328 98 300 104 274 c 1
 489 274 l 1
 489 226 l 1
 117 226 l 1xf8
EndSplineSet
EndChar

StartChar: uni2113
Encoding: 8467 8467 324
Width: 314
VWidth: 1504
Flags: W
HStem: -5 56<161.277 236.993> 627 47<165.879 214.86>
VStem: 107 51<52.1719 296 388 624.781> 223 48<444.308 623.308>
LayerCount: 2
Fore
SplineSet
271 560 m 0
 271 446 228 371 158 326 c 1
 158 99 l 2
 158 67 168 51 188 51 c 0
 206 51 233 64 269 89 c 1
 269 33 l 1
 224 9 191 -5 171 -5 c 0
 128 -5 107 30 107 101 c 2
 107 296 l 1
 60 265 l 1
 33 307 l 1
 107 358 l 1
 107 548 l 2
 107 632 133 674 185 674 c 0
 254 674 271 610 271 560 c 0
158 388 m 1
 181 409 223 452 223 549 c 0
 223 611 209 627 188 627 c 0
 168 627 158 601 158 548 c 2
 158 388 l 1
EndSplineSet
EndChar

StartChar: trademark
Encoding: 8482 8482 325
Width: 759
VWidth: 1504
Flags: MW
HStem: 698 42<21 152 197 328>
VStem: 152 45<364 698>
LayerCount: 2
Fore
SplineSet
328 698 m 1
 197 698 l 1
 197 364 l 1
 152 364 l 1
 152 698 l 1
 21 698 l 1
 21 740 l 1
 328 740 l 1
 328 698 l 1
734 364 m 1
 687 364 l 1
 669 662 l 1
 552 364 l 1
 519 364 l 1
 402 662 l 1
 384 364 l 1
 337 364 l 1
 363 740 l 1
 412 740 l 1
 535 423 l 1
 659 740 l 1
 708 740 l 1
 734 364 l 1
EndSplineSet
EndChar

StartChar: Ohm
Encoding: 8486 8486 326
Width: 681
VWidth: 1504
Flags: W
HStem: 0 50<53 227 453 627> 621 51<245.117 434.683>
VStem: 71 58<297.151 504.266> 227 54<50 138> 399 54<50 138> 551 58<297.222 504.467>
LayerCount: 2
Fore
SplineSet
609 396 m 0
 609 253 515 163 453 138 c 1
 453 50 l 1
 627 50 l 1
 627 0 l 1
 399 0 l 1
 399 173 l 1
 500 221 551 297 551 400 c 0
 551 532 463 621 340 621 c 256
 217 621 129 532 129 400 c 0
 129 297 180 221 281 173 c 1
 281 0 l 1
 53 0 l 1
 53 50 l 1
 227 50 l 1
 227 138 l 1
 166 162 71 253 71 396 c 0
 71 580 184 672 340 672 c 256
 495 672 609 581 609 396 c 0
EndSplineSet
EndChar

StartChar: estimated
Encoding: 8494 8494 327
Width: 470
VWidth: 1504
Flags: W
HStem: -11 50<174.545 305.912> 292 43<108 370> 528 50<172.972 302.513>
VStem: 47 60<135.524 292 335 437.938> 360 55<69.5012 155>
LayerCount: 2
Fore
SplineSet
370 335 m 1
 361 458 318 528 239 528 c 0
 187 528 122 502 108 335 c 1
 370 335 l 1
47 301 m 0
 47 523 162 578 239 578 c 0
 378 578 421 440 424 292 c 1
 107 292 l 1
 110 163 133 39 239 39 c 0
 307 39 347 90 360 155 c 1
 415 155 l 1
 391 44 332 -11 239 -11 c 0
 85 -11 47 140 47 301 c 0
EndSplineSet
EndChar

StartChar: partialdiff
Encoding: 8706 8706 328
Width: 476
VWidth: 1504
Flags: W
HStem: -8 62<130.581 248.903> 373 53<234.135 355.703 355.638 355.768 355.768 370> 520 21G<153.517 199.5> 624 57<236.281 332.909>
VStem: 42 65<78.4893 246.043> 370 63<259.891 372 424 570.171>
LayerCount: 2
Fore
SplineSet
42 152 m 0
 42 316 167 426 341 426 c 0
 354 426 365 425 372 424 c 1
 370 557 342 624 289 624 c 0
 245 624 211 589 188 520 c 1
 138 549 l 1
 175 637 224 681 287 681 c 0
 384 681 433 595 433 424 c 0
 433 195 354 -8 170 -8 c 0
 98 -8 42 49 42 152 c 0
341 373 m 0
 186 373 107 262 107 152 c 0
 107 87 134 54 187 54 c 0
 242 54 287 96 323 179 c 0
 352 243 367 307 370 372 c 1
 363 373 354 373 341 373 c 0
EndSplineSet
EndChar

StartChar: Delta
Encoding: 8710 8710 329
Width: 712
VWidth: 1504
Flags: W
HStem: 0 53<96 617>
LayerCount: 2
Fore
SplineSet
617 53 m 1
 356 575 l 1
 96 53 l 1
 617 53 l 1
713 0 m 1
 0 0 l 1
 356 710 l 1
 713 0 l 1
EndSplineSet
EndChar

StartChar: product
Encoding: 8719 8719 330
Width: 670
VWidth: 1504
Flags: W
HStem: 666 50<140 531>
VStem: 81 59<-83 666> 531 59<-83 666>
LayerCount: 2
Fore
SplineSet
590 -83 m 1
 531 -83 l 1
 531 666 l 1
 140 666 l 1
 140 -83 l 1
 81 -83 l 1
 81 716 l 1
 590 716 l 1
 590 -83 l 1
EndSplineSet
EndChar

StartChar: summation
Encoding: 8721 8721 331
Width: 618
VWidth: 1504
Flags: W
HStem: -83 50<99 597> 666 50<99 575>
LayerCount: 2
Fore
SplineSet
597 -83 m 1
 38 -83 l 1
 38 -15 l 1
 337 328 l 1
 38 651 l 1
 38 716 l 1
 575 716 l 1
 575 666 l 1
 99 666 l 1
 394 346 l 1
 394 307 l 1
 99 -33 l 1
 597 -33 l 1
 597 -83 l 1
EndSplineSet
EndChar

StartChar: minus
Encoding: 8722 8722 332
Width: 618
VWidth: 1504
Flags: MW
HStem: 248 50<83 535>
LayerCount: 2
Fore
SplineSet
535 248 m 1
 83 248 l 1
 83 298 l 1
 535 298 l 1
 535 248 l 1
EndSplineSet
EndChar

StartChar: radical
Encoding: 8730 8730 333
Width: 526
VWidth: 1504
Flags: MW
HStem: -15 21G<219.629 279.007> 346 42<35 111>
LayerCount: 2
Fore
SplineSet
272 -15 m 1
 226 -15 l 1
 111 346 l 1
 35 346 l 1
 35 388 l 1
 152 388 l 1
 251 59 l 1
 474 710 l 1
 526 710 l 1
 272 -15 l 1
EndSplineSet
EndChar

StartChar: infinity
Encoding: 8734 8734 334
Width: 929
VWidth: 1504
Flags: W
HStem: 161 44<174.865 329.068 604.894 757.54> 447 42<173.476 324.207 605.363 750.642>
VStem: 80 46<256.363 400.404> 803 47<248.93 395.994>
LayerCount: 2
Fore
SplineSet
126 331 m 0
 126 256 172 205 254 205 c 0
 334 205 405 283 432 332 c 1
 363 409 303 447 253 447 c 0
 151 447 126 375 126 331 c 0
677 489 m 0
 780 489 850 425 850 316 c 0
 850 253 816 161 678 161 c 0
 607 161 534 207 459 298 c 1
 399 207 330 161 253 161 c 0
 150 161 80 225 80 334 c 0
 80 394 111 489 251 489 c 0
 316 489 389 444 469 353 c 1
 532 444 601 489 677 489 c 0
677 203 m 0
 778 203 803 275 803 319 c 0
 803 373 777 445 675 445 c 0
 599 445 528 372 498 317 c 1
 567 241 627 203 677 203 c 0
EndSplineSet
EndChar

StartChar: integral
Encoding: 8747 8747 335
Width: 364
VWidth: 1504
Flags: MW
HStem: -155 50<-39.1685 51> -147 48<-48.6057 -6.08355> 675 50<259.639 347.692 346.138 349.246 349.246 358>
LayerCount: 2
Fore
SplineSet
132 -17 m 2
 117 -109 74 -155 3 -155 c 0
 -21 -155 -42 -152 -59 -147 c 1
 -51 -99 l 1
 -39 -104 -21 -106 2 -105 c 0
 44 -102 70 -75 80 -24 c 2
 176 591 l 2
 189 680 236 725 316 725 c 0
 337 725 354 724 369 721 c 1
 358 674 l 1
 353 675 345 675 334 675 c 0
 250 675 235 629 229 588 c 2
 132 -17 l 2
EndSplineSet
EndChar

StartChar: approxequal
Encoding: 8776 8776 336
Width: 618
VWidth: 1504
Flags: W
HStem: 113 52<358.489 483.422> 211 49<136.393 263.061> 313 53<356.673 483.978> 411 49<136.393 263.061>
VStem: 68 46<113 187.433 313 387.433> 504 47<184.719 260 388.453 460>
LayerCount: 2
Fore
SplineSet
188 460 m 0
 289 460 339 366 436 366 c 0
 479 366 502 397 504 460 c 1
 551 460 l 1
 551 336 480 313 433 313 c 0
 331 313 283 411 188 411 c 0
 141 411 116 378 114 313 c 1
 68 313 l 1
 68 444 151 460 188 460 c 0
188 260 m 0
 289 260 339 165 436 165 c 0
 479 165 502 197 504 260 c 1
 551 260 l 1
 551 136 480 113 433 113 c 0
 331 113 283 211 188 211 c 0
 141 211 116 178 114 113 c 1
 68 113 l 1
 68 244 151 260 188 260 c 0
EndSplineSet
EndChar

StartChar: notequal
Encoding: 8800 8800 337
Width: 618
VWidth: 1504
Flags: W
HStem: -14 21G<134 200.701> 153 50<83 215 298 535 83 535 83 83> 349 50<83 310 394 535>
LayerCount: 2
Fore
SplineSet
535 203 m 1
 535 153 l 1
 272 153 l 1
 191 -14 l 1
 134 -14 l 1
 215 153 l 1
 83 153 l 1
 83 203 l 1
 239 203 l 1
 310 349 l 1
 83 349 l 1
 83 399 l 1
 334 399 l 1
 399 532 l 1
 460 532 l 1
 394 399 l 1
 535 399 l 1
 535 349 l 1
 370 349 l 1
 298 203 l 1
 535 203 l 1
EndSplineSet
EndChar

StartChar: lessequal
Encoding: 8804 8804 338
Width: 618
VWidth: 1504
Flags: MW
HStem: 24 45<86 531>
LayerCount: 2
Fore
SplineSet
531 24 m 1
 86 24 l 1
 86 69 l 1
 531 69 l 1
 531 24 l 1
495 84 m 1
 117 263 l 1
 117 334 l 1
 495 513 l 1
 495 456 l 1
 170 298 l 1
 495 140 l 1
 495 84 l 1
EndSplineSet
EndChar

StartChar: greaterequal
Encoding: 8805 8805 339
Width: 618
VWidth: 1504
Flags: MW
HStem: 24 45<86 531>
LayerCount: 2
Fore
SplineSet
531 24 m 1
 86 24 l 1
 86 69 l 1
 531 69 l 1
 531 24 l 1
495 263 m 1
 117 84 l 1
 117 140 l 1
 442 298 l 1
 117 456 l 1
 117 513 l 1
 495 334 l 1
 495 263 l 1
EndSplineSet
EndChar

StartChar: lozenge
Encoding: 9674 9674 340
Width: 580
VWidth: 1504
Flags: MW
HStem: 0 21G<244.973 336.027> 579 20G<245.113 335.887>
VStem: 50 49<298 298> 481 50<298 298>
LayerCount: 2
Fore
SplineSet
531 298 m 1
 322 0 l 1
 259 0 l 1
 50 298 l 1
 259 599 l 1
 322 599 l 1
 531 298 l 1
481 298 m 1
 290 572 l 1
 99 298 l 1
 290 24 l 1
 481 298 l 1
EndSplineSet
EndChar

StartChar: dottedcircle
Encoding: 9676 9676 341
Width: 601
VWidth: 1504
Flags: W
HStem: 33 57<271.949 327.086> 51 56<190.595 232.051 367.914 422.217> 104 55<98.6359 152.361 460.595 501.496> 187 55<45.6359 100.257 499.743 554.496> 281 56<26.7828 67.4052 519.783 574.086> 373 56<45.7828 100.086 498.949 553.034> 456 55<98.5039 139.405 445.743 500.364> 508 56<177.787 219.405 366.787 420.217> 525 57<271.949 327.086>
VStem: 26 55<281.636 336.257> 45 56<200.595 241.217 373.783 428.086> 98 55<117.595 158.496 456.636 510.361> 177 56<51.6309 106.364 508.636 563.451> 271 57<33.9758 89.0505 525.976 581.051> 367 56<52.1013 105.879 508.504 563.451> 447 55<105.127 157.879 456.783 497.405> 499 56<188.127 240.879 386.072 414.17> 519 56<281.783 336.086>
LayerCount: 2
Fore
SplineSet
299 582 m 256x1c8e
 314 582 328 571 328 554 c 256
 328 537 315 525 299 525 c 256
 282 525 271 539 271 554 c 256
 271 571 284 582 299 582 c 256x1c8e
299 90 m 256x9c0e
 314 90 328 79 328 62 c 256
 328 45 315 33 299 33 c 256
 282 33 271 47 271 62 c 256
 271 79 284 90 299 90 c 256x9c0e
53 337 m 256
 70 337 81 323 81 308 c 256
 81 286 63 281 53 281 c 256
 37 281 26 292 26 308 c 256x1c4e
 26 324 37 337 53 337 c 256
546 337 m 256
 563 337 575 324 575 308 c 256
 575 292 562 281 546 281 c 256
 530 281 519 292 519 308 c 256x1c0e40
 519 324 530 337 546 337 c 256
72 429 m 256
 89 429 101 416 101 400 c 256
 101 384 88 373 72 373 c 256
 56 373 45 384 45 400 c 256x1c2e
 45 416 56 429 72 429 c 256
125 511 m 256x1e1e
 142 511 153 498 153 483 c 256
 153 461 135 456 125 456 c 256
 109 456 98 467 98 483 c 256
 98 500 109 511 125 511 c 256x1e1e
205 564 m 256x1d0e
 222 564 233 552 233 535 c 256
 233 513 215 508 205 508 c 256
 188 508 177 519 177 535 c 256
 177 552 188 564 205 564 c 256x1d0e
526 429 m 256
 548 429 554 410 554 400 c 256
 554 389 548 373 526 373 c 256
 509 373 498 384 498 400 c 256
 498 415 509 429 526 429 c 256
474 511 m 256x1e0e
 496 511 501 493 501 483 c 256
 501 467 490 456 474 456 c 256
 458 456 445 467 445 483 c 256
 445 500 459 511 474 511 c 256x1e0e
394 564 m 256x1d0e
 410 564 421 552 421 535 c 256
 421 519 410 508 394 508 c 256
 377 508 366 519 366 535 c 256
 366 552 377 564 394 564 c 256x1d0e
72 242 m 256
 88 242 101 231 101 215 c 256
 101 198 87 187 72 187 c 256
 50 187 45 205 45 215 c 256x1c2e
 45 231 56 242 72 242 c 256
125 159 m 256x3c1e
 142 159 153 148 153 132 c 256
 153 115 140 104 125 104 c 256
 103 104 98 122 98 132 c 256
 98 148 109 159 125 159 c 256x3c1e
205 107 m 256x5c0e
 222 107 233 96 233 80 c 256
 233 65 222 51 205 51 c 256
 188 51 177 65 177 80 c 256
 177 102 195 107 205 107 c 256x5c0e
528 242 m 256
 544 242 555 231 555 215 c 256
 555 198 544 187 528 187 c 256
 513 187 499 198 499 215 c 256x1c0e80
 499 231 512 242 528 242 c 256
475 159 m 256x3c0f
 491 159 502 148 502 132 c 256
 502 115 491 104 475 104 c 256
 458 104 447 117 447 132 c 256
 447 154 465 159 475 159 c 256x3c0f
396 107 m 256x5c0e
 412 107 423 96 423 80 c 256
 423 64 412 51 396 51 c 256
 379 51 367 64 367 80 c 256
 367 96 380 107 396 107 c 256x5c0e
EndSplineSet
EndChar

StartChar: uni0E10.alt1
Encoding: 63232 63232 342
Width: 515
VWidth: 1504
Flags: W
HStem: -14 50<255.963 355.805> 190 49<113.997 179.465> 319 50<115.215 185.261> 513 56<286.794 425.899> 549 53<142.84 310.467>
VStem: 60 50<243.204 314.587> 187 54<51.6064 196 243.85 313.862> 372 54<51.6064 358.767>
LayerCount: 2
Fore
SplineSet
108 481 m 1xef
 326 438 426 400 426 337 c 2
 426 119 l 2
 426 30 386 -14 305 -14 c 0
 226 -14 187 30 187 119 c 2
 187 196 l 1
 176 192 163 190 149 190 c 0
 99 190 60 225 60 277 c 0
 60 331 99 369 149 369 c 0
 201 369 241 336 241 280 c 2
 241 114 l 2
 241 62 262 36 305 36 c 0
 350 36 372 62 372 114 c 2
 372 332 l 2
 372 386 125 429 39 441 c 1
 45 526 106 602 220 602 c 0xef
 274 602 337 569 387 569 c 0xf7
 411 569 425 580 430 602 c 1xef
 477 591 l 1
 461 539 432 513 390 513 c 0xf7
 332 513 265 549 211 549 c 0
 163 549 112 517 108 481 c 1xef
149 239 m 256
 170 239 190 255 190 278 c 256
 190 302 170 319 149 319 c 256
 126 319 110 301 110 278 c 256
 110 257 126 239 149 239 c 256
EndSplineSet
EndChar

StartChar: uni0E48.alt1
Encoding: 63237 63237 347
Width: 0
VWidth: 1504
Flags: W
HStem: 722 21<-300 -244>
VStem: -300 56<722 939 722 939 722 722>
LayerCount: 2
Back
SplineSet
-244 707 m 1
 -299 707 l 1
 -299 924 l 1
 -244 924 l 1
 -244 707 l 1
EndSplineSet
Fore
Refer: 352 63242 N 1 0 0 1 -160 0 2
Substitution2: "Single Substitution lookup 42 subtable" uni0E48.alt3
Substitution2: "Single Substitution lookup 42 subtable" uni0E48.alt3
EndChar

StartChar: uni0E49.alt1
Encoding: 63238 63238 348
Width: 0
VWidth: 1504
Flags: W
HStem: 718 21<-442 -311> 761 21<-331 -286.5> 939 42<-398.797 -328.981>
VStem: -447 44<864.504 934.364> -325 40<865.109 934.998> -128 62<864.158 967>
LayerCount: 2
Back
SplineSet
-66 949 m 1
 -81.3333 853.667 -122.667 786.667 -190 748 c 0
 -244.667 715.333 -318.667 699 -412 699 c 2
 -442 699 l 1
 -442 731 l 1
 -403.333 747 -376.333 770 -361 800 c 1
 -418.333 807.333 -447 836 -447 886 c 0
 -447 908 -439 926.333 -423 941 c 128
 -407 955.667 -388 963 -366 963 c 0
 -340.667 963 -320.667 955 -306 939 c 128
 -291.333 923 -284 902.667 -284 878 c 0
 -284 822 -307 777 -353 743 c 1
 -219 753 -144 821.667 -128 949 c 1
 -66 949 l 1
-325 881 m 256
 -325 892.333 -328.667 901.833 -336 909.5 c 128
 -343.333 917.167 -352.667 921 -364 921 c 256
 -375.333 921 -384.667 917.167 -392 909.5 c 128
 -399.333 901.833 -403 892.333 -403 881 c 256
 -403 870.333 -399.333 861.167 -392 853.5 c 128
 -384.667 845.833 -375.333 842 -364 842 c 256
 -352.667 842 -343.333 845.833 -336 853.5 c 128
 -328.667 861.167 -325 870.333 -325 881 c 256
EndSplineSet
Fore
Refer: 353 63243 S 1 0 0 1 -95 0 2
Substitution2: "Single Substitution lookup 42 subtable" uni0E49.alt3
Substitution2: "Single Substitution lookup 42 subtable" uni0E49.alt3
EndChar

StartChar: uni0E4A.alt1
Encoding: 63239 63239 349
Width: 0
VWidth: 1504
Flags: W
HStem: 702 41<-455.667 -388.327> 817 43<-447.407 -388.362> 906 43<-391 -391>
VStem: -507 48<746.869 812.93> -385 42<746.402 813.523> -251 42<767.76 888.866> -138 51<823.688 936>
LayerCount: 2
Back
SplineSet
-87 949 m 1
 -92.3333 792.333 -167.667 714 -313 714 c 1
 -313 749 l 1
 -271.667 769 -251 802.667 -251 850 c 0
 -251 886 -268 908.667 -302 918 c 1
 -347 869 l 1
 -391 919 l 1
 -400.333 918.333 -412 912.667 -426 902 c 128
 -440 891.333 -448.333 881 -451 871 c 1
 -437 873 -428 874 -424 874 c 0
 -370 870.667 -343 843.667 -343 793 c 0
 -347.667 741.667 -374.333 716 -423 716 c 0
 -449.667 716 -470.333 725.5 -485 744.5 c 128
 -499.667 763.5 -507 787 -507 815 c 0
 -507 852.333 -494.5 886.333 -469.5 917 c 128
 -444.5 947.667 -415.333 963 -382 963 c 1
 -346 915 l 1
 -310 963 l 1
 -278.667 961.667 -254 950.833 -236 930.5 c 128
 -218 910.167 -209 884.333 -209 853 c 0
 -209 815.667 -220 784.667 -242 760 c 1
 -219.333 762 -197.667 777 -177 805 c 0
 -151 841.667 -138 889.667 -138 949 c 1
 -87 949 l 1
-385 793 m 256
 -385 803.667 -388.5 812.5 -395.5 819.5 c 128
 -402.5 826.5 -411 830 -421 830 c 256
 -431 830 -439.833 826.5 -447.5 819.5 c 128
 -455.167 812.5 -459 803.667 -459 793 c 256
 -459 781.667 -455.167 772.833 -447.5 766.5 c 128
 -439.833 760.167 -431 757 -421 757 c 256
 -411 757 -402.5 760.167 -395.5 766.5 c 128
 -388.5 772.833 -385 781.667 -385 793 c 256
EndSplineSet
Fore
Refer: 354 63244 S 1 0 0 1 -75 0 2
Substitution2: "Single Substitution lookup 42 subtable" uni0E4A.alt3
Substitution2: "Single Substitution lookup 42 subtable" uni0E4A.alt3
EndChar

StartChar: uni0E4B.alt1
Encoding: 63240 63240 350
Width: 0
VWidth: 1504
Flags: W
HStem: 716 21<-343 -289> 800 45<-429 -343 -289 -203>
VStem: -343 54<716 800 845 925 716 925 716 716>
LayerCount: 2
Back
SplineSet
-203 791 m 1
 -289 791 l 1
 -289 707 l 1
 -340 707 l 1
 -340 791 l 1
 -426 791 l 1
 -426 832 l 1
 -340 832 l 1
 -340 912 l 1
 -289 912 l 1
 -289 832 l 1
 -203 832 l 1
 -203 791 l 1
EndSplineSet
Fore
Refer: 355 63245 N 1 0 0 1 -205 0 2
Substitution2: "Single Substitution lookup 42 subtable" uni0E4B.alt3
Substitution2: "Single Substitution lookup 42 subtable" uni0E4B.alt3
EndChar

StartChar: uni0E4C.alt1
Encoding: 63241 63241 351
Width: 0
VWidth: 1504
Flags: W
HStem: 708 40<-336.974 -265.073>
VStem: -385 43<752.923 824.134> -260 39<752.967 823.217> -170 48<955.727 990>
LayerCount: 2
Back
SplineSet
-122 990 m 1
 -124.667 956 -141 931.333 -171 916 c 0
 -188.333 907.333 -212.667 899.333 -244 892 c 0
 -272.667 886.667 -290.667 880 -298 872 c 1
 -276 870 -257.667 861.333 -243 846 c 128
 -228.333 830.667 -221 812 -221 790 c 0
 -221 766.667 -228.833 747.167 -244.5 731.5 c 128
 -260.167 715.833 -279.333 708 -302 708 c 256
 -325.333 708 -345 715.833 -361 731.5 c 128
 -377 747.167 -385 766.667 -385 790 c 0
 -385 860 -349.333 904.667 -278 924 c 2
 -208 945 l 2
 -182.667 953.667 -170 968.667 -170 990 c 1
 -122 990 l 1
-260 788 m 256
 -260 799.333 -264 809 -272 817 c 128
 -280 825 -289.667 829 -301 829 c 256
 -311.667 829 -321 825 -329 817 c 128
 -337 809 -341 799.333 -341 788 c 256
 -341 777.333 -337 768 -329 760 c 128
 -321 752 -311.667 748 -301 748 c 256
 -289.667 748 -280 752 -272 760 c 128
 -264 768 -260 777.333 -260 788 c 256
EndSplineSet
Fore
Refer: 356 63246 N 1 0 0 1 -104 0 2
Substitution2: "Single Substitution lookup 42 subtable" uni0E4C.alt3
Substitution2: "Single Substitution lookup 42 subtable" uni0E4C.alt3
EndChar

StartChar: uni0E48.alt2
Encoding: 63242 63242 352
Width: 0
VWidth: 1504
Flags: W
HStem: 722 21G<-140 -84>
VStem: -140 56<722 939 722 939 722 722>
LayerCount: 2
Fore
SplineSet
-84 722 m 1
 -140 722 l 1
 -140 939 l 1
 -84 939 l 1
 -84 722 l 1
EndSplineSet
Substitution2: "Single Substitution lookup 40 subtable" uni0E48.alt3
Substitution2: "Single Substitution lookup 41 subtable" uni0E48
Substitution2: "Single Substitution lookup 42 subtable" uni0E48.alt1
Substitution2: "Single Substitution lookup 40 subtable" uni0E48.alt3
Substitution2: "Single Substitution lookup 41 subtable" uni0E48
Substitution2: "Single Substitution lookup 42 subtable" uni0E48.alt1
EndChar

StartChar: uni0E49.alt2
Encoding: 63243 63243 353
Width: 0
VWidth: 1504
Flags: W
HStem: 718 21G<-347 -216> 761 21G<-236 -191.5> 939 42<-303.797 -233.981>
VStem: -352 44<864.504 934.364> -230 40<865.109 934.998> -33 62<864.158 967>
LayerCount: 2
Fore
SplineSet
-271 981 m 0
 -222 981 -190 947 -190 897 c 0
 -190 840 -213 795 -259 761 c 1
 -124 771 -49 840 -33 967 c 1
 29 967 l 1
 1 791 -115 718 -317 718 c 2
 -347 718 l 1
 -347 749 l 1
 -308 765 -281 788 -266 818 c 1
 -323 825 -352 854 -352 904 c 0
 -352 950 -314 981 -271 981 c 0
-269 860 m 256
 -248 860 -230 876 -230 900 c 256
 -230 923 -248 939 -269 939 c 256
 -292 939 -308 921 -308 900 c 256
 -308 878 -292 860 -269 860 c 256
EndSplineSet
Substitution2: "Single Substitution lookup 40 subtable" uni0E49.alt3
Substitution2: "Single Substitution lookup 41 subtable" uni0E49
Substitution2: "Single Substitution lookup 42 subtable" uni0E49.alt1
Substitution2: "Single Substitution lookup 40 subtable" uni0E49.alt3
Substitution2: "Single Substitution lookup 41 subtable" uni0E49
Substitution2: "Single Substitution lookup 42 subtable" uni0E49.alt1
EndChar

StartChar: uni0E4A.alt2
Encoding: 63244 63244 354
Width: 0
VWidth: 1504
Flags: MW
HStem: 702 41<-380.667 -313.327> 817 43<-372.407 -313.362> 906 43<-316 -316>
VStem: -432 48<746.869 812.93> -310 42<746.402 813.523> -176 42<767.76 888.866> -63 51<823.688 936>
LayerCount: 2
Fore
SplineSet
-167 746 m 1
 -126 749 -63 807 -63 936 c 1
 -12 936 l 1
 -17 779 -93 701 -238 701 c 1
 -238 736 l 1
 -197 756 -176 789 -176 836 c 0
 -176 872 -193 895 -227 904 c 1
 -272 856 l 1
 -316 906 l 1
 -329 904 -370 880 -376 857 c 1
 -362 859 -353 860 -349 860 c 0
 -295 857 -268 830 -268 779 c 256
 -268 728 -294 702 -347 702 c 0
 -415 702 -432 764 -432 802 c 0
 -432 875 -375 949 -307 949 c 1
 -271 901 l 1
 -235 949 l 1
 -173 948 -134 903 -134 839 c 0
 -134 802 -145 771 -167 746 c 1
-346 743 m 256
 -326 743 -310 757 -310 779 c 256
 -310 802 -326 817 -346 817 c 256
 -366 817 -384 802 -384 779 c 256
 -384 757 -366 743 -346 743 c 256
EndSplineSet
Substitution2: "Single Substitution lookup 40 subtable" uni0E4A.alt3
Substitution2: "Single Substitution lookup 41 subtable" uni0E4A
Substitution2: "Single Substitution lookup 42 subtable" uni0E4A.alt1
Substitution2: "Single Substitution lookup 40 subtable" uni0E4A.alt3
Substitution2: "Single Substitution lookup 41 subtable" uni0E4A
Substitution2: "Single Substitution lookup 42 subtable" uni0E4A.alt1
EndChar

StartChar: uni0E4B.alt2
Encoding: 63245 63245 355
Width: 0
VWidth: 1504
Flags: MW
HStem: 716 21G<-138 -84> 800 45<-224 -138 -84 2>
VStem: -138 54<716 800 845 925 716 925 716 716>
LayerCount: 2
Fore
SplineSet
2 800 m 1
 -84 800 l 1
 -84 716 l 1
 -138 716 l 1
 -138 800 l 1
 -224 800 l 1
 -224 845 l 1
 -138 845 l 1
 -138 925 l 1
 -84 925 l 1
 -84 845 l 1
 2 845 l 1
 2 800 l 1
EndSplineSet
Substitution2: "Single Substitution lookup 40 subtable" uni0E4B.alt3
Substitution2: "Single Substitution lookup 41 subtable" uni0E4B
Substitution2: "Single Substitution lookup 42 subtable" uni0E4B.alt1
Substitution2: "Single Substitution lookup 40 subtable" uni0E4B.alt3
Substitution2: "Single Substitution lookup 41 subtable" uni0E4B
Substitution2: "Single Substitution lookup 42 subtable" uni0E4B.alt1
EndChar

StartChar: uni0E4C.alt2
Encoding: 63246 63246 356
Width: 0
VWidth: 1504
Flags: W
HStem: 708 40<-232.974 -161.073>
VStem: -281 43<752.923 824.134> -156 39<752.967 823.217> -66 48<955.727 990>
LayerCount: 2
Fore
SplineSet
-199 708 m 256
 -244 708 -281 742 -281 790 c 0
 -281 860 -245 905 -174 924 c 2
 -104 945 l 2
 -79 954 -66 969 -66 990 c 1
 -18 990 l 1
 -28 884 -169 902 -194 872 c 1
 -150 868 -117 834 -117 790 c 0
 -117 741 -153 708 -199 708 c 256
-197 748 m 256
 -176 748 -156 765 -156 788 c 256
 -156 812 -176 829 -197 829 c 256
 -221 829 -238 810 -238 788 c 256
 -238 767 -221 748 -197 748 c 256
EndSplineSet
Substitution2: "Single Substitution lookup 40 subtable" uni0E4C.alt3
Substitution2: "Single Substitution lookup 41 subtable" uni0E4C
Substitution2: "Single Substitution lookup 42 subtable" uni0E4C.alt1
Substitution2: "Single Substitution lookup 40 subtable" uni0E4C.alt3
Substitution2: "Single Substitution lookup 41 subtable" uni0E4C
Substitution2: "Single Substitution lookup 42 subtable" uni0E4C.alt1
EndChar

StartChar: uni0E0D.alt1
Encoding: 63247 63247 357
Width: 780
VWidth: 1504
Flags: W
HStem: -14 50<143.835 226.215 481.129 619.717> 137 48<150.956 227.076> 554 48<180.081 343.825>
VStem: 86 54<46.3281 128.102 176 329.195> 236 48<44.8866 127.69> 403 54<58.9197 493.307> 642 54<58.333 120 120 590>
LayerCount: 2
Fore
SplineSet
185 36 m 256
 215 36 236 59 236 86 c 256
 236 116 212 137 185 137 c 256
 158 137 135 116 135 86 c 256
 135 56 158 36 185 36 c 256
260 602 m 0
 381 602 457 534 457 405 c 2
 457 120 l 2
 457 64 488 36 551 36 c 0
 612 36 642 64 642 120 c 2
 642 590 l 1
 696 590 l 1
 696 123 l 2
 696 33 647 -12 549 -12 c 0
 452 -12 403 34 403 125 c 2
 403 399 l 2
 403 502 354 554 257 554 c 0
 188 554 130 508 110 450 c 1
 166 446 206 424 230 384 c 1
 182 373 140 327 140 274 c 2
 140 176 l 1
 153 182 168 185 185 185 c 0
 243 185 284 141 284 87 c 256
 284 50 269 -14 185 -14 c 0
 126 -14 86 26 86 89 c 2
 86 272 l 2
 86 326 112 366 164 391 c 1
 126 406 86 412 45 408 c 1
 63 516 144 602 260 602 c 0
EndSplineSet
EndChar

StartChar: uni0E4C.alt3
Encoding: 63255 63255 365
Width: 0
VWidth: 1504
Flags: W
HStem: 948 36<-300.762 -232.073>
VStem: -347 42<988.529 1057.12> -228 38<988.49 1057.8> -142 46<1178.93 1214>
LayerCount: 2
Back
SplineSet
-87 1235 m 1
 -90.3333 1201 -107 1176.33 -137 1161 c 0
 -153.667 1152.33 -177.667 1144.33 -209 1137 c 0
 -238.333 1132.33 -256.333 1126 -263 1118 c 1
 -241 1116 -222.833 1107.17 -208.5 1091.5 c 128
 -194.167 1075.83 -187 1057 -187 1035 c 0
 -187 1011.67 -194.667 992.333 -210 977 c 128
 -225.333 961.667 -244.667 954 -268 954 c 256
 -290.667 954 -310 961.667 -326 977 c 128
 -342 992.333 -350 1011.67 -350 1035 c 0
 -350 1105 -314.667 1149.67 -244 1169 c 2
 -173 1190 l 2
 -147.667 1198.67 -135 1213.67 -135 1235 c 1
 -87 1235 l 1
-226 1033 m 256
 -226 1044.33 -230 1054 -238 1062 c 128
 -246 1070 -255.333 1074 -266 1074 c 256
 -277.333 1074 -287 1070 -295 1062 c 128
 -303 1054 -307 1044.33 -307 1033 c 256
 -307 1022.33 -303 1013 -295 1005 c 128
 -287 997 -277.333 993 -266 993 c 256
 -255.333 993 -246 997 -238 1005 c 128
 -230 1013 -226 1022.33 -226 1033 c 256
EndSplineSet
Fore
Refer: 285 3660 N 1 0 0 1 -79 0 2
EndChar

StartChar: uni0E38.alt1
Encoding: 63256 63256 366
Width: 0
VWidth: 1504
Flags: W
HStem: -529 42<-198.569 -139.401> -408 39<-198.586 -129.431>
VStem: -244 41<-483.104 -412.513> -137 53<-646 -524> -125 41<-483.04 -413.101>
LayerCount: 2
Back
SplineSet
-84 -633 m 1
 -137 -633 l 1
 -137 -523 l 1
 -145 -526.333 -154 -528 -164 -528 c 0
 -186 -528 -204.833 -520.167 -220.5 -504.5 c 128
 -236.167 -488.833 -244 -470 -244 -448 c 256
 -244 -426 -236.167 -407.333 -220.5 -392 c 128
 -204.833 -376.667 -186 -369 -164 -369 c 256
 -142 -369 -123.167 -376.667 -107.5 -392 c 128
 -91.8333 -407.333 -84 -426 -84 -448 c 2
 -84 -633 l 1
-125 -447 m 256
 -125 -435.667 -128.667 -426.333 -136 -419 c 128
 -143.333 -411.667 -152.667 -408 -164 -408 c 256
 -175.333 -408 -184.667 -411.667 -192 -419 c 128
 -199.333 -426.333 -203 -435.667 -203 -447 c 256
 -203 -457.667 -199.333 -466.833 -192 -474.5 c 128
 -184.667 -482.167 -175.333 -486 -164 -486 c 256
 -152.667 -486 -143.333 -482.167 -136 -474.5 c 128
 -128.667 -466.833 -125 -457.667 -125 -447 c 256
EndSplineSet
Fore
Refer: 269 3640 N 1 0 0 1 0 -297 2
EndChar

StartChar: uni0E39.alt1
Encoding: 63257 63257 367
Width: 0
VWidth: 1504
Flags: W
HStem: -667 47<-238.587 -141.546> -530 42<-356.598 -297.401> -409 39<-356.586 -287.431>
VStem: -402 41<-484.073 -413.513> -295 53<-613.795 -525> -283 41<-484.04 -414.101> -138 54<-614.266 -376>
LayerCount: 2
Back
SplineSet
-84 -540 m 2
 -84 -602 -120.333 -633 -193 -633 c 0
 -261 -633 -295 -603 -295 -543 c 2
 -295 -525 l 1
 -303 -527.667 -312 -529 -322 -529 c 0
 -344 -529 -362.833 -521.333 -378.5 -506 c 128
 -394.167 -490.667 -402 -472 -402 -450 c 256
 -402 -428 -394.167 -409.167 -378.5 -393.5 c 128
 -362.833 -377.833 -344 -370 -322 -370 c 256
 -300 -370 -281.167 -377.833 -265.5 -393.5 c 128
 -249.833 -409.167 -242 -428 -242 -450 c 2
 -242 -552 l 2
 -242 -575.333 -224.667 -587 -190 -587 c 128
 -155.333 -587 -138 -575.333 -138 -552 c 2
 -138 -376 l 1
 -84 -376 l 1
 -84 -540 l 2
-283 -448 m 256
 -283 -437.333 -286.667 -428.167 -294 -420.5 c 128
 -301.333 -412.833 -310.667 -409 -322 -409 c 256
 -332.667 -409 -341.833 -412.833 -349.5 -420.5 c 128
 -357.167 -428.167 -361 -437.333 -361 -448 c 256
 -361 -459.333 -357.167 -468.667 -349.5 -476 c 128
 -341.833 -483.333 -332.667 -487 -322 -487 c 256
 -310.667 -487 -301.333 -483.333 -294 -476 c 128
 -286.667 -468.667 -283 -459.333 -283 -448 c 256
EndSplineSet
Fore
Refer: 270 3641 N 1 0 0 1 0 -298 2
EndChar

StartChar: uni0E3A.alt1
Encoding: 63258 63258 368
Width: 0
VWidth: 1504
Flags: W
HStem: -449 79<-147.325 -76.3668>
VStem: -152 80<-444.355 -374.413>
LayerCount: 2
Back
SplineSet
-72 -409 m 256
 -72 -420.333 -75.8333 -430 -83.5 -438 c 128
 -91.1667 -446 -100.333 -450 -111 -450 c 256
 -122.333 -450 -132 -446 -140 -438 c 128
 -148 -430 -152 -420.333 -152 -409 c 256
 -152 -398.333 -148 -389.167 -140 -381.5 c 128
 -132 -373.833 -122.333 -370 -111 -370 c 256
 -100.333 -370 -91.1667 -373.833 -83.5 -381.5 c 128
 -75.8333 -389.167 -72 -398.333 -72 -409 c 256
EndSplineSet
Fore
Refer: 271 3642 N 1 0 0 1 0 -305 2
EndChar

StartChar: fi
Encoding: 64257 64257 369
Width: 521
VWidth: 1504
GlyphClass: 3
Flags: W
HStem: 0 21G<90 149 385 444> 465 46<15 90 149 385> 722 50<210.726 376.036>
VStem: 90 59<0 465 511 651.81> 385 59<0 465>
LayerCount: 2
Fore
SplineSet
90 537 m 2
 90 640 132 772 299 772 c 0
 348 772 390 758 427 731 c 1
 402 686 l 1
 363 710 326 722 289 722 c 0
 196 722 149 660 149 537 c 2
 149 511 l 1
 444 511 l 1
 444 0 l 1
 385 0 l 1
 385 465 l 1
 149 465 l 1
 149 0 l 1
 90 0 l 1
 90 465 l 1
 15 465 l 1
 15 511 l 1
 90 511 l 1
 90 537 l 2
EndSplineSet
Ligature2: "'liga' Standard Ligatures in Latin lookup 38 subtable" f i
Ligature2: "'rlig' Required Ligatures in Latin lookup 19 subtable" f i
LCarets2: 1 305 
EndChar

StartChar: fl
Encoding: 64258 64258 370
Width: 607
VWidth: 1504
GlyphClass: 3
Flags: W
HStem: -11 52<506.425 575> 465 46<15 90 149 296> 722 50<222.709 366.845>
VStem: 90 59<0 465 511 641.401> 385 59<119.391 257 257 707>
LayerCount: 2
Fore
SplineSet
444 280 m 2
 444 141 463 42 581 41 c 1
 575 -11 l 1
 448 -5 385 84 385 257 c 2
 385 707 l 1
 365 717 340 722 311 722 c 0
 252 722 149 701 149 534 c 2
 149 511 l 1
 296 511 l 1
 296 465 l 1
 149 465 l 1
 149 0 l 1
 90 0 l 1
 90 465 l 1
 15 465 l 1
 15 511 l 1
 90 511 l 1
 90 526 l 2
 90 723 227 772 323 772 c 0
 362 772 403 762 444 742 c 1
 444 280 l 2
EndSplineSet
Ligature2: "'liga' Standard Ligatures in Latin lookup 38 subtable" f l
Ligature2: "'rlig' Required Ligatures in Latin lookup 19 subtable" f l
LCarets2: 1 305 
EndChar

